<?xml version="1.0" encoding="utf-8"?>
<!-- Generator: Adobe Illustrator 21.0.0, SVG Export Plug-In . SVG Version: 6.00 Build 0)  -->
<svg version="1.1" id="Vrstva_1" xmlns="http://www.w3.org/2000/svg" xmlns:xlink="http://www.w3.org/1999/xlink" x="0px" y="0px"
	 viewBox="0 0 349.8 350" style="enable-background:new 0 0 349.8 350;" xml:space="preserve">
<style type="text/css">
	.st0{fill:#FFFFFF;}
</style>
<g>
	<path class="st0" d="M282,308.9H67.8c-14.8,0-26.8-12-26.8-26.8c0-14.8,12-26.8,26.8-26.8H282c14.8,0,26.8,12,26.8,26.8
		C308.8,296.9,296.8,308.9,282,308.9z"/>
</g>
<g>
	<path class="st0" d="M282,201.7H67.8C53,201.7,41,189.8,41,175s12-26.8,26.8-26.8H282c14.8,0,26.8,12,26.8,26.8
		S296.8,201.7,282,201.7z"/>
</g>
<g>
	<path class="st0" d="M282,94.7H67.8C53,94.7,41,82.7,41,67.9s12-26.8,26.8-26.8H282c14.8,0,26.8,12,26.8,26.8S296.8,94.7,282,94.7z
		"/>
</g>
</svg>
