<?xml version="1.0" encoding="utf-8"?>
<!-- Generator: Adobe Illustrator 22.1.0, SVG Export Plug-In . SVG Version: 6.00 Build 0)  -->
<svg version="1.1" id="Vrstva_1" xmlns="http://www.w3.org/2000/svg" xmlns:xlink="http://www.w3.org/1999/xlink" x="0px" y="0px"
	 viewBox="0 0 68.7 68.7" style="enable-background:new 0 0 68.7 68.7;" xml:space="preserve">
<style type="text/css">
	.st0{fill:#FFFFFF;}
</style>
<g>
	<path class="st0" d="M58.6,14.4H12.9c-2,0-3.6,1.4-4.1,3.2c0,0,0.6,0,0.9,0h1.2c0.4-0.8,1.1-1.3,2-1.3h45.7c1.2,0,2.3,1,2.3,2.3v29
		c0,0.9-0.5,1.7-1.3,2v1.2c0,0.3,0,0.9,0,0.9c1.8-0.4,3.2-2.1,3.2-4.1v-29C62.8,16.3,60.9,14.4,58.6,14.4z"/>
	<path class="st0" d="M53.8,19.2H9.2H8.1c-0.3,0-0.6,0-0.9,0.1c-1.9,0.4-3.3,2.1-3.3,4.1v29c0,2.3,1.9,4.2,4.2,4.2h45.7
		c2,0,3.7-1.4,4.1-3.3c0.1-0.3,0.1-0.6,0.1-0.9v-1.2V23.4C58,21.1,56.1,19.2,53.8,19.2z M5.8,49.2V23.4c0-0.9,0.5-1.7,1.3-2
		c0.3-0.1,0.6-0.2,1-0.2h1h44.7c1.2,0,2.3,1,2.3,2.3v18.4L42.5,28.3c-0.4-0.4-1-0.4-1.4,0L27.7,41.7l-6.5-6.5
		c-0.2-0.2-0.4-0.3-0.7-0.3c-0.3,0-0.5,0.1-0.7,0.3L9,46l-1.9,1.9L5.8,49.2z M56,52.4c0,0.3-0.1,0.7-0.2,1c-0.4,0.8-1.1,1.3-2,1.3
		H8.1c-1.2,0-2.3-1-2.3-2.3V52l1.5-1.5L9,48.7l11.5-11.5l6.5,6.5c0.4,0.4,1,0.4,1.4,0l13.4-13.4L56,44.5v6.9V52.4z"/>
	<path class="st0" d="M14.5,33.2c2.1,0,3.8-1.7,3.8-3.8c0-2.1-1.7-3.8-3.8-3.8c-2.1,0-3.8,1.7-3.8,3.8
		C10.7,31.5,12.4,33.2,14.5,33.2z M14.5,27c1.3,0,2.4,1.1,2.4,2.4c0,1.3-1.1,2.4-2.4,2.4s-2.4-1.1-2.4-2.4
		C12.1,28.1,13.2,27,14.5,27z"/>
</g>
</svg>
