<?xml version="1.0" encoding="utf-8"?>
<!-- Generator: Adobe Illustrator 22.1.0, SVG Export Plug-In . SVG Version: 6.00 Build 0)  -->
<svg version="1.1" id="Vrstva_1" xmlns="http://www.w3.org/2000/svg" xmlns:xlink="http://www.w3.org/1999/xlink" x="0px" y="0px"
	 viewBox="0 0 68.7 68.7" style="enable-background:new 0 0 68.7 68.7;" xml:space="preserve">
<style type="text/css">
	.st0{fill:#FFFFFF;}
</style>
<g>
	<path class="st0" d="M17.7,29.4c2.1,0,3.8-1.7,3.8-3.8c0-2.1-1.7-3.8-3.8-3.8c-2.1,0-3.8,1.7-3.8,3.8
		C13.8,27.7,15.6,29.4,17.7,29.4z M17.7,23.2c1.3,0,2.4,1.1,2.4,2.4S19,28,17.7,28c-1.3,0-2.4-1.1-2.4-2.4S16.3,23.2,17.7,23.2z"/>
	<path class="st0" d="M56.9,16.2H11.2c-2.3,0-4.2,1.9-4.2,4.2v29c0,2.3,1.9,4.2,4.2,4.2h45.7c2.3,0,4.2-1.9,4.2-4.2v-29
		C61.1,18.1,59.2,16.2,56.9,16.2z M11.2,18.1h45.7c1.2,0,2.3,1,2.3,2.3v18.7L45.4,25.2c-0.4-0.4-1-0.4-1.4,0L30.6,38.7L24,32.1
		c-0.4-0.4-1-0.4-1.4,0L9,45.8V20.4C9,19.1,10,18.1,11.2,18.1z M56.9,51.6H11.2c-1.2,0-2.3-1-2.3-2.3v-0.8l14.4-14.4l6.5,6.5
		c0.4,0.4,1,0.4,1.4,0l13.4-13.4l14.4,14.4l0.1-0.1v7.7C59.2,50.6,58.2,51.6,56.9,51.6z"/>
</g>
</svg>
