<svg id="Vrstva_1" data-name="Vrstva 1" xmlns="http://www.w3.org/2000/svg" viewBox="0 0 1920 499.1"><defs><style>.cls-1{fill:#a8d0da;}.cls-2{fill:#406d96;}.cls-3{fill:#fff;}.cls-4{fill:#e2474b;}.cls-5{fill:#2f3a56;}</style></defs><title>Kreslicí plátno 1</title><path class="cls-1" d="M1360.1,144.2c-34.6,0-60.3-.1-85.7,4.3,3.4,33.9,6.3,67.8,6.5,85.9l172.4-48.1V142.6C1415.8,144.3,1385.7,144.2,1360.1,144.2Z"/><path class="cls-1" d="M1490.8,1.8l-40.4,40.5a.37.37,0,0,0,.1.3l12,82.8c36.7-1.9,80.5-5.7,133.9-12.9C1570.2,82.8,1526.1,34.4,1490.8,1.8Z"/><path class="cls-1" d="M1456.6,195.7a4.18,4.18,0,0,1-1,.4L1280.4,245c-1.4,12.2-4.5,28.9-7.5,45.1-1.8,9.8-3.7,19.8-5.2,28.6a23.66,23.66,0,0,1,12,9.1c2.7-.9,4.9-1.9,6.7-2.6,7-3.2,13.4-5.9,19.4-8.2,39.3-15,64.9-20.8,122-30.9,42.8-7.5,77.6-9.1,140.7-11.9,11.5-.5,32.8-1,59.8-1.5L1617,207.9Z"/><path class="cls-1" d="M1770.4,89.3c-35.6,9.5-57.2,27.3-69.4,41.2a83,83,0,0,0-10,15.5l87,36.2Z"/><path class="cls-1" d="M1892.5,58,1866.6,0h-94.3l6.5,78.1C1811.9,70.1,1855.9,63.1,1892.5,58Z"/><path class="cls-1" d="M1684.8,143.4a103.07,103.07,0,0,1,11.9-16.5,107,107,0,0,1,8.2-9.2c11.8-12.1,32.4-28,64.9-37.2L1763.1,0H1622.3l-4.2,115.6Z"/><path class="cls-1" d="M33.4,455.2,0,467.2V499H27.6C29.2,485.2,31.1,470.6,33.4,455.2Z"/><path class="cls-1" d="M1772.3,193l-151.9-63.2,24.9,142.7c10.6-.1,21.9-.3,33.7-.4l-11.9-55,4.2-1-.7-3.2,5.4-1.3,56.8-12.7a2.77,2.77,0,1,1,1.2,5.4l-1.6.3c.1.2.1.3.2.5a2.76,2.76,0,0,1-2.1,3.3l-52.7,11.8,11.1,51.6,66-.6,21.7-71.2A8.57,8.57,0,0,1,1772.3,193Z"/><path class="cls-1" d="M1854.4,354.7,1894,472.5l26,9.2V289.3c-17,0-39.7.1-65.6.2Z"/><path class="cls-1" d="M1262.1,338a8.71,8.71,0,0,0-4.2-1.7,2.77,2.77,0,0,0-.9-.1,8.81,8.81,0,0,0-1.7.2c-.5.1-.9.3-1.3.4a5.39,5.39,0,0,0-1.3.7,7.65,7.65,0,0,0-.6,3,8.66,8.66,0,0,0,3.7,7,12.44,12.44,0,0,0,2,1,7.63,7.63,0,0,0,2.7.5,9.33,9.33,0,0,0,4.4-1.2,8.15,8.15,0,0,0,.6-3.1A8.52,8.52,0,0,0,1262.1,338Z"/><path class="cls-1" d="M1788.6,195.7a7.89,7.89,0,0,1-4.1,4.5L1763,271c60.6-.5,120.5-.8,156.9-.7V190.2l-130.6,4.9C1789.2,195.4,1788.9,195.5,1788.6,195.7Z"/><path class="cls-1" d="M1458.4,425.9l.3-.9-188.5-61.4a23.07,23.07,0,0,1-12.1,4.1c-5.2,12.5-14.4,32-30.1,62.6-5.4,10.4-10.8,20.8-15.8,30.2l32.1,38.5h201.5C1444.7,476,1448.9,451.5,1458.4,425.9Z"/><path class="cls-1" d="M457.1,499.1h31.5l-3.2-12C475.9,490.9,466.5,494.9,457.1,499.1Z"/><path class="cls-1" d="M435.7,416.4,304,443.8l12.8,22.7a2.79,2.79,0,0,1-1,3.8,3.53,3.53,0,0,1-1.4.3,3.08,3.08,0,0,1-1.3-.3l.2.4a2.79,2.79,0,0,1-1,3.8,3.53,3.53,0,0,1-1.4.3,2.69,2.69,0,0,1-2.4-1.4L293,445.9c-.1.1-.1.1-.3.1l-75.3,26.8a2.77,2.77,0,0,1-.9.1,2.8,2.8,0,0,1-2.6-1.9,2.71,2.71,0,0,1,1.7-3.6l1.8-.6a2.68,2.68,0,0,1,1.7-3.5l69.8-24.9-35.3-62.6L42.3,452c-2.4,16.5-4.5,32.3-6.1,47H417.3c16.4-8.2,33.1-15.9,49.9-23.1Z"/><path class="cls-1" d="M1249.5,366.6a23.18,23.18,0,0,1-14.1-14.1c-16.2-.1-35.9-2.5-59.1-8.9-6.5-1.8-12-3.3-16.5-4.6-21.5-6-24.9-6.9-49-12-23.3-4.9-38.3-7.9-50.8-9.7a252.75,252.75,0,0,1-.6,25.3,133.39,133.39,0,0,1-4,24.4l95.1,32.6L1125,465.2l1.3,29.8,20.4,4.1h35.8c5.1-9.2,20.7-37.8,36-67.7C1235.5,398.5,1244.6,378.6,1249.5,366.6Z"/><path class="cls-1" d="M771.4,409.9c-21.2,6.5-43.5,11.8-69.3,18-24.7,5.8-36.8,7.8-48.5,9.6a460,460,0,0,0-45.4,9.2,932.48,932.48,0,0,0-109.8,35.2c-.8.3-1.5.6-2.2.9l4.4,16.2H761.1l26.2-26.2Z"/><path class="cls-1" d="M968.9,487.7c-61.6,17.3-107.6,5.9-110.4,5.2l-66.3-14.6L771.5,499h319a161.94,161.94,0,0,1-16.8-6.1C1055.6,485.1,1017.8,473.9,968.9,487.7Z"/><path class="cls-1" d="M1191.6,499.1h38.6L1206.8,471C1199.6,484.3,1194,494.7,1191.6,499.1Z"/><polygon class="cls-1" points="1804.4 499.1 1920 499.1 1920 492.9 1809.8 454 1804.4 499.1"/><path class="cls-1" d="M1608.4,382.9l-19.1,49.3c-.1.2-.1.4-.3.6a2.68,2.68,0,0,1-2.3,1.2l-.9,2.4c-.1.2-.1.4-.3.6a2.8,2.8,0,0,1-3.3,1,2.73,2.73,0,0,1-1.6-3.6l20.9-53.9-87.6-30.9c-1.3,1.9-2.7,3.7-4,5.7-25.5,36.3-54.3,90.3-49.6,143.9h239.9l12.3-79.4Z"/><polygon class="cls-1" points="1720.5 422.5 1708.6 499.1 1795.9 499.1 1801.6 451.1 1720.5 422.5"/><path class="cls-1" d="M790.6,257.1a3.19,3.19,0,0,0,1.4-.3,7.53,7.53,0,0,1-3-1.8,5.36,5.36,0,0,0-1.1.5A3,3,0,0,0,790.6,257.1Z"/><path class="cls-1" d="M868.9,45.2c-99.8,71.3-142.4,85.4-157.8,88,5.6,21.7,10.7,41.8,14.3,56.1,28-8.8,49.2-15.6,50.7-16.1l99.5-38.3a2.79,2.79,0,1,1,2,5.2l-1.8.7a2.78,2.78,0,0,1-1.6,3.5l-99.7,38.4c-2.3.7-21.4,6.8-46.9,14.9,2.1,8.4,3.4,13.5,3.5,13.7l14.4,54.8c12.5-4.9,28.7-11.3,38.6-15.2a8.06,8.06,0,0,1,3.2-3.4,7.45,7.45,0,0,1,7-5.1,7.34,7.34,0,0,1,7.3,7.3,7.64,7.64,0,0,1-1.9,4.9c1.2,3.1,2.9,7.3,5.2,13.5,2.9,7.7,5.7,15.5,6.6,18.1,5.9,3.6,14.3,8.3,19.8,11.5,5.4,3,6.1,3.4,6.4,3.7.6.4,1.8,1.4,12.4,22.8a.1.1,0,0,1,.1.1l4.6,9.4a2.82,2.82,0,0,1-2.6,4,2.66,2.66,0,0,1-1.2-.3l.2.5a2.82,2.82,0,0,1-2.6,4,3,3,0,0,1-2.5-1.5l-4.6-9.4c-4.5-9.2-9.7-19.2-11-21.1-.8-.5-3.1-1.7-5.6-3.1-5.9-3.3-14.8-8.4-20.9-12.1l-.8-.5-.3-.9c-4.2-11.8-9-24.8-11.9-32h-.4a7.26,7.26,0,0,1-5.2-2.2c-5.8,2.4-16.9,6.7-38,15l30.3,115.2A390.47,390.47,0,0,0,830,368.1c11.1-5.5,18.9-10,26.5-14.3a308.84,308.84,0,0,1,43-21.4c29.3-12.2,53.7-18.9,69.9-23.3,24-6.6,38.8-10.6,51.4-12.1l-16.7-46.2-96.7-6.2a2.75,2.75,0,0,1,.3-5.5l1,.1a2.54,2.54,0,0,1-.4-1.7,2.85,2.85,0,0,1,2.9-2.6l89.1,5.7L956.5,119.1C955.4,118.1,910.9,80.1,868.9,45.2Z"/><path class="cls-1" d="M793.3,252.8a2.83,2.83,0,0,0-1.8-1.6l-.3-.1A3.2,3.2,0,0,0,793.3,252.8Z"/><path class="cls-1" d="M797.1,250.6a2.77,2.77,0,0,0,.1-.9v-.2c-1-2-1.6-2.2-2.3-2.4l-1.3-.4-.6.4A6.8,6.8,0,0,1,797.1,250.6Z"/><polygon class="cls-1" points="1187.9 187.3 1187.9 187.3 1187.9 186.3 1102.1 178.5 985.3 164.6 985.7 165.8 1099 179.2 1187.9 187.3"/><path class="cls-1" d="M857.4,402.6c49.4,10.3,70.5,6.8,70.8,6.7,8.8-1.7,86.1-16.6,108.3-25.5a12.37,12.37,0,0,0,3.7-2.4c9.3-14.5,10-46.8,9.2-65.5-6.9-.6-13.5-.9-21.1-.9h-.2c-13.6,0-28.6,4.1-58.4,12.3A542.28,542.28,0,0,0,901.6,350c-19.8,8.2-29.7,14-41.3,20.6-6.5,3.7-13.2,7.6-22,12.1C840.3,390.1,845.3,400.1,857.4,402.6Z"/><path class="cls-1" d="M1444,37.2a5.84,5.84,0,0,1,1.9.2L1483,0H1263.6l-.5,41.1Z"/><path class="cls-1" d="M1603.1,128c-55.7,7.7-101.3,11.8-139.4,13.9v44.2l151.6,11.7Z"/><path class="cls-1" d="M1062.9,56.5,975,105.7c43.8,7.7,221.3,37.3,286.9,28.6-4.3-41-8.7-78-9.2-82Z"/><path class="cls-1" d="M1262.5,292.9c3.1-16.7,6.3-33.9,7.5-46,1.3-12.8-2.3-54.8-6.5-96.5a230.38,230.38,0,0,1-34.8,2.2c-9.9,0-20.6-.3-31.8-1v82.2a2.74,2.74,0,0,1-2.5,2.8l-1,.1V238a2.74,2.74,0,0,1-2.5,2.8l-94.7,8.7h-.2l-79.7,1.2,16.4,45.6c26,.1,42.1,3.1,84.4,12.1,24.7,5.2,28,6.1,49.9,12.3,4.6,1.3,9.9,2.8,16.4,4.6a222.34,222.34,0,0,0,53.3,8.4,23.83,23.83,0,0,1,4.3-5.6,23.15,23.15,0,0,1,16.9-10.4C1259.4,310,1260.9,301.5,1262.5,292.9Z"/><path class="cls-1" d="M1903.3,56.4c5.9-.8,11.4-1.5,16.7-2.2V0h-41.8l25,56.2A.35.35,0,0,0,1903.3,56.4Z"/><path class="cls-1" d="M1545.2,38.1c23.2,24.3,44.9,48.5,57.7,63L1606.5,0h-99.4C1518.4,10.7,1531.1,23.5,1545.2,38.1Z"/><path class="cls-1" d="M1565.7,292.9c-1,.1-2,.1-2.9.1-5.8,5.6-18.1,17.9-32.2,34.6-3.3,4-6.7,8.3-10.1,12.7l191.1,67.4-28.3-117.1C1629.8,291.3,1584.4,292.1,1565.7,292.9Z"/><path class="cls-1" d="M1781.7,189.9c0,.1.1.1.1.2a2.55,2.55,0,0,0,1.5,1.2,2.7,2.7,0,0,0-.7-.8A4.7,4.7,0,0,0,1781.7,189.9Z"/><path class="cls-1" d="M1787.3,180.7a8.13,8.13,0,0,1,4.8,4.8l73.3-2.8V112.6a2.86,2.86,0,0,1,2.8-2.8,1.7,1.7,0,0,1,.7.1v-1.5a2.8,2.8,0,1,1,5.6,0v73.8l45.6-1.7V63.7c-38.7,4.9-97.8,13.3-140.4,23.3Z"/><path class="cls-1" d="M1693.4,290.5l15.9,65.6v-4h136V289.2C1798.5,289.5,1743.1,290,1693.4,290.5Z"/><polygon class="cls-1" points="1710.7 362 1722.7 411.8 1881.7 467.9 1846.1 362 1710.7 362"/><polygon class="cls-1" points="1187.9 190.8 1098.6 182.6 987 169.4 1012.9 241.2 1099.3 239.8 1187.9 231.6 1187.9 190.8"/><path class="cls-1" d="M39,419.6c16.3-95.8,40.3-188.8,66-255.7l-87.8-35C10.7,135,4.8,140.4,0,144.8V458.4l34.8-12.5C36.1,437.3,37.5,428.6,39,419.6Z"/><path class="cls-1" d="M1522.8,320.7c8.9-10.8,17.2-19.9,23.9-26.9-54.6,2.5-83.7,4.5-119.8,10.8-57,10-80.9,15.5-119.4,30.1-5.7,2.2-11.8,4.7-18.5,7.9-1.6.7-3.6,1.6-6,2.5a24.1,24.1,0,0,1-4.7,10.1l184.4,59.9a338.73,338.73,0,0,1,35.1-62C1506.3,341,1514.9,330.2,1522.8,320.7Z"/><path class="cls-1" d="M0,122.1v7.5c1.8-1.6,3.7-3.4,5.7-5.2Z"/><path class="cls-1" d="M115.2,17A190.14,190.14,0,0,1,132.7,0H0V110.5l14.5,5.8C44.6,88.3,89,46.1,115.2,17Z"/><polygon class="cls-1" points="353.7 0 279.9 0 316.2 36.4 353.7 0"/><polygon class="cls-1" points="552.1 56.4 586.2 17.7 575.8 0 488.7 0 553.9 54.2 552.1 56.4"/><polygon class="cls-1" points="1252.8 41.3 1253.2 0 1139.8 0 1140.7 43.7 1252.8 41.3"/><path class="cls-1" d="M771.4,0H681.9c1.2,16.2,3.2,32.4,6.7,47Z"/><path class="cls-1" d="M1263.7,52.2c1.5,12.5,5.3,45.1,9,80.3,27.6-5.1,55.7-5.1,90.9-5,24.3.1,52.8.1,87.9-1.5l-11.3-77.7Z"/><path class="cls-1" d="M925.9,420.5a78.12,78.12,0,0,1-12.8.8c-11.6,0-31.3-1.3-60.7-7.5-14.9-3.1-21.9-15.5-24.7-25.8A385.26,385.26,0,0,1,782,406.3l15.2,60.9,66.3,14.6c.5.1,46.6,11.7,106.8-5.2,4-1.1,8-2.1,11.9-2.9l-12.7-62.1C949.9,415.9,932.2,419.3,925.9,420.5Z"/><path class="cls-1" d="M612.5,77.9,588.9,23.4l-68.2,77.2,12.2,16.6C557.3,102.8,586.4,89.1,612.5,77.9Z"/><path class="cls-1" d="M302.7,230.8a4.88,4.88,0,0,1,.7.3l98.2,39.1a9.06,9.06,0,0,1,4.5-3.4l30.1-94.4L277.6,13.2,244.5,80l76.6,35-32.6,72.1a2.86,2.86,0,0,1-2.3,1.7l-1.1,2.5a2.83,2.83,0,0,1-2.5,1.7,2.28,2.28,0,0,1-1.1-.3,2.83,2.83,0,0,1-1.4-3.7l30.3-67.1L239.8,89.6l-48,97,110.6,43.9C302.5,230.7,302.5,230.7,302.7,230.8Z"/><path class="cls-1" d="M418.1,273.6a9.27,9.27,0,0,1-4,9.7,10.93,10.93,0,0,1-.8,1.5,9.1,9.1,0,0,1-5.6,4l-11.4,30.8L426.2,376l151.3-35.5-19.9-24a2.81,2.81,0,0,1,.3-3.9,2.74,2.74,0,0,1,3.1-.3,2.73,2.73,0,0,1,.4-3.9,2.81,2.81,0,0,1,3.9.3l25,30.2,21.1,88.4c21-5.1,31.8-6.8,43.1-8.6,11.5-1.8,23.3-3.7,47.4-9.4,24.7-5.8,45.4-10.8,64.9-16.7L720.7,217.1c-.1-.2-1.6-6.3-4.1-16.2-52.9,16.6-125.1,38.6-140.5,40.3a21.75,21.75,0,0,1-2.6.1c-26.4,0-82.2-40.3-84.7-42.1a2.74,2.74,0,0,1-.6-3.9,2.78,2.78,0,0,1,3.6-.8,2.85,2.85,0,0,1-.1-3.4,2.74,2.74,0,0,1,3.9-.6c.6.5,60.3,43.6,83.4,40.9,14.4-1.6,83.2-22.5,135.6-38.9-8.1-32-22.6-88.8-33.9-131.6-17.3,6.3-94.6,35-148.3,66.7-50.4,29.7-77.4,42-87,46l-30.3,94.7A10.82,10.82,0,0,1,418.1,273.6Z"/><path class="cls-1" d="M596.5,14.6l25.6,59.2c24.6-10.4,45.7-18.3,56.1-22.2-3.7-16.1-5.8-33.9-6.9-51.6H588.2l8.4,14.4Z"/><path class="cls-1" d="M1053.9,371.8l91.5,31.4.6-1.5-91.6-31.3A5.78,5.78,0,0,0,1053.9,371.8Z"/><polygon class="cls-1" points="263.7 372.3 299.3 435.5 431.2 408.1 388.4 327.3 263.7 372.3"/><path class="cls-1" d="M396.5,281.7a12.25,12.25,0,0,1-.2-1.9l-94.4-37.5L263.1,363.8,389,318.3l11.4-30.9A9.28,9.28,0,0,1,396.5,281.7Z"/><path class="cls-1" d="M443.6,164.2c5.7-2.3,30.6-12.8,80-41.5L499.5,90a2.66,2.66,0,0,1,.6-3.9,2.79,2.79,0,0,1,2.9-.3h0a2.79,2.79,0,0,1,4.5-3.3l9.9,13.4,29.3-33.3L471.4,0H362.6l-42,40.8Z"/><path class="cls-1" d="M708.7,124c1.9.1,11-.2,32.5-9.5,21.3-9.2,59.5-29.5,122.1-73.8C844,24.6,825.6,9.8,812.8,0H789.5L691,56C696.5,76.9,702.8,101,708.7,124Z"/><path class="cls-1" d="M113.7,318.9l4-1.1-.5-3.1,86-23.8,15.6-41.8a2.71,2.71,0,0,1,2.6-1.8l.9-2.4a2.79,2.79,0,1,1,5.2,2l-17.9,48-2.1.6-1.3,3.6-82,22.7,13.9,86.9,116.3-41.9,40.7-127.5L112.2,166.6C87,232.8,63.9,323.2,48,416.4c-1.5,8.9-3,17.7-4.3,26.3l84.9-30.6Z"/><path class="cls-1" d="M582.4,348.5l-152,35.7,11.9,22.4a2.53,2.53,0,0,1,1.4,1.9,2,2,0,0,1,.1.8l33.1,62.6c6.4-2.6,12.9-5.3,19.4-7.8a918.53,918.53,0,0,1,105.6-34.2l-20.1-84.1Z"/><path class="cls-1" d="M406.4,276.8a3.05,3.05,0,0,0,1.9,1.6A3.33,3.33,0,0,0,406.4,276.8Z"/><path class="cls-1" d="M119.4,28.2C95.2,55.1,55.7,93,25.9,120.8l86.2,34.3a3.55,3.55,0,0,1,1,.2,2.36,2.36,0,0,1,.9.6l71.2,28.4L272.5,8.1,264.4,0H151.1A222.39,222.39,0,0,0,119.4,28.2Z"/><path class="cls-1" d="M1142.5,405.8,1052.6,375a34.4,34.4,0,0,1-7.2,11.1,21.8,21.8,0,0,1-9.9,8.4c-11,4.4-34,10-56.4,15l12.8,62.4c40.5-6.3,71.7,3.3,87.9,10.3a131,131,0,0,0,27.1,8.6l12,2.4-1-24.7Z"/><path class="cls-1" d="M970.1,122.4,984,161l118.5,14.1,85.5,7.8V151.3C1107.9,145.8,1003.7,128.3,970.1,122.4Z"/><polygon class="cls-1" points="1122.6 494 1122.7 494 1121.6 469 1121.5 469.3 1122.6 494"/><path class="cls-1" d="M1063.1,46.3a5.21,5.21,0,0,1,3-.8l65.4-1.5-.9-44H965l-4.1,2.2.8,1.9L937,17.1a2.08,2.08,0,0,1-1.3.3,2.51,2.51,0,0,1-2.4-1.5,2.83,2.83,0,0,1,1.2-3.8l2.1-1.1A2.82,2.82,0,0,1,938,7.9l15.1-8H841.9c41.3,33.1,104.9,87.2,122,101.9Z"/><path class="cls-2" d="M27.6,499.1h3c1.7-15,3.7-31.1,6.3-48L0,464.3v2.9l33.4-12C31.1,470.6,29.2,485.2,27.6,499.1Z"/><path class="cls-2" d="M901.5,350a542.28,542.28,0,0,1,68.1-22.7c29.8-8.1,44.8-12.3,58.4-12.3h.2c7.6,0,14.2.3,21.1.9.8,18.7,0,51-9.2,65.5,12.5-11.2,13.6-48.8,12.7-69.7-6.9-.6-13.5-.9-21.1-.9h-.2c-13.6,0-28.6,4.1-58.4,12.3A542.28,542.28,0,0,0,905,345.8c-19.8,8.2-29.7,14-41.3,20.6-7.5,4.2-15.1,8.7-26,14.1.2.7.3,1.4.5,2.1,8.9-4.5,15.5-8.4,22-12.1C871.8,364,881.7,358.2,901.5,350Z"/><path class="cls-2" d="M1615.3,197.8l4.3.3-13-74.2c-57.5,7.9-104,12-142.9,14.1v4c38.2-2.1,83.7-6.2,139.4-13.9Z"/><path class="cls-2" d="M904.8,241.6a2.66,2.66,0,0,0,2.6,2.9l96.7,6.2,16.7,46.2c1.6-.2,3.2-.4,4.8-.5l-18-49.9-96.7-6.2a2.33,2.33,0,0,1-2.1-1.3l-1-.1A3,3,0,0,0,904.8,241.6Z"/><path class="cls-2" d="M1187.9,151.2v31.6l3.5.3V147c-84.8-5.6-197-25-223.1-29.7l1.8,5.1C1003.7,128.3,1107.9,145.8,1187.9,151.2Z"/><path class="cls-2" d="M1062.9,56.5l189.8-4.2c.5,4,4.9,41,9.2,82l3.9-.6c-4.4-42.4-9.1-81.5-9.5-85.6l-189.8,4.2L972,105.2c.9.2,1.9.3,3,.5Z"/><path class="cls-2" d="M790.6,261.3h.4c2.9,7.2,7.7,20.1,11.9,32l.3.9.8.5c6.1,3.7,15,8.8,20.9,12.1,2.4,1.4,4.7,2.6,5.6,3.1,1.3,1.9,6.5,11.9,11,21.1l4.6,9.4a2.75,2.75,0,0,0,2.5,1.5,3.45,3.45,0,0,0,1.3-.3,2.85,2.85,0,0,0,1.3-3.7l-.2-.5a3.74,3.74,0,0,1-1.3-1.2l-4.6-9.4c-4.5-9.2-9.7-19.2-11-21.1-.8-.5-3.1-1.7-5.6-3.1-5.9-3.3-14.8-8.4-20.9-12.1l-.8-.5-.3-.9c-4.2-11.8-9-24.8-11.9-32h-.4a7.61,7.61,0,0,1-2.1-.3,3.22,3.22,0,0,1-4.2-1.4c-6.5,2.6-18.6,7.4-41,16.2l.7,2.5c21-8.3,32.2-12.7,38-15A6.86,6.86,0,0,0,790.6,261.3Z"/><path class="cls-2" d="M939.3,13.3a2.61,2.61,0,0,1-2.4-1.5,1.45,1.45,0,0,1-.2-.7l-2.1,1.1a2.81,2.81,0,0,0-1.2,3.8,2.71,2.71,0,0,0,2.4,1.5,3.08,3.08,0,0,0,1.3-.3L969.6,0h-4.4L940.6,12.9A2.2,2.2,0,0,1,939.3,13.3Z"/><path class="cls-2" d="M793.3,252.8a2.2,2.2,0,0,0,.8.1,3.34,3.34,0,0,0,3.1-2.3,7.45,7.45,0,0,0-4.1-3.5l-.4.3a8.66,8.66,0,0,1-1.2.5,3.08,3.08,0,0,0-.6,1.9,2.82,2.82,0,0,0,.4,1.5l.3.1C792.1,251.4,792.5,251.6,793.3,252.8Zm2.2-.6c-.2.1-.3.1-.5.2C795.3,252.3,795.4,252.2,795.5,252.2Z"/><polygon class="cls-2" points="1187.9 190.8 1187.9 231.6 1191.4 231.3 1191.4 186.6 1187.9 186.3 1187.9 187.3 1187.9 187.3 1099 179.2 985.7 165.8 987 169.4 1098.6 182.6 1187.9 190.8"/><path class="cls-2" d="M874.2,144.3a2.74,2.74,0,0,0,1.6-3.5l-97.9,37.7c-2.4.8-23.5,7.5-51.1,16.2.3,1,.5,1.9.7,2.9,25.5-8.1,44.6-14.2,46.9-14.9Z"/><path class="cls-2" d="M784,250.9c1-.4,2-.8,2.8-1.1a6.2,6.2,0,0,1,.4-2.3A8.06,8.06,0,0,0,784,250.9Z"/><path class="cls-2" d="M868.9,45.2c42,34.8,86.5,72.9,87.7,73.9l43.8,121.5,5.1.3-45.4-126c-1.2-1-45.7-39.1-87.7-73.9-111.8,79.9-151.8,88-162.2,88.5.3,1.2.6,2.5.9,3.7C726.5,130.7,769.1,116.5,868.9,45.2Z"/><path class="cls-2" d="M1773.4,79.4,1766.9,0h-3.8l6.6,80.5C1770.9,80.1,1772.2,79.8,1773.4,79.4Z"/><path class="cls-2" d="M1772.3,193a8.47,8.47,0,0,0,4.2,7l-21.7,71.2h5.2l-2.7-.9,22.6-74.4a8.47,8.47,0,0,1-4.2-7l-156.5-65.1,1.1,6.1Z"/><path class="cls-2" d="M213.9,471.1a2.9,2.9,0,0,0,2.6,1.9c.3,0,.6-.1.9-.1l75.3-26.8a.37.37,0,0,1,.3-.1l15.5,27.4a2.81,2.81,0,0,0,2.4,1.4,3.53,3.53,0,0,0,1.4-.3,2.77,2.77,0,0,0,1-3.8l-.2-.4a2.54,2.54,0,0,1-1.2-1.1l-15.5-27.4c-.1.1-.1.1-.3.1l-75.3,26.8a2.77,2.77,0,0,1-.9.1,2.8,2.8,0,0,1-2.6-1.9h0l-1.8.6A2.73,2.73,0,0,0,213.9,471.1Z"/><path class="cls-2" d="M1897.5,57.3,1872,0h-5.3l25.9,58C1894.2,57.8,1895.9,57.6,1897.5,57.3Z"/><path class="cls-2" d="M1788.6,195.7a6.8,6.8,0,0,1-3.1,1.1l-1,3.4A7.89,7.89,0,0,0,1788.6,195.7Z"/><path class="cls-2" d="M1678.9,272h4.4l-12.1-56-4.2,1Z"/><path class="cls-2" d="M288.8,438.5l4.9-1.7-36.7-65L42.8,448.9c-.2,1-.3,2.1-.5,3.1l211.2-76.1Z"/><path class="cls-2" d="M1854.4,285.3v4.1c25.9-.1,48.6-.2,65.6-.2V285c-18,0-41.7.1-68.4.2h2.8Z"/><polygon class="cls-2" points="1809.8 454 1920 492.9 1920 487.5 1810.4 448.8 1809.8 454"/><path class="cls-2" d="M1732.6,205.1c0-.2-.1-.3-.2-.5l-55.3,12.3h-.1l.7,3.3,52.7-11.8A2.59,2.59,0,0,0,1732.6,205.1Z"/><polygon class="cls-2" points="1135.1 43.9 1134.2 0 1130.6 0 1131.5 44 1135.1 43.9"/><path class="cls-2" d="M1770.4,89.3l7.7,93,.3.1a9.44,9.44,0,0,1,3.3-2l-7.9-95.3c-39.3,10.5-61.5,31.1-72.8,45.4C1713.2,116.6,1734.8,98.9,1770.4,89.3Z"/><path class="cls-2" d="M1688.5,145l-2.6-1.1c.2-.4,3.2-7.4,10.8-17a107.78,107.78,0,0,0-11.9,16.5Z"/><path class="cls-2" d="M1440.2,48.3l11.3,77.7c1.4-.1,2.7-.1,4.1-.2l-11.8-81.7-180.4,4c.1.9.3,2.3.5,4.1Z"/><path class="cls-2" d="M1450.4,42.4l40.4-40.5c35.2,32.5,79.4,80.9,105.5,110.8l6.4-.9C1577.6,83,1532.9,33.8,1496.8.1H1492l-41.7,41.8A4.33,4.33,0,0,1,1450.4,42.4Z"/><path class="cls-2" d="M1280.6,243.5a7.72,7.72,0,0,1-.2,1.5l175.2-48.9a4.18,4.18,0,0,0,1-.4L1617.1,208l11.3,64.8c1.4,0,2.8,0,4.2-.1l-12-68.9-160.5-12.3a4.18,4.18,0,0,1-1,.4l-178.4,49.8A10.87,10.87,0,0,1,1280.6,243.5Z"/><path class="cls-2" d="M1363.6,140c-36.4,0-62.9-.1-89.6,4.9.1,1.2.2,2.3.4,3.5,25.4-4.3,51.1-4.3,85.7-4.3,25.6,0,55.6.1,93.2-1.7v43.7l3.5-1V138.2C1419.2,140.1,1389.2,140,1363.6,140Z"/><path class="cls-2" d="M1789.4,195.1l130.6-4.9v-4L1792.3,191A7.59,7.59,0,0,1,1789.4,195.1Z"/><path class="cls-2" d="M1052.6,375l89.9,30.8L1118,468.5l1,24.7,3.5.7-1-24.7.1-.3-.2-4.6,23.9-61.2-91.5-31.4A25.32,25.32,0,0,1,1052.6,375Z"/><path class="cls-2" d="M1238.5,333.7a19.33,19.33,0,0,1,2.7-5.6,21.44,21.44,0,0,0-4.3,5.6Z"/><path class="cls-2" d="M1045.4,386.1a18.7,18.7,0,0,1-6.4,4.2c-11.6,4.7-36.9,10.7-60.5,15.9l.7,3.3c22.4-4.9,45.4-10.6,56.4-15A22.32,22.32,0,0,0,1045.4,386.1Z"/><path class="cls-2" d="M1096.2,249.5l94.7-8.7a2.67,2.67,0,0,0,2.5-2.8v-1.3l-93.7,8.6h-.2l-84.6,1.3,1.5,4.1,79.7-1.2Z"/><path class="cls-2" d="M1263.6,150.5c4.2,41.7,7.7,83.7,6.5,96.5-1.2,12-4.4,29.2-7.5,46-1.6,8.6-3.2,17-4.5,24.7a20.08,20.08,0,0,1,2.5-.1h.3c1.4-8.8,3.3-18.7,5.2-28.8,3.1-16.7,6.3-33.9,7.5-46,1.3-12.8-2.3-54.8-6.5-96.5a230.38,230.38,0,0,1-34.8,2.2c-10.9,0-22.8-.4-35.3-1.2v4.4c11.3.6,22,1,31.8,1C1242.3,152.6,1254.1,152,1263.6,150.5Z"/><path class="cls-2" d="M558,312.5a2.72,2.72,0,0,0-.3,3.9l19.9,24,5.8-1.4-22.2-26.8h0A3.06,3.06,0,0,0,558,312.5Z"/><path class="cls-2" d="M488.3,195.4a2.83,2.83,0,0,0,.6,3.9c2.4,1.7,58.3,42.1,84.7,42.1.9,0,1.7-.1,2.6-.1,15.4-1.7,87.6-23.7,140.5-40.3,2.5,10,4,16,4.1,16.2l46.1,175.5c1.4-.4,2.8-.9,4.2-1.3L724.2,213c-.1-.2-1.6-6.3-4.1-16.2C667.2,213.3,595,235.3,579.6,237a21.75,21.75,0,0,1-2.6.1c-26.4,0-82.2-40.3-84.7-42.1-.2-.2-.4-.3-.6-.5A2.61,2.61,0,0,0,488.3,195.4Z"/><path class="cls-2" d="M929.4,416.3a78.12,78.12,0,0,1-12.8.8c-11.6,0-31.3-1.3-60.7-7.5-14.9-3.1-21.9-15.5-24.7-25.8a412.41,412.41,0,0,1-49.9,19.7l.7,2.8A403.08,403.08,0,0,0,827.7,388c2.8,10.3,9.8,22.6,24.7,25.8,29.3,6.1,49.1,7.5,60.7,7.5a78.12,78.12,0,0,0,12.8-.8c6.3-1.2,24-4.6,43.7-8.8l12.7,62.1c1.4-.3,2.8-.6,4.2-.8L973,407.4C953.3,411.7,935.7,415.1,929.4,416.3Z"/><path class="cls-2" d="M1307.5,334.7c38.5-14.6,62.4-20.1,119.4-30.1,36.2-6.4,65.3-8.3,119.8-10.8,1.4-1.5,2.8-2.9,4.1-4.2-54.9,2.5-84.1,4.5-120.4,10.9-57,10-80.9,15.5-119.4,30.1-5.7,2.2-11.8,4.7-18.5,7.9-2.3,1-5.3,2.3-9.1,3.6a29.09,29.09,0,0,1-.4,3.1,64.9,64.9,0,0,0,6-2.5C1295.8,339.5,1301.8,336.9,1307.5,334.7Z"/><path class="cls-2" d="M1693.4,290.5c49.8-.5,105.1-1,151.9-1.3v62.9h3.5V289.4h0V285c-48.1.3-105.4.8-156.3,1.3Z"/><path class="cls-2" d="M1781.7,189.9a4.05,4.05,0,0,1,.9.5,2.7,2.7,0,0,1,.7.8,1.48,1.48,0,0,0,.7.1h.3a3.55,3.55,0,0,0,1-.2,2.93,2.93,0,0,0,1.9-2.7,2.87,2.87,0,0,0-1-2.2,3.33,3.33,0,0,0-1-.6,2.49,2.49,0,0,0-.8-.1,2.79,2.79,0,0,0-2,.8,4,4,0,0,0-.9,2.2A1.7,1.7,0,0,0,1781.7,189.9Z"/><polygon class="cls-2" points="1710.7 362 1846.1 362 1881.7 467.9 1887.2 469.9 1849.6 357.8 1709.6 357.8 1710.7 362"/><path class="cls-2" d="M1569.2,288.8a28.1,28.1,0,0,1-2.9.1,483.27,483.27,0,0,0-35.7,38.8,456.3,456.3,0,0,1,32.2-34.6,27.15,27.15,0,0,1,2.9-.1c18.7-.8,64.1-1.6,117.6-2.2l28.3,117.1,4.9,1.7-29.7-123.1C1633.3,287.2,1587.8,287.9,1569.2,288.8Z"/><path class="cls-2" d="M1265.6,333.8a8.71,8.71,0,0,0-4.2-1.7,2.77,2.77,0,0,0-.9-.1,8.81,8.81,0,0,0-1.7.2c-.5.1-.9.3-1.3.4a8.7,8.7,0,0,0-4.8,4.8,5.39,5.39,0,0,1,1.3-.7c.4-.1.8-.3,1.3-.4a9.85,9.85,0,0,1,1.7-.2,2.77,2.77,0,0,1,.9.1,8.17,8.17,0,0,1,4.2,1.7,8.43,8.43,0,0,1,3.3,6.7,8.15,8.15,0,0,1-.6,3.1c.1,0,.1-.1.2-.1a10.08,10.08,0,0,0,1.9-1.7,8.38,8.38,0,0,0-1.3-12.1Z"/><path class="cls-2" d="M413.4,284.7a10.93,10.93,0,0,0,.8-1.5,8.52,8.52,0,0,1-3.1,1.3,11,11,0,0,1-1.8.2l-1.5,3.9A8.26,8.26,0,0,0,413.4,284.7Z"/><path class="cls-2" d="M1497.9,353a338.73,338.73,0,0,0-35.1,62l1.5.5c8.7-21.7,21.1-44.1,37-66.7,7.2-10.3,14.5-19.7,21.5-28.1C1514.9,330.2,1506.3,341,1497.9,353Z"/><path class="cls-2" d="M218.7,249.1l-15.6,41.8,2.1-.6,16-42.9A2.72,2.72,0,0,0,218.7,249.1Z"/><path class="cls-2" d="M408.3,278.4a3.33,3.33,0,0,0,1.4.1,2.89,2.89,0,0,0,1.9-1.3,2.85,2.85,0,0,0,.4-2.2,3,3,0,0,0-2.9-2.4,1.27,1.27,0,0,0-.6.1,3.07,3.07,0,0,0-2.3,3.6c.1.2.1.5.2.7A2.47,2.47,0,0,1,408.3,278.4Z"/><polygon class="cls-2" points="320.6 40.8 362.6 0 361.8 0 320.2 40.4 320.6 40.8"/><polygon class="cls-2" points="550.2 58.5 479.9 0 471.4 0 546.7 62.5 550.2 58.5"/><path class="cls-2" d="M403.9,283.2a9.14,9.14,0,0,1-3.8-5.7,12.25,12.25,0,0,1-.2-1.9l-96.3-38.3-1.6,4.9,94.4,37.5a12.25,12.25,0,0,0,.2,1.9,9.14,9.14,0,0,0,3.8,5.7l-11.4,31,2.2-.8Z"/><path class="cls-2" d="M406.1,266.8c.3-.1.7-.2,1-.3a5.28,5.28,0,0,1,1.3-.1l31.3-98.2L280.1,8l-2.5,5.1L436.2,172.3Z"/><path class="cls-2" d="M612.5,77.9c1.5-.6,3-1.3,4.5-1.9L592.4,19.2l-71.7,81.2.1.1L589,23.3Z"/><path class="cls-2" d="M280,189a2.83,2.83,0,0,0,1.4,3.7,4.51,4.51,0,0,0,1.1.3,2.68,2.68,0,0,0,2.5-1.7l1.1-2.5h-.2a2.28,2.28,0,0,1-1.1-.3,2.83,2.83,0,0,1-1.4-3.7l30.3-67.1L242.1,85l-2.3,4.7L310.4,122Z"/><path class="cls-2" d="M500,86.1a2.74,2.74,0,0,0-.6,3.9l24.1,32.7c1.5-.9,3-1.8,4.6-2.7L503,85.8A3,3,0,0,0,500,86.1Z"/><path class="cls-2" d="M867.9,37.4C850.8,23.2,834.3,9.8,821.7,0h-8.9c12.8,9.8,31.1,24.6,50.5,40.6C864.8,39.5,866.3,38.5,867.9,37.4Z"/><path class="cls-2" d="M691,56,789.5,0h-3.9L690.5,54.1C690.7,54.7,690.8,55.4,691,56Z"/><path class="cls-2" d="M254.1,366.8l2.4-.9,41.8-130.8L113.7,161.7l-1.8,4.8,182.9,72.7Z"/><polygon class="cls-2" points="262.3 369.8 263.7 372.3 388.4 327.3 431.2 408.1 436.3 407 391.9 323.1 262.3 369.8"/><path class="cls-2" d="M585.9,344.3l-157,36.8,1.6,3,152-35.7-.6-2.7L602,429.8c1.5-.4,2.9-.7,4.2-1l-20.8-87.2Z"/><path class="cls-2" d="M128.6,412.1l4-1.4a.75.75,0,0,1-.1-.5l-14.8-92.4-4,1.1Z"/><polygon class="cls-2" points="207.3 295.5 123.4 318.7 123.9 321.8 205.9 299.1 207.3 295.5"/><path class="cls-2" d="M122.9,24C97.6,52.2,55.3,92.5,25.2,120.5l.7.3C55.7,93,95.2,55.1,119.4,28.2,128,18.6,138.9,9.1,151.1,0h-2A212.28,212.28,0,0,0,122.9,24Z"/><polygon class="cls-2" points="185.3 184.3 186.5 184.7 276 3.9 272.1 0 264.4 0 272.5 8.1 185.3 184.3"/><path class="cls-2" d="M680.7,61c11.3,42.8,25.8,99.6,33.9,131.6,1.4-.4,2.8-.9,4.2-1.3-7.9-31.3-23-90.3-34.6-134.5-17.3,6.3-94.6,35-148.3,66.7-55.6,32.8-82.8,44.4-89.5,47l-1,3.2c9.6-4,36.7-16.3,87-46C586.1,96.1,663.3,67.4,680.7,61Z"/><path class="cls-2" d="M682.4,50.1c-3.8-15.5-6.1-32.8-7.3-50.1h-3.8c1.1,17.7,3.2,35.5,6.9,51.6Z"/><path class="cls-2" d="M1221.9,427.2c17-32.9,26.2-52.8,31.1-64.8a23.18,23.18,0,0,1-14.1-14.1c-16.2-.1-35.9-2.5-59.1-8.9-6.5-1.8-12-3.3-16.5-4.6-21.5-6-24.9-6.9-49-12-25.6-5.4-41.2-8.5-54.5-10.2.1,1.4.1,3,.1,4.7,12.5,1.8,27.5,4.7,50.8,9.7,24.2,5.2,27.5,6.1,49,12,4.5,1.3,10,2.8,16.5,4.6,23.2,6.4,42.8,8.8,59.1,8.9a23.18,23.18,0,0,0,14.1,14.1c-4.9,12-14.1,31.8-31.1,64.8-15.4,29.8-31,58.4-36,67.7h3.8l-2-1.1C1184.4,497.6,1203.3,463.3,1221.9,427.2Z"/><path class="cls-2" d="M1077.2,488.8c-18.1-7.9-55.9-19-104.8-5.3-61.6,17.3-107.6,5.9-110.4,5.2l-66.3-14.6L770.8,499h.7l20.7-20.7,66.3,14.6c2.8.7,48.8,12,110.4-5.2,48.9-13.7,86.7-2.6,104.8,5.3a146.76,146.76,0,0,0,16.8,6.1h21.2l-6-1.2A154.47,154.47,0,0,1,1077.2,488.8Z"/><polygon class="cls-2" points="589.7 13.7 581.7 0 575.8 0 586.2 17.7 589.7 13.7"/><path class="cls-2" d="M1865.4,112.6v70.1l3.5-.1V110a1.7,1.7,0,0,0-.7-.1A2.71,2.71,0,0,0,1865.4,112.6Z"/><path class="cls-2" d="M1206.8,471l23.4,28.1h7l-27.7-33.2Q1208,468.45,1206.8,471Z"/><polygon class="cls-2" points="1721.3 417.3 1720.5 422.5 1801.6 451.1 1795.9 499.1 1798.8 499.1 1805.1 446.9 1721.3 417.3"/><path class="cls-2" d="M1580.5,434.3a2.66,2.66,0,0,0,1.6,3.6,2.76,2.76,0,0,0,3.3-1,1.63,1.63,0,0,0,.3-.6l.9-2.4a2.15,2.15,0,0,1-1.1-.2,2.73,2.73,0,0,1-1.6-3.6l20.9-53.9-88-31.1c-1,1.4-2.1,2.8-3.1,4.3l87.6,30.9Z"/><polygon class="cls-2" points="1610.2 378.1 1608.4 382.9 1712.4 419.6 1700.1 499.1 1702.9 499.1 1715.9 415.4 1610.2 378.1"/><path class="cls-2" d="M105,163.9C79.3,230.8,55.3,323.8,39,419.6c-1.6,9-2.9,17.7-4.3,26.3l3-1.1c1.5-9.5,3-19.4,4.7-29.4,16.3-95.8,40.3-188.8,66-255.7l-87.8-35c-8.2,7.6-15.4,14.2-20.7,19.1v1c4.8-4.4,10.7-9.8,17.2-15.9Z"/><path class="cls-2" d="M1461.9,421.7l.3-.9-188.5-61.4a23.28,23.28,0,0,1-13.2,4.2h-.6c-.5,1.3-1.1,2.7-1.7,4.1a23.07,23.07,0,0,0,12.1-4.1L1458.8,425l-.3.9c-9.6,25.6-13.8,50.1-12.5,73.2h3.8C1447.7,474.8,1451.8,448.9,1461.9,421.7Z"/><path class="cls-2" d="M9.9,120.4,0,116.5v5.6l5.7,2.3C7.1,123.1,8.5,121.8,9.9,120.4Z"/><path class="cls-2" d="M1606.1,104.8,1609.9,0h-3.3l-3.7,101.1C1604,102.4,1605.1,103.6,1606.1,104.8Z"/><path class="cls-2" d="M467.3,476c1.5-.7,3.1-1.3,4.6-2l-32.7-61.8L302.3,440.6l1.7,3.1,131.7-27.3Z"/><polygon class="cls-2" points="1256.2 41.2 1256.7 0 1253.2 0 1252.8 41.3 1256.2 41.2"/><path class="cls-2" d="M1779.6,87c42.5-10,101.7-18.4,140.4-23.3V60c-39.9,5.1-99.1,13.7-140.6,23.7Z"/><path class="cls-2" d="M608.1,446.7a460,460,0,0,1,45.4-9.2c11.8-1.8,23.9-3.8,48.5-9.6,25.8-6.1,48.1-11.4,69.3-18l15.7,63,3.6-3.6-15.9-63.5c-21.2,6.5-43.5,11.8-69.3,18-24.7,5.8-36.8,7.8-48.5,9.6a460,460,0,0,0-45.4,9.2,932.48,932.48,0,0,0-109.8,35.2c-2.2.8-4.2,1.7-6.4,2.5l.7,2.5c.7-.3,1.5-.6,2.2-.9A958.58,958.58,0,0,1,608.1,446.7Z"/><path class="cls-2" d="M451.3,499.1h5.8c9.4-4.2,18.8-8.2,28.3-12l3.2,12h4.6l-4.3-16.2C476.2,488,463.7,493.4,451.3,499.1Z"/><path class="cls-3" d="M795,252.4c.1-.1.3-.1.5-.2C795.4,252.2,795.3,252.3,795,252.4Z"/><path class="cls-3" d="M30.6,499.1h5.6c1.6-14.8,3.7-30.5,6.1-47,.2-1,.3-2.1.5-3.1L257,371.7l36.7,65-4.9,1.7-69.8,25a2.71,2.71,0,0,0-1.7,3.5h0a2.9,2.9,0,0,0,2.6,1.9c.3,0,.6-.1.9-.1l75.3-26.8a.37.37,0,0,1,.3-.1l15.5,27.4a2.54,2.54,0,0,0,1.2,1.1,2.77,2.77,0,0,0,1.3.3,3.53,3.53,0,0,0,1.4-.3,2.77,2.77,0,0,0,1-3.8L304,443.8l-1.7-3.1,136.9-28.4,32.7,61.8c-1.6.7-3.1,1.3-4.6,2-16.8,7.2-33.5,14.9-49.9,23.1h34q18.6-8.55,37.5-16.2l4.3,16.2h7.2L496,483l-.7-2.5c2.2-.8,4.2-1.7,6.4-2.5a913.31,913.31,0,0,1,109.8-35.2,460,460,0,0,1,45.4-9.2c11.8-1.8,23.9-3.8,48.5-9.6,25.8-6.1,48.1-11.4,69.3-18l15.9,63.5-3.6,3.6-26.2,26.2h9.9l24.9-24.9L861.9,489c2.8.7,48.8,12,110.4-5.2,48.9-13.7,86.7-2.6,104.8,5.3a149.8,149.8,0,0,0,28.5,9.1l6,1.2h34.9l-20.4-4.1-1.3-29.8,25.5-65.6-95.1-32.6a133.39,133.39,0,0,0,4-24.4,252.75,252.75,0,0,0,.6-25.3c0-1.7-.1-3.3-.1-4.7,13.3,1.7,28.8,4.7,54.5,10.2,24.2,5.2,27.5,6.1,49,12,4.5,1.3,10,2.8,16.5,4.6,23.2,6.4,42.8,8.8,59.1,8.9a23.18,23.18,0,0,0,14.1,14.1c-4.9,12-14.1,31.8-31.1,64.8-18.6,36.1-37.5,70.4-37.7,70.8l2,1.1h5.4c2.4-4.4,8-14.7,15.2-28.1l2.7-5.1,27.7,33.2h7.2l-32.1-38.5c5-9.4,10.4-19.8,15.8-30.2,15.8-30.6,24.9-50.1,30.1-62.6.6-1.5,1.2-2.9,1.7-4.1h.6a22.32,22.32,0,0,0,13.2-4.2l188.5,61.4-.3.9c-10.1,27.1-14.2,53.1-12.3,77.3H1460c-4.7-53.6,24.1-107.6,49.6-143.9,1.3-1.9,2.7-3.8,4-5.7,1.1-1.5,2.1-2.9,3.1-4.3l88,31.1-20.9,53.9a2.66,2.66,0,0,0,1.6,3.6,4.25,4.25,0,0,0,1.1.2,2.94,2.94,0,0,0,2.3-1.2,1.63,1.63,0,0,0,.3-.6l19.1-49.3,1.8-4.8,105.7,37.3-13,83.6h5.6l11.9-76.6.8-5.1,83.8,29.6-6.2,52.1h5.6l5.4-45.1.6-5.2,109.6,38.7v-5.9l-26-9.2-39.6-117.8V285.5h-2.9c26.7-.1,50.4-.2,68.4-.2V270.6c-36.4-.1-96.4.2-156.9.7l21.5-70.8,1-3.4a11.47,11.47,0,0,0,3.1-1.1,5.55,5.55,0,0,0,.8-.6,8.42,8.42,0,0,0,2.9-4.2l127.7-4.8v-5.6l-45.6,1.7V108.7a2.8,2.8,0,1,0-5.6,0v74.1l-3.5.1-73.3,2.8a8.13,8.13,0,0,0-4.8-4.8l-7.7-93.7-.3-3.3c41.5-10.1,100.8-18.6,140.6-23.7V54.5c-5.2.7-10.8,1.4-16.7,2.2,0-.1-.1-.1-.1-.2L1877.8.3h-6.2l25.5,57.3c-1.7.2-3.3.5-5,.7-36.6,5.1-80.6,12.1-113.6,20.1L1772.4,0h-5.5l6.6,79.4c-1.3.3-2.5.7-3.7,1-32.4,9.2-53,25.1-64.9,37.2a107,107,0,0,0-8.2,9.2c-7.6,9.6-10.6,16.6-10.8,17l2.6,1.1-3.7-1.5-66.7-27.8L1622.2,0h-12.4L1606,104.8c-1-1.1-2.1-2.4-3.2-3.6-12.7-14.5-34.5-38.7-57.7-63Q1524,16.15,1507,.1h-10.3c36.1,33.7,80.8,82.9,105.9,111.7l-6.4.9c-53.4,7.2-97.2,10.9-133.9,12.9l-12-82.8a.37.37,0,0,0-.1-.3,4.33,4.33,0,0,0-.1-.5L1492,0h-9l-37.2,37.4a5.84,5.84,0,0,0-1.9-.2l-180.9,4,.5-41.1h-6.9l-.5,41.2-3.4.1-112.1,2.4L1139.8,0h-5.6l.9,43.9-3.6.1-65.4,1.5a6.41,6.41,0,0,0-3,.8l-99.2,55.6C946.8,87.2,883.2,33.1,841.9,0H821.8c12.6,9.8,29,23.2,46.1,37.4-1.5,1.1-3.1,2.2-4.6,3.3C800.7,85,762.5,105.3,741.2,114.5c-21.5,9.3-30.6,9.6-32.5,9.5-5.9-23-12.2-47.1-17.7-68-.2-.6-.3-1.3-.5-1.9L785.7,0H771.5L688.7,47A289.14,289.14,0,0,1,682,0h-6.8c1.2,17.3,3.5,34.6,7.3,50.1-1.1.4-2.5.9-4.1,1.5-10.5,3.8-31.5,11.8-56.1,22.2L596.7,14.6l.1-.2L588.2,0h-6.5l8,13.7-3.6,4-34,38.6,1.8-2.2L488.7,0h-8.8l70.4,58.5-3.6,4.1L517.4,95.9l-9.9-13.4a2.79,2.79,0,0,0-4.5,3.3h0L528.2,120c-1.6.9-3.1,1.8-4.6,2.7-49.4,28.7-74.2,39.2-80,41.5L320.6,40.8l-.4-.4L361.8,0h-8.1L316.2,36.4,279.9,0H272l3.9,3.9L186.4,184.7l-1.2-.5L114,155.8a4.7,4.7,0,0,0-.9-.6,1.8,1.8,0,0,0-1-.2L25.9,120.7l-.7-.3c30.2-28,72.4-68.2,97.7-96.4A198.75,198.75,0,0,1,149.1,0H132.7a203.76,203.76,0,0,0-17.5,17C89,46.1,44.6,88.3,14.5,116.3L0,110.5v6l9.9,3.9-4.2,3.9c-2,1.8-3.9,3.6-5.7,5.2v14.2c5.3-4.9,12.5-11.4,20.7-19.1l87.8,35c-25.7,66.9-49.7,159.9-66,255.7-1.7,10-3.3,19.8-4.7,29.4l-3,1.1L0,458.4v5.9L36.9,451C34.3,468,32.3,484,30.6,499.1Zm400.6-91L299.3,435.5l-35.7-63.2-1.4-2.4,129.6-46.7,44.4,83.9ZM263.1,363.6l38.8-121.5,1.6-4.9,96.3,38.3a12.25,12.25,0,0,0,.2,1.9,9.14,9.14,0,0,0,3.8,5.7l-12.7,34.3-2.2.8Zm338.8,66.2A924.87,924.87,0,0,0,496.3,464c-6.5,2.5-13,5.2-19.4,7.8l-33.1-62.6a2,2,0,0,0-.1-.8,2.71,2.71,0,0,0-1.4-1.9l-11.9-22.4-1.6-3,157-36.8-.6-2.7L606,428.8C604.8,429.1,603.4,429.4,601.9,429.8Zm380.4,43.9c-3.9.8-7.9,1.8-11.9,2.9-60.2,16.9-106.3,5.3-106.8,5.2l-66.3-14.6L782,406.3l-.7-2.8a419,419,0,0,0,49.9-19.7c2.8,10.3,9.8,22.6,24.7,25.8,29.3,6.1,49.1,7.5,60.7,7.5a78.12,78.12,0,0,0,12.8-.8c6.3-1.2,24-4.6,43.7-8.8L986.5,473A30.67,30.67,0,0,0,982.3,473.7ZM837.7,380.6c10.9-5.4,18.6-9.9,26-14.1,11.6-6.6,21.5-12.4,41.3-20.6a542.28,542.28,0,0,1,68.1-22.7c29.8-8.1,44.8-12.3,58.4-12.3h.2c7.6,0,14.2.3,21.1.9.9,20.9-.2,58.5-12.7,69.7a14.67,14.67,0,0,1-3.7,2.4c-22.1,8.9-99.5,23.8-108.3,25.5-.2.1-21.3,3.6-70.8-6.7-12.1-2.5-17.1-12.5-19.2-19.9C838,382,837.8,381.2,837.7,380.6Zm308.3,21-.6,1.5-23.9,61.2.2,4.6,1.1,25h-.1l-3.5-.7-12-2.4a137.35,137.35,0,0,1-27.1-8.6c-16.2-7-47.4-16.6-87.9-10.3l-12.8-62.4-.7-3.3c23.6-5.2,48.9-11.2,60.5-15.9a21.46,21.46,0,0,0,6.4-4.2,33.33,33.33,0,0,0,7.2-11.1c.4-1,.9-2.1,1.3-3.2a8.8,8.8,0,0,0,.5-1.5Zm95.2-73.5a26.35,26.35,0,0,0-2.7,5.6h-1.7c-14.6-.3-32.3-2.6-53.3-8.4-6.5-1.8-11.8-3.3-16.4-4.6-21.9-6.1-25.3-7-49.9-12.3-42.3-9-58.4-12-84.4-12.1l-16.4-45.6-1.5-4.1,84.6-1.3h.2l93.7-8.6,1-.1a2.67,2.67,0,0,0,2.5-2.8V147.2c12.5.8,24.4,1.2,35.3,1.2,13.5,0,25.3-.6,34.8-2.2,4.2,41.7,7.7,83.7,6.5,96.5-1.2,12-4.4,29.2-7.5,46-1.9,10.1-3.8,20-5.2,28.8h-.3c-.8,0-1.7.1-2.5.1A23.26,23.26,0,0,0,1241.2,328.1Zm-228.3-86.9L987,169.4l-1.3-3.6-.4-1.2,116.8,13.9,85.8,7.8,3.5.3v44.7l-3.5.3-88.6,8.2Zm254,104.8a10.08,10.08,0,0,1-1.9,1.7c-.1,0-.1.1-.2.1a8.31,8.31,0,0,1-4.4,1.2,5.92,5.92,0,0,1-2.7-.5,12.44,12.44,0,0,1-2-1,8.52,8.52,0,0,1-3.7-7,7.31,7.31,0,0,1,.6-3,8.4,8.4,0,0,1,4.8-4.8c.4-.1.8-.3,1.3-.4a9.85,9.85,0,0,1,1.7-.2,2.77,2.77,0,0,1,.9.1,8.17,8.17,0,0,1,4.2,1.7,8.43,8.43,0,0,1,3.3,6.7A7.07,7.07,0,0,1,1266.9,346Zm234.4,2.9c-15.9,22.6-28.3,45.1-37,66.7l-1.5-.5-184.4-59.9a24.1,24.1,0,0,0,4.7-10.1,15.46,15.46,0,0,0,.4-3.1,86.23,86.23,0,0,0,9.1-3.6c6.7-3.1,12.7-5.7,18.5-7.9,38.5-14.6,62.4-20.1,119.4-30.1,36.3-6.4,65.5-8.4,120.4-10.9-1.3,1.3-2.6,2.7-4.1,4.2-6.7,7-15,16.1-23.9,26.9C1515.9,329.1,1508.6,338.6,1501.3,348.9Zm210.3,59-191.1-67.4c3.4-4.5,6.8-8.7,10.1-12.7a483.27,483.27,0,0,1,35.7-38.8,27.15,27.15,0,0,1,2.9-.1c18.7-.8,64.1-1.6,117.6-2.2l29.7,123.1Zm175.6,62-5.5-2-158.9-56.1-12.1-49.9-1-4.2h139.9Zm-38.5-184.8v4.4h0v62.7H1709.2v4l-15.9-65.6-1-4.1C1743.3,285.8,1800.6,285.4,1848.7,285.1Zm-64.5-99.5c.3,0,.6.1.8.1a2.07,2.07,0,0,1,1,.6,3,3,0,0,1,1,2.2,2.83,2.83,0,0,1-1.9,2.7,3.55,3.55,0,0,1-1,.2h-.3c-.2,0-.4-.1-.7-.1a2.55,2.55,0,0,1-1.5-1.2.35.35,0,0,1-.1-.2,3.26,3.26,0,0,1-.4-1.4,4,4,0,0,1,.9-2.2A5.11,5.11,0,0,1,1784.2,185.6ZM1701,130.5c11.3-14.3,33.6-34.9,72.8-45.4l7.9,95.3a7.93,7.93,0,0,0-3.3,2l-.3-.1-87-36.2C1691.2,145.8,1694,139.3,1701,130.5Zm74.8,58.3a8.47,8.47,0,0,0,4.2,7l-22.6,74.4,2.7.9h-5.2c-22.4.2-44.8.5-66,.6l-11.1-51.6-.7-3.3h.1l55.3-12.3,1.6-.3a2.77,2.77,0,1,0-1.2-5.4l-56.8,12.7-5.4,1.3.7,3.2,12.1,56h-4.4c-11.7.1-23.1.3-33.7.4l-24.9-142.7-1.1-6.1Zm-312.1-3.2V137.9c38.9-2,85.5-6.1,142.9-14.1l13,74.2-4.3-.3L1463.7,186Zm-3.6,5.9,160.5,12.3,12,68.9c-1.4,0-2.8,0-4.2.1-27,.5-48.3.9-59.8,1.5-63.1,2.9-97.9,4.4-140.7,11.9-57.1,10-82.7,15.9-122,30.9-6,2.3-12.4,5-19.4,8.2a63.51,63.51,0,0,1-6.7,2.6,23.26,23.26,0,0,0-12-9.1c1.5-8.8,3.3-18.8,5.2-28.6,3-16.2,6.1-32.9,7.5-45.1.1-.5.1-1,.2-1.5a10.87,10.87,0,0,0,.1-1.8L1459.2,192A7.26,7.26,0,0,1,1460.1,191.5Zm-3.3-6.3-3.5,1-172.4,48.1c-.2-18-3.1-51.9-6.5-85.9-.1-1.2-.2-2.3-.4-3.5,26.7-5,53.2-4.9,89.6-4.9,25.6,0,55.6.1,93.2-1.7v46.9ZM1443.7,44.1l11.8,81.7c-1.4.1-2.7.1-4.1.2-35.1,1.6-63.5,1.6-87.9,1.5-35.2-.1-63.3-.1-90.9,5-3.7-35.2-7.5-67.8-9-80.3-.2-1.8-.4-3.2-.5-4.1Zm-377.3,8.2,189.8-4.2c.5,4.1,5.2,43.2,9.5,85.6q-1.8.3-3.9.6c-65.6,8.7-243-20.9-286.9-28.6-1.1-.2-2.1-.4-3-.5Zm125,94.7v36.1l-3.5-.3-85.5-7.8L984,161l-13.9-38.5-1.8-5.1C994.4,122,1106.5,141.3,1191.4,147ZM872.3,41.1c42,34.8,86.5,72.9,87.7,73.9l45.4,126-5.1-.3L911.2,235a2.66,2.66,0,0,0-2.9,2.6,3.29,3.29,0,0,0,.4,1.7,3,3,0,0,0,2.1,1.3l96.7,6.2,18,49.9c-1.6.1-3.2.3-4.8.5-12.7,1.5-27.5,5.5-51.4,12.1a548.61,548.61,0,0,0-69.9,23.3,326.79,326.79,0,0,0-43,21.4c-7.6,4.3-15.3,8.8-26.5,14.3a377.63,377.63,0,0,1-52.3,21.2L747.3,274.3l-.7-2.5c22.4-8.8,34.5-13.6,41-16.2a11.73,11.73,0,0,0,1.1-.5,7.11,7.11,0,0,0,3,1.8,7.61,7.61,0,0,0,2.1.3h.4c2.9,7.2,7.7,20.1,11.9,32l.3.9.8.5c6.1,3.7,15,8.8,20.9,12.1,2.4,1.4,4.7,2.6,5.6,3.1,1.3,1.9,6.5,11.9,11,21.1l4.6,9.4a2.19,2.19,0,0,0,1.3,1.2,2.66,2.66,0,0,0,1.2.3,3.45,3.45,0,0,0,1.3-.3,2.76,2.76,0,0,0,1.3-3.7l-4.6-9.4a.1.1,0,0,0-.1-.1c-10.6-21.4-11.8-22.4-12.4-22.8-.3-.3-1-.7-6.4-3.7-5.6-3.2-13.9-7.9-19.8-11.5-.9-2.6-3.8-10.4-6.6-18.1-2.3-6.2-4-10.4-5.2-13.5a7.64,7.64,0,0,0,1.9-4.9,7.32,7.32,0,0,0-14.3-2.2,8.52,8.52,0,0,0-.4,2.3c-.9.3-1.8.7-2.8,1.1-9.9,4-26.2,10.4-38.6,15.2L731,211.3c-.1-.2-1.3-5.3-3.5-13.7-.2-.9-.5-1.9-.7-2.9,27.6-8.7,48.7-15.5,51.1-16.2l97.9-37.7,1.8-.7a2.79,2.79,0,1,0-2-5.2l-99.5,38.3c-1.5.5-22.7,7.2-50.7,16.1-3.6-14.3-8.8-34.4-14.3-56.1-.3-1.2-.6-2.4-.9-3.7C720.5,129.1,760.6,120.9,872.3,41.1ZM790.9,249.7a3.08,3.08,0,0,1,.6-1.9,3.53,3.53,0,0,0,1.2-.5l.4-.3.6-.4,1.3.4c.7.2,1.3.4,2.3,2.4v.2c0,.3-.1.6-.1.9a3.12,3.12,0,0,1-3.1,2.3,2.2,2.2,0,0,1-.8-.1,3.36,3.36,0,0,1-2.1-1.6A3.19,3.19,0,0,1,790.9,249.7ZM520.7,100.5l-.1-.1,71.7-81.2L617,75.9c-1.5.6-3,1.3-4.5,1.9C586.4,89.1,557.3,102.7,533,117Zm-75.4,73.3,1-3.2c6.7-2.6,33.8-14.2,89.5-47,53.8-31.7,131-60.4,148.3-66.7,11.6,44.2,26.7,103.1,34.6,134.5-1.4.4-2.8.9-4.2,1.3-52.3,16.3-121,37.2-135.5,38.8-23.1,2.6-82.7-40.5-83.4-40.9a2.78,2.78,0,0,0-3.8,4c.2.2.3.4.6.5,2.4,1.7,58.3,42.1,84.7,42.1.9,0,1.7-.1,2.6-.1,15.4-1.7,87.6-23.7,140.5-40.3,2.5,10,4,16,4.1,16.2l46.9,178.4c-1.4.4-2.8.9-4.2,1.3-19.5,5.9-40.2,10.8-64.9,16.7-24.1,5.7-35.9,7.6-47.4,9.4a429.49,429.49,0,0,0-43.1,8.6L590.5,339l-25-30.2a2.72,2.72,0,0,0-3.9-.3,2.82,2.82,0,0,0-.4,3.9h0l22.2,26.8-5.8,1.4L426.2,376l-29.9-56.4,11.4-30.8,1.5-3.9a11,11,0,0,0,1.8-.2,7.85,7.85,0,0,0,3.1-1.3,8.7,8.7,0,0,0,2.7-2.7,9.07,9.07,0,0,0,1.3-7,9.62,9.62,0,0,0-3.1-5.2Zm-36.8,98.8a1.27,1.27,0,0,1,.6-.1,3,3,0,0,1,2.9,2.4,3.25,3.25,0,0,1-.4,2.2,2.89,2.89,0,0,1-1.9,1.3,2.2,2.2,0,0,1-1.4-.1,3,3,0,0,1-1.9-1.6,1.45,1.45,0,0,1-.2-.7A2.94,2.94,0,0,1,408.5,272.6ZM239.8,89.7l2.3-4.7,71.7,32.8-30.3,67.1a2.83,2.83,0,0,0,1.4,3.7,4.51,4.51,0,0,0,1.1.3h.2a2.73,2.73,0,0,0,2.3-1.7l32.6-72.1-76.6-35,33.1-66.8,2.5-5.1L439.6,168.3l-31.3,98.2c-.4,0-.8.1-1.3.1s-.7.2-1,.3a8.64,8.64,0,0,0-4.5,3.4l-98.2-39.1a1.49,1.49,0,0,0-.7-.3.37.37,0,0,0-.3-.1L191.7,186.9ZM48,416.4c15.9-93.2,39-183.6,63.9-249.8l1.8-4.8,184.6,73.4L256.5,366l-2.4.9L137.8,408.8l-13.9-86.9-.5-3.1,83.9-23.2,2.1-.6,17.9-48a2.79,2.79,0,1,0-5.2-2l-.9,2.4-16,42.9-2.1.6-86,23.8.5,3.1,14.8,92.4c0,.2.1.3.1.5l-4,1.4L43.6,442.7C45,434,46.5,425.3,48,416.4Z"/><path class="cls-3" d="M936.6,11.1c.1.2.1.5.2.7a2.71,2.71,0,0,0,2.4,1.5,3.08,3.08,0,0,0,1.3-.3L960.8,2.3,965,0H953.1L938,8A2.69,2.69,0,0,0,936.6,11.1Z"/><path class="cls-4" d="M1288.1,331.9l8.4-14.7a9.84,9.84,0,0,0-8.4-14.7h0a9.76,9.76,0,0,0-8.4,14.7Z"/><circle class="cls-5" cx="1288.1" cy="312.4" r="2.9"/><path class="cls-4" d="M322.7,46.9l8.4-14.7a9.84,9.84,0,0,0-8.4-14.7h0a9.76,9.76,0,0,0-8.4,14.7Z"/><circle class="cls-5" cx="322.7" cy="27.4" r="2.9"/><path class="cls-4" d="M1727.7,104l8.4-14.7a9.84,9.84,0,0,0-8.4-14.7h0a9.76,9.76,0,0,0-8.4,14.7Z"/><circle class="cls-5" cx="1727.7" cy="84.4" r="2.9"/></svg>