<?xml version="1.0" encoding="utf-8"?>
<!-- Generator: Adobe Illustrator 21.0.0, SVG Export Plug-In . SVG Version: 6.00 Build 0)  -->
<svg version="1.1" id="Vrstva_1" xmlns="http://www.w3.org/2000/svg" xmlns:xlink="http://www.w3.org/1999/xlink" x="0px" y="0px"
	 viewBox="0 0 1920 499.1" style="enable-background:new 0 0 1920 499.1;" xml:space="preserve">
<style type="text/css">
	.st0{opacity:0.79;fill:#A8D0DA;}
	.st1{display:none;fill:#A8D0DA;}
	.st2{opacity:0.5;fill:none;}
	.st3{opacity:0.5;fill:#A8D0DA;enable-background:new    ;}
	.st4{opacity:0.5;fill:#406D96;enable-background:new    ;}
	.st5{opacity:0.3;fill:#FFFFFF;enable-background:new    ;}
	.st6{opacity:0.8;fill:#E2474B;enable-background:new    ;}
	.st7{opacity:0.8;fill:#2F3A56;enable-background:new    ;}
	.st8{opacity:0.5;}
	.st9{fill:none;}
	.st10{fill:#406D96;}
	.st11{opacity:0.5;fill:#FFFFFF;}
	.st12{opacity:0.5;fill:#406D96;}
	.st13{opacity:0.3;fill:#FFFFFF;}
</style>
<rect x="-0.8" y="-1.2" class="st0" width="1926" height="500"/>
<title>Kreslicí plátno 1</title>
<path class="st1" d="M793.3,252.8c-0.3-0.8-1-1.4-1.8-1.6l-0.3-0.1C791.6,251.9,792.4,252.6,793.3,252.8z"/>
<path class="st2" d="M857.5,402.7c49.5,10.3,70.6,6.8,70.8,6.7c8.8-1.7,86.2-16.6,108.3-25.5c1.3-0.6,2.6-1.4,3.7-2.4
	c10.6-9.5,13-37.7,12.9-58.9c0,21.1-2.4,49.3-12.9,58.8c9.2-14.5,10-46.8,9.2-65.5c-6.9-0.6-13.5-0.9-21.1-0.9h-0.2
	c-13.6,0-28.6,4.2-58.4,12.3c-23.2,6.1-45.9,13.6-68.1,22.7c-19.8,8.2-29.7,14-41.3,20.5c-6.5,3.7-13.1,7.6-22,12.1
	c-0.2-0.7-0.3-1.3-0.5-2l0,0c0.1,0.6,0.3,1.4,0.4,2.2C840.5,390.2,845.5,400.2,857.5,402.7z"/>
<path class="st2" d="M1792.4,191.2L1792.4,191.2c-0.5,1.2-1.1,2.2-1.8,3.1C1791.4,193.4,1792.2,192.4,1792.4,191.2z"/>
<path class="st2" d="M1456.9,437.3c1.5-5,3.2-10.1,5.1-15.2l0.3-0.9l0,0l-0.2,0.5C1460.2,427,1458.4,432.2,1456.9,437.3z"/>
<path class="st2" d="M1184.3,498L1184.3,498c1.7-2.9,19.8-35.8,37.7-70.5c17-33,26.2-52.8,31.1-64.8l0,0c-4.9,12-14.1,31.9-31,64.5
	C1203.6,463.3,1184.7,497.6,1184.3,498z"/>
<path class="st2" d="M404,283.1L404,283.1c-0.5-0.3-0.9-0.7-1.3-1.1C403.1,282.4,403.5,282.8,404,283.1z"/>
<path class="st2" d="M296.4,441.9c0.2,0,0.2,0,0.3-0.1C296.5,441.8,296.5,441.8,296.4,441.9z"/>
<path class="st2" d="M1584.2,430.2c-0.1,0.2-0.1,0.3-0.1,0.5c0-0.1,0-0.1,0.1-0.2l20.9-53.9l0,0l-20.8,53.5
	C1584.2,430.1,1584.2,430.2,1584.2,430.2z"/>
<polygon class="st2" points="388.6,327.3 264,372.3 262.5,369.9 262.5,369.9 263.9,372.3 299.5,435.5 431.5,408.1 "/>
<polygon class="st2" points="436.5,407.1 436.5,407 431.5,408.1 "/>
<path class="st2" d="M602.2,429.8C602.2,429.8,602.3,429.8,602.2,429.8l-20-84.1l0.6,2.7l-152,35.7l-1.6-3L586,344.3l-0.6-2.7
	l0.6,2.7l-157,36.8l1.6,3l11.9,22.4c0.7,0.4,1.2,1.1,1.4,1.9c0.1,0.3,0.1,0.5,0.1,0.8l33.1,62.6c6.4-2.6,12.9-5.3,19.4-7.8
	C531,450.5,566.3,439.1,602.2,429.8z"/>
<path class="st2" d="M298.5,235.2l-41.8,130.7l-2.4,0.9l40.7-127.6l-182.9-72.7v0.1c-24.9,66.2-48,156.6-63.9,249.8
	c-1.5,8.9-3,17.6-4.4,26.3l84.9-30.6h0.1L114,318.9l3.9-1.1l0,0l-0.5-3.1l86-23.8l0.5-0.1l-0.5,0.1l15.6-41.8c0.4-1,1.4-1.7,2.5-1.7
	l0.9-2.4c0-0.1,0.1-0.2,0.1-0.3c0.6-1.4,2.3-2,3.7-1.4s2,2.3,1.4,3.7l-17.9,48l-2.1,0.6l0,0l-1.4,3.5l-82,22.7l-0.5-3l0,0l0.5,3.1
	l13.9,86.9l116.3-41.9l2.4-0.9L298.5,235.2L298.5,235.2z"/>
<path class="st2" d="M781.5,403.5c17-5.5,33.7-12.1,49.9-19.7C815.3,391.4,798.5,398,781.5,403.5z"/>
<path class="st2" d="M408,277.7c0.2,0.2,0.3,0.4,0.4,0.6l0,0C408.4,278.1,408.3,277.9,408,277.7z"/>
<path class="st2" d="M303.8,237.2l-1.6,4.9l-38.8,121.5l125.8-45.4l0.2-0.1l11.3-30.8c-2-1.3-3.3-3.4-3.8-5.7
	c-0.1-0.6-0.2-1.3-0.2-1.9l-94.4-37.5L303.8,237.2l96.3,38.4c0,0,0,0,0-0.1L303.8,237.2z"/>
<path class="st2" d="M408.8,272.7c0.2-0.1,0.4-0.1,0.6-0.1c1.4,0,2.6,1,2.9,2.4c0,0.1,0,0.1,0,0.2c0-0.1,0-0.2,0-0.3
	c-0.3-1.4-1.5-2.4-2.9-2.4C409.1,272.5,409,272.5,408.8,272.7L408.8,272.7c-1.4,0.2-2.3,1.4-2.3,2.8
	C406.5,274.2,407.5,273,408.8,272.7z"/>
<path class="st2" d="M284.3,187.9c-0.7-0.8-0.9-2-0.5-3l30.3-67.1l-0.1-0.1l-30.3,67.1C283.1,185.9,283.5,187.1,284.3,187.9z"/>
<path class="st2" d="M856.2,409.6c29.4,6.2,49.1,7.5,60.7,7.5C905.3,417.1,885.5,415.7,856.2,409.6z"/>
<path class="st2" d="M1241.4,328.1c-1.2,1.7-2.1,3.6-2.7,5.6C1239.4,331.7,1240.3,329.9,1241.4,328.1z"/>
<path class="st2" d="M1772.8,79.6c0.3-0.1,0.6-0.2,0.9-0.2L1767.2,0l6.5,79.4C1773.3,79.5,1773.2,79.6,1772.8,79.6z"/>
<path class="st2" d="M1688.8,144.9l-2.6-1.1l0,0L1688.8,144.9z"/>
<path class="st2" d="M123.2,24c8-8.7,16.8-16.7,26.2-24C139.9,7.2,131.1,15.2,123.2,24z"/>
<path class="st2" d="M108.7,159.7c-25.7,66.9-49.7,159.9-66,255.7c-1.7,10-3.2,19.9-4.7,29.3H38c1.4-9.6,3-19.4,4.7-29.4
	C59,319.5,83.1,226.5,108.7,159.7L21,124.6c-0.3,0.2-0.5,0.5-0.8,0.7c0.2-0.2,0.4-0.4,0.7-0.6L108.7,159.7z"/>
<path class="st2" d="M220.1,468.8c0.3,0,0.6,0,0.9-0.1C220.8,468.7,220.4,468.8,220.1,468.8z"/>
<path class="st2" d="M37.2,451L0.3,464.3L37.2,451C37.2,451.1,37.2,451,37.2,451z"/>
<polygon class="st2" points="294,436.7 294,436.7 257.3,371.7 150.1,410.3 257.3,371.8 "/>
<path class="st2" d="M112.9,35.1c-25.4,27-61.1,60.8-87.5,85.3h0.1C51.8,95.9,87.4,62.1,112.9,35.1z"/>
<polygon class="st2" points="186.6,184.7 186.6,184.7 186.3,184.5 "/>
<path class="st2" d="M119.4,28c1.3-1.4,2.5-2.7,3.7-4C121.9,25.3,120.8,26.7,119.4,28z"/>
<path class="st2" d="M1265.1,347.8c0.1,0,0.1-0.1,0.2-0.1c0.7-0.5,1.3-1.1,1.9-1.7l0,0c1.1-1.2,1.7-2.6,1.9-4.2
	c-0.2,1.5-0.9,2.9-1.9,4.1c-0.6,0.6-1.2,1.2-1.9,1.7c-0.1,0-0.1,0.1-0.2,0.1c0.4-1,0.6-2,0.6-3.1c0-2.6-1.2-5.1-3.3-6.7
	c-1.2-1-2.7-1.5-4.2-1.7c-0.3-0.1-0.6-0.1-0.9-0.1c-0.6,0-1.1,0.1-1.7,0.2c-0.5,0.1-0.9,0.3-1.3,0.4c-0.5,0.2-0.9,0.4-1.3,0.7
	c0.6-1.5,1.7-2.9,3-3.8c-1.4,1-2.5,2.3-3.1,3.9c-0.4,0.9-0.6,2-0.6,3c0,2.8,1.4,5.4,3.7,7c0.6,0.4,1.3,0.7,2,1
	c0.8,0.4,1.8,0.5,2.7,0.5C1262.2,349,1263.8,348.6,1265.1,347.8z"/>
<polygon class="st2" points="1121.7,464.3 1121.8,468.9 1121.8,469.2 1121.8,469.3 1121.8,469 1122.9,493.9 1122.9,493.9 
	1123.1,493.9 1121.9,468.9 1121.8,464.3 1145.7,403.2 1145.6,403.2 "/>
<path class="st2" d="M1619.8,198L1619.8,198l-13-74.2c-57.4,8-104,12.1-142.9,14.1v0.1c38.9-2.1,85.4-6.2,142.9-14.1L1619.8,198z"/>
<path class="st2" d="M1547.1,293.7c1.5-1.5,2.8-2.9,4.1-4.2c-54.9,2.5-84.1,4.5-120.4,10.9c-57,10-80.9,15.5-119.4,30.1
	c-5.8,2.2-11.8,4.8-18.5,7.9c-3,1.4-6,2.6-9.1,3.6c0,0,0,0,0,0.1c3.8-1.3,6.7-2.6,9-3.6c6.7-3.2,12.8-5.7,18.5-7.9
	c38.5-14.6,62.4-20.1,119.4-30.1c36.3-6.4,65.5-8.4,120.4-10.9c-1.3,1.3-2.7,2.7-4.1,4.2c-54.5,2.5-83.6,4.4-119.8,10.8
	c-57,10-80.9,15.5-119.4,30.1c-5.7,2.2-11.7,4.8-18.5,8c-1.9,0.9-3.9,1.7-5.9,2.5c-0.8,3.7-2.4,7.1-4.7,10l184.4,59.9l1.5,0.5
	c8.7-21.6,21.1-44.1,37-66.7l0,0c7.3-10.3,14.6-19.8,21.6-28.3C1532.1,309.8,1540.3,300.7,1547.1,293.7z M1501.6,348.8
	c-15.9,22.6-28.3,45-37,66.7l-1.5-0.5c9.5-21.8,21.3-42.6,35.1-62c8.4-12,17-22.8,24.9-32.3C1516.1,329.1,1508.8,338.5,1501.6,348.8
	z"/>
<path class="st2" d="M1617.3,208l-160.5-12.3c-0.3,0.2-0.7,0.3-1,0.4L1280.8,245v0.1c-1.4,12.2-4.5,28.9-7.5,45.1
	c-1.9,9.8-3.7,19.8-5.2,28.6c4.9,1.6,9.1,4.8,12,9.1c1.7-0.5,3.3-1.2,4.9-1.9l-5-8.8c-0.9-1.5-1.3-3.2-1.3-4.9
	c0-5.4,4.4-9.8,9.7-9.8c1.7,0,3.3,0.5,4.7,1.3c4.7,2.7,6.4,8.7,3.7,13.4l-2.8,4.9c4.3-1.8,8.3-3.5,12.2-5
	c39.3-15,64.9-20.9,122-30.9c42.8-7.5,77.6-9,140.7-11.9c11.5-0.6,32.8-1,59.8-1.5l0,0l0,0L1617.3,208z"/>
<path class="st2" d="M1054.8,370.5l91.4,31.2v-0.1l-91.4-31.3C1054.8,370.4,1054.8,370.4,1054.8,370.5z"/>
<path class="st2" d="M1565.9,293c-1,0-1.9,0-2.9,0.1c-9.6,9.3-18.9,19.1-27.7,29.3c-1.5,1.8-3,3.6-4.5,5.4c-3.3,4-6.7,8.2-10.1,12.7
	l191.1,67.4l-28.3-117.1C1630.1,291.4,1584.7,292.2,1565.9,293z"/>
<polygon class="st2" points="1620.8,203.8 1596.3,201.9 1620.8,203.8 1632.8,272.7 1632.8,272.7 1632.8,272.7 "/>
<path class="st2" d="M1603.3,128.1c-55.7,7.7-101.2,11.8-139.4,13.9v43.6v0.4l151.6,11.7L1603.3,128.1z"/>
<polygon class="st2" points="1709.9,357.8 1849.8,357.8 1887.4,469.9 1849.8,357.7 1709.9,357.7 "/>
<path class="st2" d="M1772.6,193l-151.7-63l24.8,142.4c10.6-0.1,22-0.3,33.7-0.4h-0.2l-11.9-55l4.2-1l12.1,56h0.2l-12.1-56l-0.7-3.2
	l5.4-1.3l56.8-12.7c0.1,0,0.2,0,0.3-0.1c1.5-0.2,2.9,0.8,3.2,2.3c0.2,1.5-0.8,2.9-2.3,3.2l-1.6,0.3l-55.3,12.3h-0.1v0.1l55.3-12.3
	c0.1,0.2,0.2,0.3,0.2,0.5c0,0.1,0.1,0.3,0.1,0.4c0.2,1.4-0.9,2.7-2.3,2.9l-52.6,11.8l11.1,51.5c21.2-0.1,43.6-0.4,65.9-0.6
	l21.7-71.1C1774.3,198.5,1772.7,195.9,1772.6,193z"/>
<path class="st2" d="M973.3,407.5C973.3,407.5,973.3,407.5,973.3,407.5l13.4,65.5L973.3,407.5z"/>
<path class="st2" d="M1776.1,188.8l-156.4-65.2l0.1,0.3l156.2,65c0.1,2.9,1.7,5.5,4.2,7l-22.6,74.4l2.4,0.8h0.4l-2.7-0.9l22.6-74.4
	C1777.8,194.3,1776.2,191.7,1776.1,188.8z"/>
<polygon class="st2" points="1711.8,407.9 1716.8,409.8 1716.7,409.6 "/>
<path class="st2" d="M1781.8,189.9c0,0.1,0,0.1,0.1,0.2c0.3,0.6,0.9,1,1.5,1.2c0.3,0,0.5,0.1,0.7,0.1h0.3c0.3,0,0.7-0.1,1-0.2
	c0.2-0.1,0.3-0.1,0.5-0.2c-0.1,0.1-0.2,0.1-0.3,0.1c-0.3,0.1-0.7,0.2-1,0.2h-0.3c-0.2,0-0.5,0-0.7-0.1c-0.2-0.3-0.4-0.6-0.7-0.8
	c-0.3-0.2-0.6-0.4-0.9-0.5c0.3,0.2,0.6,0.4,0.9,0.6c0.3,0.2,0.5,0.5,0.7,0.8c-0.6-0.2-1.2-0.6-1.5-1.2c0-0.1-0.1-0.1-0.1-0.2
	c-0.3-0.4-0.3-0.9-0.2-1.4c0.1-0.8,0.4-1.6,0.9-2.2c0.2-0.2,0.4-0.4,0.7-0.5c-0.4,0.1-0.8,0.3-1.1,0.5c-0.5,0.6-0.8,1.4-0.9,2.2
	C1781.3,189,1781.6,189.5,1781.8,189.9z"/>
<path class="st2" d="M1701.3,130.5c-7,8.8-9.8,15.3-9.9,15.6l87,36.2l-7.7-93C1735.1,98.9,1713.4,116.6,1701.3,130.5z"/>
<polygon class="st2" points="1710.9,362 1723.1,411.8 1881.9,467.9 1846.3,362 "/>
<path class="st2" d="M1693.6,290.6l15.9,65.6v-4H1849v-0.1h-3.4v-62.9c-46.8,0.3-102.1,0.8-151.9,1.3l-0.9-4c-0.1,0-0.2,0-0.2,0
	L1693.6,290.6z"/>
<path class="st2" d="M863.8,481.8c0.5,0.1,46.6,11.7,106.8-5.2c4-1.1,8-2.1,11.9-2.9l-12.7-62c-19.7,4.2-37.4,7.6-43.7,8.8
	c-4.2,0.6-8.5,0.9-12.8,0.8c-11.6,0-31.4-1.4-60.7-7.5c-14.9-3.2-21.9-15.5-24.7-25.8c-14.8,7-30.1,13.1-45.7,18.3l15.3,60.9
	L863.8,481.8z"/>
<polygon class="st2" points="1122.8,493.9 1122.8,493.9 1121.8,470.3 "/>
<path class="st2" d="M856.2,409.6c-14.9-3.2-21.9-15.5-24.7-25.8C834.3,394.1,841.3,406.5,856.2,409.6z"/>
<path class="st2" d="M1142.8,405.8l-89.7-30.7c-1.6,4.1-4.1,7.9-7.2,11c-0.2,0.2-0.3,0.3-0.5,0.4c-2.4,3.5-5.6,6.3-9.5,8
	c-11,4.4-33.9,10.1-56.2,15l0,0l12.8,62.4c40.5-6.3,71.7,3.3,87.9,10.3c8.7,3.8,17.8,6.7,27.1,8.6l11.8,2.4l-1-24.7L1142.8,405.8z"
	/>
<path class="st3" d="M1783.6,191.3c-0.2-0.3-0.4-0.6-0.7-0.8c-0.3-0.2-0.6-0.4-0.9-0.6c0,0.1,0.1,0.1,0.1,0.2
	C1782.3,190.7,1782.9,191.1,1783.6,191.3z"/>
<path class="st3" d="M0.3,122.1v7.4c1.8-1.6,3.7-3.4,5.6-5.1L0.3,122.1z"/>
<path class="st3" d="M1054.3,371.8L1054.3,371.8l91.2,31.3v0.1h0.1v-0.1l0.6-1.4l-91.4-31.2C1054.7,370.9,1054.6,371.4,1054.3,371.8
	z"/>
<path class="st3" d="M406.9,277.1c0.4,0.6,0.9,1,1.6,1.2c-0.1-0.2-0.3-0.4-0.4-0.6C407.8,277.4,407.4,277.2,406.9,277.1z"/>
<polygon class="st3" points="1121.8,469.3 1121.8,470.3 1122.8,493.9 1122.9,493.9 1121.8,469 "/>
<path class="st4" d="M0.3,464.3v2.9l33.4-12c-2.3,15.4-4.2,30-5.8,43.9h3c1.7-15.1,3.7-31,6.3-48L0.3,464.3z"/>
<path class="st4" d="M860.5,370.5C872,364,882,358.2,901.8,350c22.2-9.1,44.9-16.6,68.1-22.7c29.8-8.1,44.8-12.3,58.4-12.3h0.2
	c7.6,0,14.2,0.3,21.1,0.9c0.8,18.7,0,51-9.2,65.5c10.5-9.4,13-37.6,12.9-58.8c0-3.9-0.1-7.6-0.2-10.8c-6.9-0.6-13.5-0.9-21.1-0.9
	h-0.2c-13.6,0-28.6,4.2-58.4,12.3c-23.2,6.1-45.9,13.6-68.1,22.7c-19.8,8.2-29.7,14-41.3,20.6c-7.4,4.2-15.1,8.7-26,14.1
	c0.2,0.7,0.3,1.3,0.5,2C847.3,378.1,854,374.2,860.5,370.5z"/>
<path class="st4" d="M1615.6,197.7L1615.6,197.7l4.3,0.3l-13-74.1c-57.5,7.9-104,12-142.9,14.1v4c38.2-2.1,83.7-6.2,139.4-13.9
	L1615.6,197.7z"/>
<path class="st4" d="M1772.8,79.6c0.3-0.1,0.6-0.2,0.8-0.2L1767.2,0h-3.8l6.6,80.4h0.1C1770.9,80.2,1771.8,79.9,1772.8,79.6z"/>
<path class="st4" d="M1780.2,195.9c-2.5-1.5-4.1-4.1-4.2-7l-156.2-65l1,5.8l0.1,0.3l151.7,63c0.1,2.9,1.7,5.5,4.2,7l-21.7,71.1
	c0,0,0,0,0.1,0h4.8l-2.4-0.8L1780.2,195.9z"/>
<path class="st4" d="M296.4,441.9L296.4,441.9l-75.3,26.8l0,0c-0.3,0.1-0.6,0.1-0.9,0.1l0,0l0,0l0,0c-1.2,0-2.2-0.8-2.6-1.9
	l-1.8,0.6c-1.4,0.5-2.2,2.1-1.6,3.5v0.1c0.4,1.1,1.4,1.9,2.6,1.9c0.3,0,0.6-0.1,0.9-0.1l75.3-26.8c0.1-0.1,0.2-0.1,0.3-0.1
	l15.5,27.4c0.5,0.9,1.4,1.4,2.4,1.4c0.5,0,1-0.1,1.4-0.3c1.3-0.8,1.8-2.5,1-3.8l0,0l-0.2-0.4c-0.5-0.2-0.9-0.6-1.2-1.1l-15.5-27.4
	l0,0C296.5,441.9,296.5,441.9,296.4,441.9z"/>
<path class="st4" d="M1872.3,0.3l-0.1-0.3h-5.3l25.9,58c1.4-0.2,2.9-0.4,4.4-0.6l-25.4-57.1C1871.8,0.3,1872.3,0.3,1872.3,0.3z"/>
<path class="st4" d="M1785.7,197.1l-0.9,3.1c1.8-0.9,3.3-2.4,4-4.3l-0.1,0.1C1787.8,196.5,1786.8,196.9,1785.7,197.1z"/>
<polygon class="st4" points="1667.3,217 1679.2,272 1679.3,272 1683.6,272 1671.4,216 "/>
<path class="st4" d="M294,436.7l-36.7-64.9l-107.1,38.5L43,449c-0.2,1-0.3,2-0.5,3l211.2-76.1l35.3,62.5l0,0L294,436.7z"/>
<path class="st4" d="M1854.7,285.5v3.9c25.9-0.1,48.6-0.2,65.6-0.2V285c-0.1,0-0.2,0-0.3,0v0.3
	C1902.7,285.3,1880.1,285.4,1854.7,285.5z"/>
<polygon class="st4" points="1810.7,449.1 1810.1,454 1920.3,492.9 1920.3,487.5 1920.1,487.4 1920.1,487.7 "/>
<path class="st4" d="M1732.9,205.5c0-0.1,0-0.3-0.1-0.4c0-0.2-0.1-0.3-0.2-0.5l-55.3,12.3l0.7,3.2v0.1l52.6-11.8
	C1732.1,208.2,1733.1,207,1732.9,205.5z"/>
<path class="st4" d="M1701.3,130.5c12.2-13.9,33.8-31.6,69.4-41.2l7.7,93l0.3,0.1c0.9-0.9,2.1-1.6,3.3-2l-7.9-95.3
	C1734.8,95.6,1712.6,116.2,1701.3,130.5z"/>
<path class="st4" d="M1686.2,143.8L1686.2,143.8c0.2-0.4,2.9-6.7,9.7-15.6c-4,4.7-7.7,9.8-10.8,15.2L1686.2,143.8L1686.2,143.8z"/>
<path class="st4" d="M1439.8,43.9l11.9,82.1c1.4-0.1,2.6-0.1,4-0.2l-12.3-85.4L1439.8,43.9z"/>
<path class="st4" d="M1496.9,0.1h-4.7l-42,42.1c0,0.2,0.1,0.3,0.1,0.5l40.7-40.8c35.2,32.5,79.4,80.9,105.5,110.8l6.3-0.9
	C1577.8,83,1533.1,33.8,1496.9,0.1z"/>
<path class="st4" d="M1620.8,203.8l-24.6-1.9l-135.9-10.4l0,0c-0.3,0.1-0.6,0.3-0.9,0.5L1281,241.8c0,0.6,0,1.2-0.1,1.8
	c-0.1,0.5-0.1,0.9-0.2,1.4l175.1-48.9c0.3-0.1,0.7-0.2,1-0.4l160.5,12.3l11.3,64.8l0,0c1.4-0.1,2.8-0.1,4.2-0.1l0,0L1620.8,203.8z"
	/>
<path class="st4" d="M1451.8,126l1.8,16.4v43.7l3.5-1v-46.8c0-0.1-1.2-12.3-1.3-12.5C1455.8,125.8,1451.8,124.7,1451.8,126z"/>
<path class="st4" d="M1792.4,191.2c-0.4,1.2-1,2.2-1.9,3.1c-0.3,0.3-0.5,0.6-0.8,0.8l130.5-4.9v-4h-0.2v0.2L1792.4,191.2z"/>
<path class="st4" d="M1121.8,469.3L1121.8,469.3l0.1-0.4l-0.2-4.6l23.9-61.1v-0.1l-91.2-31.3c-0.4,1.1-0.9,2.2-1.3,3.2
	c0,0,0,0,0,0.1l89.7,30.7l-24.5,62.7l1,24.7h0.2l3.3,0.7l-1-23.6V469.3z"/>
<path class="st4" d="M1238.8,333.7c0.6-2,1.5-3.9,2.7-5.6c-1.7,1.6-3.2,3.5-4.3,5.6H1238.8z"/>
<path class="st4" d="M1045.3,386.5c-1.8,1.6-3.7,2.8-5.9,3.8c-11.6,4.7-36.9,10.7-60.5,15.9l0.7,3.3c22.3-4.9,45.2-10.6,56.2-15
	C1039.8,392.8,1042.9,390,1045.3,386.5z"/>
<path class="st4" d="M1270.3,247c-1.2,12-4.4,29.2-7.5,46c-1.6,8.6-3.2,16.9-4.5,24.6c0.8,0,1.6-0.1,2.4-0.1h0.3
	c1.4-8.8,3.3-18.7,5.2-28.8c3.1-16.8,6.6-33.5,7.5-46c0.1-1.7,0.2-3.9,0.2-6.5l-3.4,0.6C1270.6,236.8,1270.6,244.6,1270.3,247z"/>
<path class="st4" d="M558.3,312.5c-1.2,1-1.3,2.7-0.4,3.8c0,0,0,0,0.1,0.1l19.9,24l5.7-1.4l-22.1-26.6c-0.1-0.1-0.1-0.2-0.2-0.3
	C560.3,311.7,559.2,311.8,558.3,312.5z"/>
<path class="st4" d="M852.7,413.8c29.3,6.1,49.1,7.5,60.7,7.5c4.3,0.1,8.6-0.2,12.8-0.8c6.3-1.2,24-4.6,43.7-8.8l12.7,62l0,0l0,0
	c1.4-0.3,2.8-0.6,4.2-0.7l0,0l-13.5-65.5c-19.7,4.2-37.3,7.6-43.6,8.8c-4.2,0.6-8.5,0.9-12.8,0.8c-11.6,0-31.3-1.3-60.7-7.5
	c-14.9-3.1-21.9-15.5-24.7-25.8c-16.2,7.6-32.9,14.2-49.9,19.7l0.7,2.8c15.6-5.2,30.9-11.3,45.7-18.3
	C830.8,398.3,837.8,410.6,852.7,413.8z"/>
<path class="st4" d="M1307.8,334.7c38.5-14.6,62.4-20.1,119.4-30.1c36.2-6.4,65.3-8.3,119.8-10.8c1.4-1.5,2.8-2.9,4.1-4.2
	c-54.9,2.5-84.1,4.5-120.4,10.9c-57,10-80.9,15.5-119.4,30.1c-5.7,2.2-11.8,4.7-18.5,7.9c-2.3,1-5.3,2.3-9,3.6c0,1-0.2,2-0.4,3
	c0,0,0,0,0,0.1c2-0.7,4-1.5,5.9-2.5C1296.1,339.5,1302.1,336.9,1307.8,334.7z"/>
<path class="st4" d="M1845.6,289.2v62.9h3.4v-62.6v-4.4c-48,0.3-105.2,0.7-156.2,1.4l0.9,4C1743.4,290,1798.8,289.5,1845.6,289.2z"
	/>
<path class="st4" d="M1781.8,188.5c-0.1,0.5-0.1,1,0.2,1.4c0.3,0.1,0.6,0.3,0.9,0.5s0.5,0.5,0.7,0.8c0.2,0.1,0.5,0.1,0.7,0.1h0.3
	c0.3,0,0.7-0.1,1-0.2c0.1,0,0.2-0.1,0.3-0.1c0.9-0.5,1.4-1.4,1.4-2.5c0-0.8-0.4-1.6-1-2.2c-0.3-0.3-0.6-0.5-1-0.6
	c-0.2,0-0.5-0.1-0.8-0.1c-0.4,0-0.7,0.1-1.1,0.2c-0.3,0.1-0.5,0.3-0.7,0.5C1782.2,186.9,1781.8,187.7,1781.8,188.5z"/>
<polygon class="st4" points="1709.9,357.8 1710.9,361.9 1710.9,362 1846.3,362 1881.9,467.9 1887.4,469.9 1849.8,357.8 "/>
<path class="st4" d="M1687.1,286.7c-53.5,0.6-98.9,1.4-117.6,2.2c-1,0-1.9,0-2.9,0.1c-10.9,10.6-21.3,21.8-31.2,33.4
	c8.8-10.2,18-19.9,27.7-29.3c1-0.1,1.9-0.1,2.9-0.1c18.7-0.8,64.1-1.6,117.6-2.2l28.3,117.1l4.8,1.7L1687.1,286.7z"/>
<path class="st4" d="M1252.9,337.4c0.4-0.3,0.8-0.5,1.3-0.7c0.4-0.1,0.8-0.3,1.3-0.4c0.6-0.1,1.1-0.2,1.7-0.2c0.3,0,0.6,0,0.9,0.1
	c1.5,0.2,3,0.7,4.2,1.7c2.1,1.6,3.3,4.1,3.3,6.7c0,1.1-0.2,2.1-0.6,3.1c0.1,0,0.1-0.1,0.2-0.1c0.7-0.5,1.3-1.1,1.9-1.7
	c1-1.2,1.6-2.6,1.9-4.1c0-0.4,0.1-0.8,0-1.2c0-2.6-1.2-5.1-3.3-6.7c-1.2-1-2.7-1.5-4.2-1.7c-0.3-0.1-0.6-0.1-0.9-0.1
	c-0.6,0-1.1,0.1-1.7,0.2c-0.5,0.1-0.9,0.3-1.3,0.4c-0.6,0.2-1.2,0.5-1.7,0.9C1254.7,334.5,1253.6,335.9,1252.9,337.4z"/>
<path class="st4" d="M413.6,284.7c0.3-0.4,0.5-0.9,0.7-1.3l0,0c-0.9,0.7-2,1.1-3.1,1.3c-0.6,0.1-1.2,0.2-1.8,0.2l-1.4,3.7
	C410.4,288.2,412.5,286.7,413.6,284.7z"/>
<path class="st4" d="M1463.1,415l1.5,0.5c8.7-21.7,21.1-44.1,37-66.7c7.2-10.3,14.5-19.7,21.5-28.1c-7.9,9.5-16.5,20.3-24.9,32.3
	C1484.3,372.4,1472.6,393.2,1463.1,415z"/>
<path class="st4" d="M218.9,249.1l-15.6,41.8l0.5-0.1l1.6-0.5l16-42.9C220.4,247.4,219.4,248.1,218.9,249.1z"/>
<path class="st4" d="M406.6,276.7c0.1,0.1,0.1,0.2,0.2,0.4c0.4,0.1,0.8,0.3,1.2,0.6c0.2,0.2,0.3,0.4,0.4,0.6h0.1
	c0.4,0.2,0.9,0.2,1.4,0.1c0.8-0.2,1.5-0.6,1.9-1.3c0.3-0.6,0.5-1.2,0.4-1.9c0-0.1,0-0.1,0-0.2c-0.3-1.4-1.5-2.4-2.9-2.4
	c-0.2,0-0.4,0-0.6,0.1c-1.3,0.3-2.3,1.5-2.3,2.8c0,0.2,0,0.3,0,0.5C406.5,276.2,406.5,276.5,406.6,276.7z"/>
<path class="st4" d="M332.4,29.6L362.9,0h-0.8l-29.5,28.7C332.5,29,332.5,29.3,332.4,29.6z"/>
<path class="st4" d="M302.3,242.2l94.4,37.5c0,0.6,0.1,1.3,0.2,1.9c0.5,2.3,1.8,4.4,3.8,5.7l-11.3,30.8l2-0.7l12.7-34.3
	c-0.5-0.3-0.9-0.7-1.3-1.1c-1.3-1.3-2.1-2.9-2.5-4.6c-0.1-0.6-0.2-1.2-0.2-1.8l-96.2-38.3L302.3,242.2z"/>
<path class="st4" d="M280.3,189c-0.6,1.4,0,3.1,1.4,3.7c0.4,0.1,0.7,0.2,1.1,0.3c1.1,0,2.1-0.7,2.5-1.7l1.1-2.4h-0.1
	c-0.4-0.1-0.7-0.2-1.1-0.3c-0.4-0.2-0.7-0.4-0.9-0.7c-0.8-0.8-1.1-2-0.6-3.1l30.3-67.1L242.4,85l-2.3,4.7l70.6,32.3L280.3,189z"/>
<polygon class="st4" points="254.4,366.8 256.8,365.9 298.5,235.2 113.9,161.8 112.2,166.5 295,239.2 "/>
<polygon class="st4" points="388.6,327.3 431.5,408.1 436.5,407 392,323.2 262.5,369.9 264,372.3 "/>
<path class="st4" d="M430.8,384.1l152-35.7l-0.6-2.7l20.1,84.1c1.5-0.4,2.8-0.7,4-1L586,344.3l-156.9,36.8L430.8,384.1z"/>
<path class="st4" d="M128.9,412.1l3.9-1.4c0-0.2-0.1-0.3-0.1-0.5l-14.8-92.4l-3.9,1.1L128.9,412.1z"/>
<polygon class="st4" points="206.1,299.1 207.6,295.6 123.7,318.8 124.2,321.8 "/>
<path class="st4" d="M123.2,24c-1.2,1.3-2.4,2.7-3.7,4c-2.1,2.3-4.3,4.6-6.6,7.1c-25.4,27-61.1,60.8-87.4,85.3l0.6,0.3h0.1
	C56,92.9,95.4,55,119.6,28.2c8.6-9.6,19.5-19.1,31.7-28.2h-2C139.9,7.3,131.1,15.3,123.2,24z"/>
<polygon class="st4" points="186.6,184.7 276.1,3.9 272.3,0 264.6,0 272.8,8.1 185.6,184.3 186.3,184.5 "/>
<path class="st4" d="M1184.4,498.1L1184.4,498.1c0.2-0.5,19.1-34.8,37.7-70.9c16.9-32.6,26.1-52.5,31-64.5
	c-6.6-2.3-11.7-7.5-14.1-14.1c-16.3-0.1-35.9-2.5-59.1-8.9c-6.5-1.8-12-3.3-16.5-4.6c-21.5-5.9-24.8-6.8-49-12
	c-25.6-5.5-41.1-8.5-54.4-10.2c0.1,1.3,0.1,2.8,0.1,4.4c12.5,1.8,27.5,4.7,50.8,9.7c24.2,5.2,27.5,6.1,49,12
	c4.5,1.3,10,2.8,16.5,4.6c23.2,6.4,42.8,8.8,59.1,8.9c2.3,6.6,7.5,11.8,14.1,14.1c-4.9,12-14.1,31.8-31.1,64.8
	c-15.4,29.8-31,58.4-36,67.7h3.3l-1.5-0.8C1184.3,498.3,1184.4,498.2,1184.4,498.1z"/>
<path class="st4" d="M1077.3,489.1c-18.1-7.9-55.9-19-104.8-5.3C911,501,865,489.7,862.1,489l-66.3-14.6L771.3,499h0.5l20.7-20.7
	l66.3,14.6c2.8,0.7,48.8,12,110.4-5.2c48.9-13.7,86.7-2.6,104.8,5.3c5.5,2.4,11.1,4.4,16.8,6.1h19.6l-4.5-0.9
	C1096.1,496.1,1086.6,493.1,1077.3,489.1z"/>
<path class="st4" d="M1868.4,109.9c-1.5,0-2.7,1.1-2.8,2.6v0.1v70.1l3.2-0.1v-72.7C1868.8,109.9,1868.6,109.9,1868.4,109.9z"/>
<polygon class="st4" points="1207.1,471 1230.4,499.1 1237.1,499.1 1209.7,466.2 "/>
<polygon class="st4" points="1721.4,417.7 1720.8,422.5 1801.8,451.1 1796.2,499.1 1798.8,499.1 1805.1,447.2 "/>
<path class="st4" d="M1585.4,434c-1.3-0.6-1.9-2-1.4-3.3c0-0.2,0.1-0.3,0.1-0.5v-0.1l20.8-53.5l-88-31.1c-0.9,1.3-1.8,2.6-2.8,4
	l87.4,30.8l-20.8,54c-0.6,1.3,0,2.9,1.4,3.5c0.1,0,0.2,0.1,0.2,0.1c1.2,0.5,2.6,0.1,3.3-1c0.1-0.2,0.2-0.4,0.3-0.6l0.8-2
	c-0.4,0-0.7-0.1-1.1-0.2C1585.6,434.1,1585.4,434,1585.4,434z"/>
<polygon class="st4" points="1610.3,378.4 1608.7,382.9 1712.7,419.6 1700.3,499.1 1702.9,499.1 1715.9,415.7 "/>
<path class="st4" d="M38,444.7c1.5-9.5,3-19.4,4.7-29.3c16.3-95.8,40.3-188.8,66-255.7l-87.8-35c-0.2,0.2-0.4,0.4-0.7,0.6
	c-6.5,6.1-12.3,11.4-17,15.7c-1.1,1-2.1,1.9-3,2.8v1c4.8-4.4,10.7-9.8,17.2-15.9l87.9,35c-25.7,66.9-49.7,159.9-66,255.7
	c-1.6,9-2.9,17.7-4.3,26.2H35L38,444.7z"/>
<path class="st4" d="M1456.9,437.3c1.5-5.2,3.2-10.4,5.2-15.6l0.2-0.5l-188.5-61.4c-3.8,2.8-8.5,4.2-13.2,4.2h-0.6
	c-0.5,1.1-1,2.3-1.5,3.7c4.3-0.2,8.5-1.6,12-4.1L1459,425l-0.3,0.9c-9.6,25.6-13.8,50.1-12.5,73.2h3.5
	C1448.3,479.6,1450.7,458.8,1456.9,437.3z"/>
<path class="st4" d="M5.9,124.3l4.2-3.9l-9.9-3.9v5.6L5.9,124.3C5.8,124.3,5.9,124.3,5.9,124.3z"/>
<path class="st4" d="M1606.8,0l-3.7,101.1c1.1,1.3,2.1,2.4,3.1,3.6L1610.1,0L1606.8,0L1606.8,0z"/>
<path class="st4" d="M302.5,440.7l1.7,3L436,416.4l31.6,59.6c1.5-0.7,3.1-1.3,4.6-2l-32.7-61.7L302.5,440.7z"/>
<path class="st4" d="M1779.7,83.8l0.2,3.2c42.5-10,101.7-18.4,140.4-23.3V60c-0.1,0-0.3,0-0.4,0.1v0.1
	C1880.2,65.3,1821.2,73.7,1779.7,83.8z"/>
<path class="st4" d="M705.7,424c-24.6,5.8-36.7,7.8-48.5,9.6c-15.3,2.3-30.4,5.4-45.4,9.2c-37.3,9.4-74,21.2-109.8,35.2
	c-2.2,0.8-4.2,1.7-6.3,2.5l0.6,2.3c0.7-0.3,1.5-0.6,2.2-0.9c35.9-13.9,72.6-25.7,109.9-35.2c15-3.8,30.1-6.9,45.4-9.2
	c11.8-1.8,23.9-3.8,48.5-9.6c25.8-6.1,48.1-11.4,69.3-18l15.7,63l3.6-3.6L775,406C753.8,412.6,731.5,417.9,705.7,424z"/>
<path class="st4" d="M451.9,499.1h5.5c9.4-4.2,18.8-8.2,28.3-12l3.2,12h4.6l-4.3-16.1C476.6,488.1,464.1,493.4,451.9,499.1z"/>
<path class="st5" d="M332.5,28.7L362,0h-8.1l-22.8,22.1C332.4,24.1,332.9,26.4,332.5,28.7z"/>
<path class="st6" d="M1293.1,303.8c-1.4-0.8-3.1-1.3-4.7-1.3c-5.4,0-9.8,4.4-9.7,9.8c0,1.7,0.5,3.4,1.3,4.9l5,8.8l3.4,5.9l5.6-9.8
	l2.8-4.9C1299.4,312.5,1297.8,306.5,1293.1,303.8z M1288.3,309.5c1.6,0,2.9,1.3,2.9,2.9s-1.3,2.9-2.9,2.9s-2.9-1.3-2.9-2.9
	S1286.8,309.5,1288.3,309.5z"/>
<circle class="st7" cx="1288.3" cy="312.4" r="2.9"/>
<path class="st6" d="M324.5,44.4l6.9-12.2c0.5-0.8,0.8-1.7,1-2.6c0.1-0.3,0.1-0.6,0.2-1c0.3-2.3-0.2-4.6-1.4-6.5
	c-0.8-1.3-2-2.5-3.5-3.4c-1.4-0.8-3.1-1.3-4.7-1.3c-5.4,0-9.8,4.4-9.7,9.8c0,1.7,0.5,3.4,1.3,4.9l2.2,3.9l6.2,10.8L324.5,44.4z
	 M320,27.4c0-1.6,1.3-2.9,2.9-2.9s2.9,1.3,2.9,2.9s-1.3,2.9-2.9,2.9S320,29,320,27.4z"/>
<circle class="st7" cx="323" cy="27.4" r="2.9"/>
<path class="st6" d="M1732.3,96.5l4.1-7.2c2.7-4.7,1-10.7-3.7-13.4c-1.4-0.8-3.1-1.3-4.7-1.3c-5.4,0-9.8,4.4-9.7,9.8
	c0,1.7,0.5,3.4,1.3,4.9l6.4,11.2l2,3.5L1732.3,96.5z M1725.1,84.4c0-1.6,1.3-2.9,2.9-2.9s2.9,1.3,2.9,2.9s-1.3,2.9-2.9,2.9
	S1725.1,86,1725.1,84.4z"/>
<circle class="st7" cx="1727.9" cy="84.4" r="2.9"/>
<g class="st8">
	<path class="st9" d="M1778.7,182.4c0.9-0.9,2.1-1.6,3.3-2l-7.9-95.3c-39.2,10.5-61.5,31.1-72.8,45.4c-7,8.8-9.8,15.3-9.9,15.6
		l87,36.2L1778.7,182.4z"/>
	<polygon class="st9" points="392,323.2 262.5,369.9 262.5,369.9 263.9,372.3 299.5,435.5 431.5,408.1 436.5,407.1 436.5,407 	"/>
	<path class="st9" d="M585.5,341.6l0.6,2.7l-157,36.8l1.6,3l11.9,22.4c0.7,0.4,1.2,1.1,1.4,1.9c0.1,0.3,0.1,0.5,0.1,0.8l33.1,62.6
		c6.4-2.6,12.9-5.3,19.4-7.8c34.5-13.5,69.7-24.9,105.6-34.2h0.1c1.5-0.4,2.8-0.7,4-1L586,344.3L585.5,341.6z"/>
	<path class="st9" d="M986.8,473l-13.4-65.5h-0.1c-19.7,4.2-37.3,7.6-43.6,8.8c-4.2,0.6-8.5,0.9-12.8,0.8c-11.6,0-31.4-1.4-60.7-7.5
		c-14.9-3.2-21.9-15.5-24.7-25.8c-16.2,7.6-32.9,14.2-49.9,19.7l0.7,2.8l15.3,60.9l66.3,14.6c0.5,0.1,46.6,11.7,106.8-5.2
		c4-1.1,8-2.1,11.9-2.9l0,0l0,0C984,473.4,985.3,473.1,986.8,473L986.8,473z"/>
	<path class="st9" d="M1054.8,370.5c-0.1,0.5-0.3,0.9-0.5,1.3l0,0c-0.4,1.1-0.9,2.2-1.3,3.2c0,0,0,0,0,0.1c-1.6,4.1-4.1,7.9-7.2,11
		c-0.2,0.2-0.3,0.3-0.5,0.4c-1.8,1.6-3.7,2.8-5.9,3.8c-11.6,4.7-36.9,10.7-60.5,15.9l0.7,3.3l0,0l12.8,62.4
		c40.5-6.3,71.7,3.3,87.9,10.3c8.7,3.8,17.8,6.7,27.1,8.6l11.8,2.4h0.2l3.3,0.7h0.1h0.1l0,0h0.1l-1.1-25l-0.2-4.6l23.9-61.1v-0.1
		l0.6-1.4v-0.1l-91.4-31.3C1054.8,370.4,1054.8,370.4,1054.8,370.5z"/>
	<path class="st9" d="M857.5,402.7c49.5,10.3,70.6,6.8,70.8,6.7c8.8-1.7,86.2-16.6,108.3-25.5c1.3-0.6,2.6-1.4,3.7-2.4
		c10.6-9.5,13-37.7,12.9-58.9c0-3.9-0.1-7.6-0.2-10.8c-6.9-0.6-13.5-0.9-21.1-0.9h-0.2c-13.6,0-28.6,4.2-58.4,12.3
		c-23.2,6.1-45.9,13.6-68.1,22.7c-19.8,8.2-29.7,14-41.3,20.6c-7.4,4.2-15.1,8.7-26,14.1l0,0c0.1,0.6,0.3,1.4,0.4,2.2
		C840.5,390.2,845.5,400.2,857.5,402.7z"/>
	<path class="st9" d="M302.9,230.9c0.3,0,0.5,0.1,0.7,0.3l98.2,39.1c1.1-1.6,2.7-2.8,4.5-3.4c0.3-0.1,0.5-0.3,1-0.3s0.9-0.1,1.3-0.1
		v-0.1c-0.4,0-0.8,0-1.2,0.1c-0.3,0.1-0.7,0.2-1,0.3l30.1-94.5L278,13.2l-0.1,0.1l-33.1,66.8l76.6,35l-32.6,72.1
		c-0.4,1-1.3,1.6-2.3,1.7h-0.1h-0.1c-0.4-0.1-0.7-0.2-1.1-0.3c-0.4-0.2-0.7-0.4-0.9-0.7c-0.7-0.8-0.9-2-0.5-3l30.3-67.1l-0.1-0.1
		L242.4,85l-2.3,4.7L192,186.9l110.6,43.9C302.6,230.8,302.8,230.8,302.9,230.9z"/>
	<path class="st9" d="M400.3,277.4c-0.1-0.6-0.2-1.2-0.2-1.8c0,0,0,0,0-0.1l-96.3-38.3l-1.6,4.9l-38.8,121.5l125.8-45.4l0.2-0.1
		l2-0.7l12.7-34.3l0,0c-0.5-0.3-0.9-0.7-1.3-1.1C401.5,280.8,400.6,279.2,400.3,277.4z"/>
	<path class="st9" d="M412.3,274.9c-0.3-1.4-1.5-2.4-2.9-2.4c-0.2,0-0.4,0-0.6,0.1l0,0c-1.4,0.3-2.3,1.5-2.3,2.9c0,0.2,0,0.3,0,0.5
		s0.1,0.5,0.2,0.7c0.1,0.1,0.1,0.2,0.2,0.4c0.4,0.6,0.9,1,1.6,1.2l0,0h0.1c0.4,0.2,0.9,0.2,1.4,0.1c0.8-0.2,1.5-0.6,1.9-1.3
		c0.3-0.6,0.5-1.2,0.4-1.9C412.3,275.1,412.3,275,412.3,274.9z"/>
	<path class="st9" d="M298.5,235.2l-184.6-73.4l-1.8,4.7v0.1c-24.9,66.2-48,156.6-63.9,249.8c-1.5,8.9-3,17.6-4.4,26.3l84.9-30.6
		h0.1l3.9-1.4c0-0.2-0.1-0.3-0.1-0.5l-14.8-92.4l0,0l-0.5-3.1l86-23.8l0.5-0.1l1.6-0.5l16-42.9l0.9-2.4c0-0.1,0.1-0.2,0.1-0.3
		c0.6-1.4,2.3-2,3.7-1.4s2,2.3,1.4,3.7l-17.9,48l-2.1,0.6l0,0l-83.8,23.2l0,0l0.5,3.1l13.9,86.9l116.3-41.9l2.4-0.9L298.5,235.2
		L298.5,235.2z"/>
	<polygon class="st9" points="1709.9,357.8 1710.9,361.9 1710.9,362 1723.1,411.8 1881.9,467.9 1887.4,469.9 1849.8,357.7 
		1709.9,357.7 	"/>
	<path class="st9" d="M1776.1,188.8l-156.4-65.2l0.1,0.3l1,5.8l0.1,0.3l24.8,142.4c10.6-0.1,22-0.3,33.7-0.4h4.2h0.2l-12.1-56
		l-0.7-3.2l5.4-1.3l56.8-12.7c0.1,0,0.2,0,0.3-0.1c1.5-0.2,2.9,0.8,3.2,2.3c0.2,1.5-0.8,2.9-2.3,3.2l-1.6,0.3l-55.3,12.3h-0.1v0.1
		l0.7,3.2v0.1l11.1,51.5c21.2-0.1,43.6-0.4,65.9-0.6c0,0,0,0,0.1,0h4.8h0.4l-2.7-0.9l22.6-74.4
		C1777.8,194.3,1776.2,191.7,1776.1,188.8z"/>
	<path class="st9" d="M1692.6,286.5l1,4.1l15.9,65.6v-4H1849v-0.1v-62.6v-4.4c-48,0.3-105.2,0.7-156.2,1.4
		C1692.8,286.5,1692.7,286.5,1692.6,286.5z"/>
	<path class="st9" d="M1785.3,185.7c-0.2,0-0.5-0.1-0.8-0.1c-0.4,0-0.7,0.1-1.1,0.2c-0.4,0.1-0.8,0.3-1.1,0.5
		c-0.5,0.6-0.8,1.4-0.9,2.2c0,0.5,0.2,1,0.4,1.4c0,0.1,0,0.1,0.1,0.2c0.3,0.6,0.9,1,1.5,1.2c0.3,0,0.5,0.1,0.7,0.1h0.3
		c0.3,0,0.7-0.1,1-0.2c0.2-0.1,0.3-0.1,0.5-0.2c0.9-0.5,1.4-1.4,1.4-2.5c0-0.8-0.4-1.6-1-2.2C1785.9,186,1785.7,185.8,1785.3,185.7z
		"/>
	<path class="st9" d="M1615.6,197.7l4.3,0.3l0,0l-13-74.2c-57.4,8-104,12.1-142.9,14.1v0.1v4v43.6v0.4L1615.6,197.7L1615.6,197.7z"
		/>
	<path class="st9" d="M1687.1,286.7c-53.5,0.6-98.9,1.4-117.6,2.2c-1,0-1.9,0-2.9,0.1c-10.9,10.6-21.3,21.8-31.2,33.4
		c-1.5,1.8-3,3.6-4.5,5.4c-3.3,4-6.7,8.2-10.1,12.7l191.1,67.4l4.9,1.9l-0.1-0.2L1687.1,286.7z"/>
	<path class="st9" d="M1284.9,326l3.4,5.9l5.6-9.8c4.3-1.8,8.3-3.5,12.2-5c39.3-15,64.9-20.9,122-30.9c42.8-7.5,77.6-9,140.7-11.9
		c11.5-0.6,32.8-1,59.8-1.5c1.4-0.1,2.8-0.1,4.2-0.1l0,0l-12-68.9l-24.6-1.9l-135.9-10.4l0,0c-0.3,0.1-0.6,0.3-0.9,0.5L1281,241.8
		c0,0.6,0,1.2-0.1,1.8c-0.1,0.5-0.1,0.9-0.2,1.4v0.1c-1.4,12.2-4.5,28.9-7.5,45.1c-1.9,9.8-3.7,19.8-5.2,28.6
		c4.9,1.6,9.1,4.8,12,9.1C1281.8,327.4,1283.3,326.7,1284.9,326z"/>
	<path class="st9" d="M1547.1,293.7c1.5-1.5,2.8-2.9,4.1-4.2c-54.9,2.5-84.1,4.5-120.4,10.9c-57,10-80.9,15.5-119.4,30.1
		c-5.8,2.2-11.8,4.8-18.5,7.9c-3,1.4-6,2.6-9.1,3.6c0,0,0,0,0,0.1c0,1-0.2,2-0.4,3c0,0,0,0,0,0.1c-0.8,3.7-2.4,7.1-4.7,10
		l184.4,59.9l1.5,0.5c8.7-21.6,21.1-44.1,37-66.7l0,0c7.3-10.3,14.6-19.8,21.6-28.3C1532.1,309.8,1540.3,300.7,1547.1,293.7z"/>
	<path class="st9" d="M1265.8,333.9c-1.2-1-2.7-1.5-4.2-1.7c-0.3-0.1-0.6-0.1-0.9-0.1c-0.6,0-1.1,0.1-1.7,0.2
		c-0.5,0.1-0.9,0.3-1.3,0.4c-0.6,0.2-1.2,0.5-1.7,0.9c-1.4,1-2.5,2.3-3.1,3.9c-0.4,0.9-0.6,2-0.6,3c0,2.8,1.4,5.4,3.7,7
		c0.6,0.4,1.3,0.7,2,1c0.8,0.4,1.8,0.5,2.7,0.5c1.5,0,3.1-0.4,4.4-1.2c0.1,0,0.1-0.1,0.2-0.1c0.7-0.5,1.3-1.1,1.9-1.7l0,0
		c1.1-1.2,1.7-2.6,1.9-4.2c0-0.4,0.1-0.8,0-1.2C1269.1,338,1267.8,335.5,1265.8,333.9z"/>
	<path class="st10" d="M406.4,266.8c0.3-0.1,0.7-0.2,1-0.3c0.4-0.1,0.8-0.1,1.2-0.1l31.3-98.1L280.4,8.2l-2.4,5l158.5,159.1
		L406.4,266.8z"/>
</g>
<g class="st8">
	<path class="st9" d="M1054.8,370.5c-0.1,0.5-0.3,0.9-0.5,1.3l0,0c-0.4,1.1-0.9,2.2-1.3,3.2c0,0,0,0,0,0.1c-1.6,4.1-4.1,7.9-7.2,11
		c-0.2,0.2-0.3,0.3-0.5,0.4c-1.8,1.6-3.7,2.8-5.9,3.8c-11.6,4.7-36.9,10.7-60.5,15.9l0.7,3.3l0,0l12.8,62.4
		c40.5-6.3,71.7,3.3,87.9,10.3c8.7,3.8,17.8,6.7,27.1,8.6l11.8,2.4h0.2l3.3,0.7h0.1h0.1l0,0h0.1l-1.1-25l-0.2-4.6l23.9-61.1v-0.1
		l0.6-1.4v-0.1l-91.4-31.3C1054.8,370.4,1054.8,370.4,1054.8,370.5z"/>
	<path class="st9" d="M857.5,402.7c49.5,10.3,70.6,6.8,70.8,6.7c8.8-1.7,86.2-16.6,108.3-25.5c1.3-0.6,2.6-1.4,3.7-2.4
		c10.6-9.5,13-37.7,12.9-58.9c0-3.9-0.1-7.6-0.2-10.8c-6.9-0.6-13.5-0.9-21.1-0.9h-0.2c-13.6,0-28.6,4.2-58.4,12.3
		c-23.2,6.1-45.9,13.6-68.1,22.7c-19.8,8.2-29.7,14-41.3,20.6c-7.4,4.2-15.1,8.7-26,14.1l0,0c0.1,0.6,0.3,1.4,0.4,2.2
		C840.5,390.2,845.5,400.2,857.5,402.7z"/>
	<path class="st9" d="M585.5,341.6l0.6,2.7l-157,36.8l1.6,3l11.9,22.4c0.7,0.4,1.2,1.1,1.4,1.9c0.1,0.3,0.1,0.5,0.1,0.8l33.1,62.6
		c6.4-2.6,12.9-5.3,19.4-7.8c34.5-13.5,69.7-24.9,105.6-34.2h0.1c1.5-0.4,2.8-0.7,4-1L586,344.3L585.5,341.6z"/>
	<path class="st9" d="M986.8,473l-13.4-65.5h-0.1c-19.7,4.2-37.3,7.6-43.6,8.8c-4.2,0.6-8.5,0.9-12.8,0.8c-11.6,0-31.4-1.4-60.7-7.5
		c-14.9-3.2-21.9-15.5-24.7-25.8c-16.2,7.6-32.9,14.2-49.9,19.7l0.7,2.8l15.3,60.9l66.3,14.6c0.5,0.1,46.6,11.7,106.8-5.2
		c4-1.1,8-2.1,11.9-2.9l0,0l0,0C984,473.4,985.3,473.1,986.8,473L986.8,473z"/>
	<path class="st9" d="M302.9,230.9c0.3,0,0.5,0.1,0.7,0.3l98.2,39.1c1.1-1.6,2.7-2.8,4.5-3.4c0.3-0.1,0.5-0.3,1-0.3s0.9-0.1,1.3-0.1
		v-0.1l31.3-98.1L280.4,8.2l-2.4,5l-0.1,0.1l-33.1,66.8l76.6,35l-32.6,72.1c-0.4,1-1.3,1.6-2.3,1.7h-0.1h-0.1
		c-0.4-0.1-0.7-0.2-1.1-0.3c-0.4-0.2-0.7-0.4-0.9-0.7c-0.7-0.8-0.9-2-0.5-3l30.3-67.1l-0.1-0.1L242.4,85l-2.3,4.7L192,186.9
		l110.6,43.9C302.6,230.8,302.8,230.8,302.9,230.9z"/>
	<polygon class="st9" points="392,323.2 262.5,369.9 262.5,369.9 263.9,372.3 299.5,435.5 431.5,408.1 436.5,407.1 436.5,407 	"/>
	<path class="st9" d="M400.3,277.4c-0.1-0.6-0.2-1.2-0.2-1.8c0,0,0,0,0-0.1l-96.3-38.3l-1.6,4.9l-38.8,121.5l125.8-45.4l0.2-0.1
		l2-0.7l12.7-34.3l0,0c-0.5-0.3-0.9-0.7-1.3-1.1C401.5,280.8,400.6,279.2,400.3,277.4z"/>
	<path class="st9" d="M412.3,274.9c-0.3-1.4-1.5-2.4-2.9-2.4c-0.2,0-0.4,0-0.6,0.1l0,0c-1.4,0.3-2.3,1.5-2.3,2.9c0,0.2,0,0.3,0,0.5
		s0.1,0.5,0.2,0.7c0.1,0.1,0.1,0.2,0.2,0.4c0.4,0.6,0.9,1,1.6,1.2l0,0h0.1c0.4,0.2,0.9,0.2,1.4,0.1c0.8-0.2,1.5-0.6,1.9-1.3
		c0.3-0.6,0.5-1.2,0.4-1.9C412.3,275.1,412.3,275,412.3,274.9z"/>
	<path class="st9" d="M1778.7,182.4c0.9-0.9,2.1-1.6,3.3-2l-7.9-95.3c-39.2,10.5-61.5,31.1-72.8,45.4c-7,8.8-9.8,15.3-9.9,15.6
		l87,36.2L1778.7,182.4z"/>
	<path class="st9" d="M298.5,235.2l-184.6-73.4l-1.8,4.7v0.1c-24.9,66.2-48,156.6-63.9,249.8c-1.5,8.9-3,17.6-4.4,26.3l84.9-30.6
		h0.1l3.9-1.4c0-0.2-0.1-0.3-0.1-0.5l-14.8-92.4l0,0l-0.5-3.1l86-23.8l0.5-0.1l1.6-0.5l16-42.9l0.9-2.4c0-0.1,0.1-0.2,0.1-0.3
		c0.6-1.4,2.3-2,3.7-1.4s2,2.3,1.4,3.7l-17.9,48l-2.1,0.6l0,0l-83.8,23.2l0,0l0.5,3.1l13.9,86.9l116.3-41.9l2.4-0.9L298.5,235.2
		L298.5,235.2z"/>
	<polygon class="st9" points="1709.9,357.8 1710.9,361.9 1710.9,362 1723.1,411.8 1881.9,467.9 1887.4,469.9 1849.8,357.7 
		1709.9,357.7 	"/>
	<path class="st9" d="M1776.1,188.8l-156.4-65.2l0.1,0.3l1,5.8l0.1,0.3l24.8,142.4c10.6-0.1,22-0.3,33.7-0.4h4.2h0.2l-12.1-56
		l-0.7-3.2l5.4-1.3l56.8-12.7c0.1,0,0.2,0,0.3-0.1c1.5-0.2,2.9,0.8,3.2,2.3c0.2,1.5-0.8,2.9-2.3,3.2l-1.6,0.3l-55.3,12.3h-0.1v0.1
		l0.7,3.2v0.1l11.1,51.5c21.2-0.1,43.6-0.4,65.9-0.6c0,0,0,0,0.1,0h4.8h0.4l-2.7-0.9l22.6-74.4
		C1777.8,194.3,1776.2,191.7,1776.1,188.8z"/>
	<path class="st9" d="M1692.6,286.5l1,4.1l15.9,65.6v-4H1849v-0.1v-62.6v-4.4c-48,0.3-105.2,0.7-156.2,1.4
		C1692.8,286.5,1692.7,286.5,1692.6,286.5z"/>
	<path class="st9" d="M1785.3,185.7c-0.2,0-0.5-0.1-0.8-0.1c-0.4,0-0.7,0.1-1.1,0.2c-0.4,0.1-0.8,0.3-1.1,0.5
		c-0.5,0.6-0.8,1.4-0.9,2.2c0,0.5,0.2,1,0.4,1.4c0,0.1,0,0.1,0.1,0.2c0.3,0.6,0.9,1,1.5,1.2c0.3,0,0.5,0.1,0.7,0.1h0.3
		c0.3,0,0.7-0.1,1-0.2c0.2-0.1,0.3-0.1,0.5-0.2c0.9-0.5,1.4-1.4,1.4-2.5c0-0.8-0.4-1.6-1-2.2C1785.9,186,1785.7,185.8,1785.3,185.7z
		"/>
	<path class="st9" d="M1615.6,197.7l4.3,0.3l0,0l-13-74.2c-57.4,8-104,12.1-142.9,14.1v0.1v4v43.6v0.4L1615.6,197.7L1615.6,197.7z"
		/>
	<path class="st9" d="M1265.8,333.9c-1.2-1-2.7-1.5-4.2-1.7c-0.3-0.1-0.6-0.1-0.9-0.1c-0.6,0-1.1,0.1-1.7,0.2
		c-0.5,0.1-0.9,0.3-1.3,0.4c-0.6,0.2-1.2,0.5-1.7,0.9c-1.4,1-2.5,2.3-3.1,3.9c-0.4,0.9-0.6,2-0.6,3c0,2.8,1.4,5.4,3.7,7
		c0.6,0.4,1.3,0.7,2,1c0.8,0.4,1.8,0.5,2.7,0.5c1.5,0,3.1-0.4,4.4-1.2c0.1,0,0.1-0.1,0.2-0.1c0.7-0.5,1.3-1.1,1.9-1.7l0,0
		c1.1-1.2,1.7-2.6,1.9-4.2c0-0.4,0.1-0.8,0-1.2C1269.1,338,1267.8,335.5,1265.8,333.9z"/>
	<path class="st9" d="M1284.9,326l3.4,5.9l5.6-9.8c4.3-1.8,8.3-3.5,12.2-5c39.3-15,64.9-20.9,122-30.9c42.8-7.5,77.6-9,140.7-11.9
		c11.5-0.6,32.8-1,59.8-1.5c1.4-0.1,2.8-0.1,4.2-0.1l0,0l-12-68.9l-24.6-1.9l-135.9-10.4l0,0c-0.3,0.1-0.6,0.3-0.9,0.5L1281,241.8
		c0,0.6,0,1.2-0.1,1.8c-0.1,0.5-0.1,0.9-0.2,1.4v0.1c-1.4,12.2-4.5,28.9-7.5,45.1c-1.9,9.8-3.7,19.8-5.2,28.6
		c4.9,1.6,9.1,4.8,12,9.1C1281.8,327.4,1283.3,326.7,1284.9,326z"/>
	<path class="st9" d="M1687.1,286.7c-53.5,0.6-98.9,1.4-117.6,2.2c-1,0-1.9,0-2.9,0.1c-10.9,10.6-21.3,21.8-31.2,33.4
		c-1.5,1.8-3,3.6-4.5,5.4c-3.3,4-6.7,8.2-10.1,12.7l191.1,67.4l4.9,1.9l-0.1-0.2L1687.1,286.7z"/>
	<path class="st9" d="M1547.1,293.7c1.5-1.5,2.8-2.9,4.1-4.2c-54.9,2.5-84.1,4.5-120.4,10.9c-57,10-80.9,15.5-119.4,30.1
		c-5.8,2.2-11.8,4.8-18.5,7.9c-3,1.4-6,2.6-9.1,3.6c0,0,0,0,0,0.1c0,1-0.2,2-0.4,3c0,0,0,0,0,0.1c-0.8,3.7-2.4,7.1-4.7,10
		l184.4,59.9l1.5,0.5c8.7-21.6,21.1-44.1,37-66.7l0,0c7.3-10.3,14.6-19.8,21.6-28.3C1532.1,309.8,1540.3,300.7,1547.1,293.7z"/>
	<g>
		<path class="st9" d="M857.5,402.7c49.5,10.3,70.6,6.8,70.8,6.7c8.8-1.7,86.2-16.6,108.3-25.5c1.3-0.6,2.6-1.4,3.7-2.4
			c10.6-9.5,13-37.7,12.9-58.9c0-3.9-0.1-7.6-0.2-10.8c-6.9-0.6-13.5-0.9-21.1-0.9h-0.2c-13.6,0-28.6,4.2-58.4,12.3
			c-23.2,6.1-45.9,13.6-68.1,22.7c-19.8,8.2-29.7,14-41.3,20.6c-7.4,4.2-15.1,8.7-26,14.1l0,0c0.1,0.6,0.3,1.4,0.4,2.2
			C840.5,390.2,845.5,400.2,857.5,402.7z"/>
		<path class="st9" d="M585.5,341.6l0.6,2.7l-157,36.8l1.6,3l11.9,22.4c0.7,0.4,1.2,1.1,1.4,1.9c0.1,0.3,0.1,0.5,0.1,0.8l33.1,62.6
			c6.4-2.6,12.9-5.3,19.4-7.8c34.5-13.5,69.7-24.9,105.6-34.2h0.1c1.5-0.4,2.8-0.7,4-1L586,344.3L585.5,341.6z"/>
		<path class="st9" d="M986.8,473l-13.4-65.5h-0.1c-19.7,4.2-37.3,7.6-43.6,8.8c-4.2,0.6-8.5,0.9-12.8,0.8
			c-11.6,0-31.4-1.4-60.7-7.5c-14.9-3.2-21.9-15.5-24.7-25.8c-16.2,7.6-32.9,14.2-49.9,19.7l0.7,2.8l15.3,60.9l66.3,14.6
			c0.5,0.1,46.6,11.7,106.8-5.2c4-1.1,8-2.1,11.9-2.9l0,0l0,0C984,473.4,985.3,473.1,986.8,473L986.8,473z"/>
		<path class="st9" d="M1054.8,370.5c-0.1,0.5-0.3,0.9-0.5,1.3l0,0c-0.4,1.1-0.9,2.2-1.3,3.2c0,0,0,0,0,0.1c-1.6,4.1-4.1,7.9-7.2,11
			c-0.2,0.2-0.3,0.3-0.5,0.4c-1.8,1.6-3.7,2.8-5.9,3.8c-11.6,4.7-36.9,10.7-60.5,15.9l0.7,3.3l0,0l12.8,62.4
			c40.5-6.3,71.7,3.3,87.9,10.3c8.7,3.8,17.8,6.7,27.1,8.6l11.8,2.4h0.2l3.3,0.7h0.1h0.1l0,0h0.1l-1.1-25l-0.2-4.6l23.9-61.1v-0.1
			l0.6-1.4v-0.1l-91.4-31.3C1054.8,370.4,1054.8,370.4,1054.8,370.5z"/>
		<polygon class="st9" points="392,323.2 262.5,369.9 262.5,369.9 263.9,372.3 299.5,435.5 431.5,408.1 436.5,407.1 436.5,407 		"/>
		<path class="st9" d="M302.9,230.9c0.3,0,0.5,0.1,0.7,0.3l98.2,39.1c1.1-1.6,2.7-2.8,4.5-3.4c0.3-0.1,0.5-0.3,1-0.3
			s0.9-0.1,1.3-0.1v-0.1l31.3-98.1L280.4,8.2l-2.4,5l-0.1,0.1l-33.1,66.8l76.6,35l-32.6,72.1c-0.4,1-1.3,1.6-2.3,1.7h-0.1h-0.1
			c-0.4-0.1-0.7-0.2-1.1-0.3c-0.4-0.2-0.7-0.4-0.9-0.7c-0.7-0.8-0.9-2-0.5-3l30.3-67.1l-0.1-0.1L242.4,85l-2.3,4.7L192,186.9
			l110.6,43.9C302.6,230.8,302.8,230.8,302.9,230.9z"/>
		<path class="st9" d="M400.3,277.4c-0.1-0.6-0.2-1.2-0.2-1.8c0,0,0,0,0-0.1l-96.3-38.3l-1.6,4.9l-38.8,121.5l125.8-45.4l0.2-0.1
			l2-0.7l12.7-34.3l0,0c-0.5-0.3-0.9-0.7-1.3-1.1C401.5,280.8,400.6,279.2,400.3,277.4z"/>
		<path class="st9" d="M412.3,274.9c-0.3-1.4-1.5-2.4-2.9-2.4c-0.2,0-0.4,0-0.6,0.1l0,0c-1.4,0.3-2.3,1.5-2.3,2.9c0,0.2,0,0.3,0,0.5
			s0.1,0.5,0.2,0.7c0.1,0.1,0.1,0.2,0.2,0.4c0.4,0.6,0.9,1,1.6,1.2l0,0h0.1c0.4,0.2,0.9,0.2,1.4,0.1c0.8-0.2,1.5-0.6,1.9-1.3
			c0.3-0.6,0.5-1.2,0.4-1.9C412.3,275.1,412.3,275,412.3,274.9z"/>
		<path class="st9" d="M1778.7,182.4c0.9-0.9,2.1-1.6,3.3-2l-7.9-95.3c-39.2,10.5-61.5,31.1-72.8,45.4c-7,8.8-9.8,15.3-9.9,15.6
			l87,36.2L1778.7,182.4z"/>
		<path class="st9" d="M298.5,235.2l-184.6-73.4l-1.8,4.7v0.1c-24.9,66.2-48,156.6-63.9,249.8c-1.5,8.9-3,17.6-4.4,26.3l84.9-30.6
			h0.1l3.9-1.4c0-0.2-0.1-0.3-0.1-0.5l-14.8-92.4l0,0l-0.5-3.1l86-23.8l0.5-0.1l1.6-0.5l16-42.9l0.9-2.4c0-0.1,0.1-0.2,0.1-0.3
			c0.6-1.4,2.3-2,3.7-1.4s2,2.3,1.4,3.7l-17.9,48l-2.1,0.6l0,0l-83.8,23.2l0,0l0.5,3.1l13.9,86.9l116.3-41.9l2.4-0.9L298.5,235.2
			L298.5,235.2z"/>
		<path class="st9" d="M1785.3,185.7c-0.2,0-0.5-0.1-0.8-0.1c-0.4,0-0.7,0.1-1.1,0.2c-0.4,0.1-0.8,0.3-1.1,0.5
			c-0.5,0.6-0.8,1.4-0.9,2.2c0,0.5,0.2,1,0.4,1.4c0,0.1,0,0.1,0.1,0.2c0.3,0.6,0.9,1,1.5,1.2c0.3,0,0.5,0.1,0.7,0.1h0.3
			c0.3,0,0.7-0.1,1-0.2c0.2-0.1,0.3-0.1,0.5-0.2c0.9-0.5,1.4-1.4,1.4-2.5c0-0.8-0.4-1.6-1-2.2C1785.9,186,1785.7,185.8,1785.3,185.7
			z"/>
		<path class="st9" d="M1615.6,197.7l4.3,0.3l0,0l-13-74.2c-57.4,8-104,12.1-142.9,14.1v0.1v4v43.6v0.4L1615.6,197.7L1615.6,197.7z"
			/>
		<path class="st9" d="M1776.1,188.8l-156.4-65.2l0.1,0.3l1,5.8l0.1,0.3l24.8,142.4c10.6-0.1,22-0.3,33.7-0.4h4.2h0.2l-12.1-56
			l-0.7-3.2l5.4-1.3l56.8-12.7c0.1,0,0.2,0,0.3-0.1c1.5-0.2,2.9,0.8,3.2,2.3c0.2,1.5-0.8,2.9-2.3,3.2l-1.6,0.3l-55.3,12.3h-0.1v0.1
			l0.7,3.2v0.1l11.1,51.5c21.2-0.1,43.6-0.4,65.9-0.6c0,0,0,0,0.1,0h4.8h0.4l-2.7-0.9l22.6-74.4
			C1777.8,194.3,1776.2,191.7,1776.1,188.8z"/>
		<polygon class="st9" points="1709.9,357.8 1710.9,361.9 1710.9,362 1723.1,411.8 1881.9,467.9 1887.4,469.9 1849.8,357.7 
			1709.9,357.7 		"/>
		<path class="st9" d="M1692.6,286.5l1,4.1l15.9,65.6v-4H1849v-0.1v-62.6v-4.4c-48,0.3-105.2,0.7-156.2,1.4
			C1692.8,286.5,1692.7,286.5,1692.6,286.5z"/>
		<path class="st9" d="M1284.9,326l3.4,5.9l5.6-9.8c4.3-1.8,8.3-3.5,12.2-5c39.3-15,64.9-20.9,122-30.9c42.8-7.5,77.6-9,140.7-11.9
			c11.5-0.6,32.8-1,59.8-1.5c1.4-0.1,2.8-0.1,4.2-0.1l0,0l-12-68.9l-24.6-1.9l-135.9-10.4l0,0c-0.3,0.1-0.6,0.3-0.9,0.5L1281,241.8
			c0,0.6,0,1.2-0.1,1.8c-0.1,0.5-0.1,0.9-0.2,1.4v0.1c-1.4,12.2-4.5,28.9-7.5,45.1c-1.9,9.8-3.7,19.8-5.2,28.6
			c4.9,1.6,9.1,4.8,12,9.1C1281.8,327.4,1283.3,326.7,1284.9,326z"/>
		<path class="st9" d="M1687.1,286.7c-53.5,0.6-98.9,1.4-117.6,2.2c-1,0-1.9,0-2.9,0.1c-10.9,10.6-21.3,21.8-31.2,33.4
			c-1.5,1.8-3,3.6-4.5,5.4c-3.3,4-6.7,8.2-10.1,12.7l191.1,67.4l4.9,1.9l-0.1-0.2L1687.1,286.7z"/>
		<path class="st9" d="M1547.1,293.7c1.5-1.5,2.8-2.9,4.1-4.2c-54.9,2.5-84.1,4.5-120.4,10.9c-57,10-80.9,15.5-119.4,30.1
			c-5.8,2.2-11.8,4.8-18.5,7.9c-3,1.4-6,2.6-9.1,3.6c0,0,0,0,0,0.1c0,1-0.2,2-0.4,3c0,0,0,0,0,0.1c-0.8,3.7-2.4,7.1-4.7,10
			l184.4,59.9l1.5,0.5c8.7-21.6,21.1-44.1,37-66.7l0,0c7.3-10.3,14.6-19.8,21.6-28.3C1532.1,309.8,1540.3,300.7,1547.1,293.7z"/>
		<path class="st9" d="M1265.8,333.9c-1.2-1-2.7-1.5-4.2-1.7c-0.3-0.1-0.6-0.1-0.9-0.1c-0.6,0-1.1,0.1-1.7,0.2
			c-0.5,0.1-0.9,0.3-1.3,0.4c-0.6,0.2-1.2,0.5-1.7,0.9c-1.4,1-2.5,2.3-3.1,3.9c-0.4,0.9-0.6,2-0.6,3c0,2.8,1.4,5.4,3.7,7
			c0.6,0.4,1.3,0.7,2,1c0.8,0.4,1.8,0.5,2.7,0.5c1.5,0,3.1-0.4,4.4-1.2c0.1,0,0.1-0.1,0.2-0.1c0.7-0.5,1.3-1.1,1.9-1.7l0,0
			c1.1-1.2,1.7-2.6,1.9-4.2c0-0.4,0.1-0.8,0-1.2C1269.1,338,1267.8,335.5,1265.8,333.9z"/>
	</g>
</g>
<path class="st2" d="M793.3,246.5c-0.2,0-0.4,0.1-0.6,0.2C793,246.6,793.3,246.6,793.3,246.5C793.5,246.5,793.5,246.5,793.3,246.5z"
	/>
<path class="st2" d="M791.2,248.3l0.1-0.1c-0.1,0.1-0.1,0.2-0.2,0.3l0,0C791,248.4,791.2,248.3,791.2,248.3z"/>
<path class="st2" d="M792.2,247.1L792.2,247.1c-0.1,0-0.1,0.1-0.2,0.2l0,0C792,247.2,792,247.2,792.2,247.1z"/>
<path class="st2" d="M790.8,249.1C790.8,249.1,790.8,249.1,790.8,249.1C790.8,249.2,790.8,249.2,790.8,249.1c0,0,0.1-0.1,0.1-0.3
	C790.8,248.9,790.8,249,790.8,249.1z"/>
<path class="st2" d="M791.5,247.6C791.7,247.6,791.7,247.6,791.5,247.6c0,0-0.1,0.1-0.2,0.2c0,0,0,0,0-0.1
	C791.5,247.7,791.5,247.7,791.5,247.6z"/>
<path class="st2" d="M788.2,255.5c0.2-0.1,0.3-0.2,0.5-0.2C788.5,255.3,788.3,255.4,788.2,255.5L788.2,255.5z"/>
<path class="st2" d="M789,255.1L789,255.1c-0.1,0-0.2,0.1-0.3,0.1C788.8,255.2,788.8,255.1,789,255.1z"/>
<path class="st2" d="M793.5,246.5L793.5,246.5c-0.2,0-0.4,0.1-0.6,0.2l0,0C793,246.6,793.3,246.6,793.5,246.5z"/>
<path class="st2" d="M792.8,246.7c-0.2,0.1-0.4,0.2-0.6,0.4l0,0C792.3,247,792.5,246.8,792.8,246.7z"/>
<path class="st2" d="M791,248.5c-0.1,0.1-0.1,0.2-0.1,0.4c0,0.1-0.1,0.2-0.1,0.3C790.8,248.9,791,248.7,791,248.5
	C791,248.4,791,248.5,791,248.5z"/>
<path class="st2" d="M791.5,247.8L791.5,247.8c-0.1,0.1-0.2,0.2-0.2,0.3l-0.1,0.1C791.3,248.1,791.3,247.9,791.5,247.8z"/>
<path class="st2" d="M792,247.2C792,247.3,792,247.3,792,247.2c-0.2,0.1-0.3,0.2-0.4,0.3c0,0,0,0,0,0.1
	C791.8,247.5,791.8,247.4,792,247.2z"/>
<path class="st2" d="M792,256.9C792,256.9,792,256.9,792,256.9C791.7,257,792,256.9,792,256.9z"/>
<path class="st11" d="M791.2,248.3c0,0.1-0.1,0.1-0.1,0.2C791,248.4,791.2,248.3,791.2,248.3z"/>
<path class="st11" d="M792.2,247.1c-0.1,0-0.1,0.1-0.2,0.1C792,247.2,792,247.2,792.2,247.1z"/>
<path class="st11" d="M791.5,247.8c0-0.1,0.1-0.1,0.1-0.2C791.5,247.7,791.5,247.7,791.5,247.8z"/>
<path class="st2" d="M797.5,249.5C797.5,249.5,797.5,249.4,797.5,249.5v-0.3c-0.2-1-0.7-1.8-1.5-2.3c-0.2-0.1-0.4-0.2-0.6-0.3
	c-0.4-0.2-0.7-0.3-1.2-0.3C795.6,247,796.7,248.1,797.5,249.5z"/>
<path class="st2" d="M797.4,248.7c0,0,0-0.1-0.1-0.2C797.3,248.6,797.4,248.6,797.4,248.7z"/>
<path class="st4" d="M793.4,246.4c-0.2,0.1-0.4,0.1-0.6,0.2c-0.2,0.1-0.4,0.3-0.6,0.4c-0.1,0.1-0.1,0.1-0.2,0.2s-0.2,0.2-0.3,0.3
	c-0.1,0.1-0.1,0.2-0.2,0.3c-0.1,0.1-0.1,0.2-0.2,0.3c-0.1,0.1-0.1,0.2-0.2,0.3c0,0.2-0.1,0.3-0.1,0.4c0,0.1-0.1,0.2-0.1,0.3
	c0,0.1,0,0.1,0,0.1c-0.1,0.2-0.1,0.4-0.1,0.7s0,0.6,0.1,0.9c0.1,0.5,0.4,0.9,0.7,1.3c0.4,0.5,1,0.8,1.6,1c0.3,0.1,0.7,0.2,1,0.2
	c1.9,0,3.4-1.5,3.3-3.6c0-0.1,0-0.1,0-0.2c-0.7-1.4-1.9-2.5-3.3-3.2c0,0-0.1,0-0.1,0C793.9,246.3,793.6,246.4,793.4,246.4z"/>
<path class="st4" d="M784.3,250.9c0.9-0.4,1.7-0.7,2.5-1c0.1-0.8,0.2-1.5,0.4-2.2v-0.1c0.1-0.4,0.3-0.8,0.6-1.2
	c-1.7,0.9-3.1,2.4-3.7,4.3v0.1c0,0.1,0,0.2-0.1,0.2c0,0,0,0,0,0C784.1,251,784.2,250.9,784.3,250.9z"/>
<path class="st4" d="M850.8,337.4c-0.6-0.2-1.1-0.6-1.3-1.2l-4.6-9.4c-4.5-9.2-9.7-19.2-11-21.1c-0.9-0.5-3.2-1.7-5.6-3.1
	c-5.9-3.3-14.8-8.4-20.9-12.1l-0.8-0.5l-0.3-0.9c-4.2-11.9-9-24.8-11.9-32h-0.3c-0.7,0-1.5-0.1-2.1-0.3h-0.1
	c-0.8-0.2-1.6-0.6-2.3-1.2l-0.7-0.6c0,0-0.1,0.1-0.2,0.1c-0.2,0.1-0.3,0.1-0.5,0.2c-0.1,0.1-0.2,0.2-0.3,0.2
	c-6.4,2.5-18.3,7.3-40.3,15.9l0.4,1.7c19.7-7.7,30.7-12.1,36.7-14.5c0.1,0,0.2-0.1,0.3-0.2c0.2-0.1,0.3-0.1,0.5-0.2
	c0.1,0,0.2-0.1,0.2-0.1l0.7,0.6c0.7,0.6,1.5,1,2.3,1.2h0.1c0.6,0.2,1.4,0.3,2.1,0.3h0.3c2.9,7.2,7.7,20.1,11.9,32l0.3,0.9l0.8,0.5
	c6.1,3.7,15,8.8,20.9,12.1c2.4,1.4,4.7,2.6,5.6,3.1c1.3,1.9,6.5,11.9,11,21.1l4.6,9.4c0.2,0.6,0.7,1,1.3,1.2
	c0.2,0.1,0.3,0.1,0.5,0.2c0.2,0.1,0.4,0.1,0.7,0.1c0.4,0,0.9-0.1,1.3-0.3c1.2-0.5,1.8-1.6,1.6-2.8c-0.2,0-0.3,0-0.5-0.1
	C851.1,337.5,851,337.5,850.8,337.4z"/>
<path class="st4" d="M793.2,253.1c0.1,0.1,0.1,0.1,0.2,0.1C793.3,253.2,793.3,253.1,793.2,253.1z"/>
<path class="st11" d="M796,246.9c0.1,0,0.1,0.1,0.2,0.1C796.2,247,796.1,246.9,796,246.9z"/>
<polygon class="st2" points="446.1,172.1 446.1,172.1 740.6,272.3 "/>
<path class="st2" d="M429,381.1l1.6,3l11.9,22.4c0.7,0.4,1.2,1.1,1.4,1.9c0.1,0.3,0.1,0.5,0.1,0.8l33.1,62.6
	c6.4-2.6,12.9-5.3,19.4-7.8c34.5-13.5,69.8-24.9,105.7-34.2c1.5-0.4,2.8-0.7,4-1L586,344.3L429,381.1z"/>
<path class="st2" d="M763.2,374.5l-0.2-0.7l-25.6-98.4l-292.5-99.5l-29.6,92.6c1.6,1.4,2.7,3.2,3.1,5.2c0.5,2.4,0.1,4.9-1.3,7
	c-0.7,1.1-1.6,2-2.7,2.7c-0.9,0.7-2,1.1-3.1,1.3c-0.6,0.1-1.2,0.2-1.8,0.2l-1.5,3.9l-11.4,30.8l29.9,56.4l151.4-35.4l5.8-1.4
	l-0.1-0.2l-22.1-26.6c-0.1-0.1-0.1-0.2-0.2-0.3c-0.7-1.1-0.5-2.7,0.6-3.6c0.1-0.1,0.1-0.1,0.1-0.1c1.1-0.9,2.8-0.8,3.8,0.4l25,30.2
	l21,88.3c14.2-3.6,28.6-6.5,43.1-8.6c11.5-1.8,23.3-3.7,47.4-9.4c24.7-5.9,45.4-10.8,64.9-16.7c0.2-0.1,0.5-0.1,0.7-0.2l-4.4-16.8
	L763.2,374.5z"/>
<polygon class="st2" points="262.6,369.9 262.5,369.9 263.9,372.3 299.6,435.5 431.5,408.1 436.5,407.1 436.5,407 392.1,323.2 "/>
<path class="st2" d="M409.3,272.5c-0.2,0-0.4,0-0.6,0.1c-1.3,0.3-2.3,1.5-2.3,2.9c0,0.1,0,0.3,0,0.5s0.1,0.5,0.2,0.7
	c0,0.2,0.1,0.3,0.2,0.4c0.4,0.6,0.9,1,1.6,1.2h0.1c0.4,0.2,0.9,0.2,1.4,0.1c0.8-0.2,1.5-0.6,1.9-1.3c0.3-0.6,0.5-1.2,0.4-1.9
	c0-0.1,0-0.2,0-0.3C412,273.5,410.8,272.5,409.3,272.5z"/>
<path class="st2" d="M973.3,407.5c-19.6,4.2-37.3,7.6-43.6,8.8c-4.2,0.6-8.5,0.9-12.8,0.8c-11.6,0-31.4-1.4-60.7-7.5
	c-14.9-3.2-21.9-15.5-24.7-25.8c-16.2,7.6-32.9,14.2-49.9,19.7l0.7,2.8l15.3,60.9l66.3,14.6c0.5,0.1,46.6,11.7,106.8-5.2
	c4-1.1,8-2.1,11.9-2.9c1.4-0.3,2.8-0.6,4.2-0.7L973.3,407.5L973.3,407.5z"/>
<path class="st2" d="M796,246.9c0.1,0,0.1,0.1,0.2,0.1C796.2,247,796.1,246.9,796,246.9z"/>
<path class="st2" d="M797.3,248.5c0,0.1,0.1,0.1,0.1,0.2C797.4,248.7,797.4,248.6,797.3,248.5z"/>
<path class="st2" d="M793.2,253.1c0.1,0.1,0.1,0.1,0.2,0.1C793.3,253.2,793.3,253.1,793.2,253.1z"/>
<path class="st2" d="M303.8,237.2l-1.6,4.9l-38.8,121.5l125.8-45.4l0.2-0.1l2-0.7l12.7-34.3c-0.5-0.3-0.9-0.7-1.3-1.1
	c-1.3-1.2-2.1-2.8-2.5-4.6c-0.1-0.6-0.2-1.2-0.2-1.8c0-0.1,0-0.1,0-0.1L303.8,237.2z"/>
<path class="st2" d="M113.9,161.8l-1.8,4.7v0.1c-24.9,66.2-48,156.6-63.9,249.8c-1.5,8.9-3,17.6-4.4,26.3l84.9-30.6h0.1l3.9-1.4
	c0-0.2-0.1-0.3-0.1-0.5l-14.8-92.4l-0.5-3.1l86-23.8l0.5-0.1l1.6-0.5l16-42.9l0.9-2.4c0-0.1,0.1-0.2,0.1-0.3c0.6-1.4,2.3-2,3.7-1.4
	c1.4,0.6,2,2.3,1.4,3.7l-17.9,48l-2.1,0.6l-83.8,23.2l0.5,3.1l13.9,86.9l116.3-41.9l2.4-0.9l41.7-130.8L113.9,161.8z"/>
<path class="st2" d="M791.6,252.1c0.4,0.5,1,0.8,1.6,1c0.3,0.1,0.7,0.2,1,0.2c1.9,0,3.4-1.5,3.3-3.6c0-0.1,0-0.1,0-0.2
	c0,0,0-0.1,0-0.1v-0.2c-0.2-1-0.7-1.8-1.5-2.3c-0.2-0.1-0.4-0.2-0.6-0.3c-0.4-0.2-0.7-0.3-1.2-0.3c0,0-0.1,0-0.1,0
	c-0.2,0-0.5,0.1-0.7,0.1c-0.2,0.1-0.4,0.1-0.6,0.2c-0.2,0.1-0.4,0.3-0.6,0.4c-0.1,0.1-0.1,0.1-0.2,0.2s-0.2,0.2-0.3,0.3
	c-0.1,0.1-0.1,0.2-0.2,0.3c-0.1,0.1-0.1,0.2-0.2,0.3c-0.1,0.1-0.1,0.2-0.2,0.3c0,0.2-0.1,0.3-0.1,0.4c0,0.1-0.1,0.2-0.1,0.3
	c0,0.1,0,0.1,0,0.1c-0.1,0.2-0.1,0.4-0.1,0.7s0,0.6,0.1,0.9C791,251.3,791.3,251.7,791.6,252.1z"/>
<path class="st2" d="M857.5,402.7c49.5,10.3,70.6,6.8,70.8,6.7c8.8-1.7,86.2-16.6,108.3-25.5c1.3-0.6,2.6-1.4,3.7-2.4
	c10.5-9.5,12.9-37.7,12.9-58.9c0-3.9-0.1-7.5-0.2-10.8c-6.9-0.6-13.5-0.9-21.1-0.9h-0.2c-13.6,0-28.6,4.2-58.4,12.3
	c-23.2,6.1-45.9,13.6-68.1,22.7c-19.8,8.2-29.7,14-41.3,20.6c-7.4,4.2-15.1,8.7-26,14.1c0.1,0.6,0.3,1.4,0.4,2.2
	C840.4,390.2,845.4,400.2,857.5,402.7z"/>
<path class="st2" d="M1265.8,333.9c-1.2-1-2.7-1.5-4.2-1.7c-0.3-0.1-0.6-0.1-0.9-0.1c-0.6,0-1.1,0.1-1.7,0.2
	c-0.5,0.1-0.9,0.3-1.3,0.4c-0.6,0.2-1.2,0.5-1.7,0.9c-1.4,0.9-2.5,2.3-3.1,3.9c-0.4,0.9-0.6,2-0.6,3c0,2.8,1.4,5.4,3.7,7
	c0.6,0.4,1.3,0.7,2,1c0.8,0.4,1.8,0.5,2.7,0.5c1.5,0,3.1-0.4,4.4-1.2c0.1,0,0.1-0.1,0.2-0.1c0.7-0.5,1.3-1.1,1.9-1.7
	c1.1-1.2,1.8-2.7,1.9-4.2c0-0.4,0-0.8,0-1.2C1269.1,338,1267.8,335.5,1265.8,333.9z"/>
<path class="st2" d="M1285,326l3.4,5.9l5.6-9.8c4.3-1.8,8.3-3.5,12.2-5c39.3-15,64.9-20.9,122-30.9c42.8-7.5,77.6-9,140.7-11.9
	c11.5-0.6,32.8-1,59.8-1.5c1.4-0.1,2.8-0.1,4.2-0.1l-12-68.9l-24.6-1.9l-135.9-10.4c-0.3,0.1-0.6,0.3-0.9,0.5L1281,241.8
	c0,0.6,0,1.2-0.1,1.8c-0.1,0.5-0.1,0.9-0.2,1.4v0.1c-1.4,12.2-4.5,28.9-7.5,45.1c-1.9,9.8-3.7,19.8-5.2,28.6c4.9,1.6,9.1,4.8,12,9.1
	C1281.7,327.3,1283.4,326.7,1285,326z"/>
<path class="st2" d="M1619.8,198l-13-74.2c-57.4,8-104,12.1-142.9,14.1v0.1v4v43.6v0.4l151.6,11.7L1619.8,198z"/>
<path class="st2" d="M1547.1,293.7c1.5-1.5,2.8-2.9,4.1-4.2c-54.9,2.5-84.1,4.5-120.4,10.9c-57,10-80.9,15.5-119.4,30.1
	c-5.8,2.2-11.8,4.8-18.5,7.9c-3,1.4-6,2.6-9.1,3.6c0,0.1,0,0.1,0,0.1c0,1-0.2,2-0.4,3c0,0.1,0,0.1,0,0.1c-0.8,3.6-2.4,7.1-4.7,10
	l184.4,59.9l1.5,0.5c8.7-21.6,21.1-44.1,37-66.7c7.3-10.3,14.6-19.8,21.6-28.3C1532.1,309.8,1540.4,300.7,1547.1,293.7z"/>
<path class="st2" d="M1054.8,370.5c-0.2,0.4-0.3,0.9-0.5,1.3c-0.4,1.1-0.9,2.2-1.3,3.2c0,0.1,0,0.1,0,0.1c-1.7,4.1-4.1,7.8-7.2,11
	c-0.2,0.1-0.3,0.3-0.5,0.4c-1.8,1.6-3.7,2.9-5.9,3.8c-11.6,4.7-36.9,10.7-60.5,15.9l0.7,3.3l12.8,62.4c40.5-6.3,71.7,3.3,87.9,10.3
	c8.7,3.8,17.8,6.7,27.1,8.6l11.8,2.4h0.2l3.3,0.7h0.1h0.1h0.1l-1.1-25l-0.2-4.6l23.9-61.1v-0.1l0.6-1.5l-91.4-31.3
	C1054.8,370.4,1054.8,370.4,1054.8,370.5z"/>
<path class="st2" d="M1687,286.7c-53.5,0.6-98.9,1.4-117.6,2.2c-1,0-1.9,0-2.9,0.1c-10.9,10.7-21.3,21.8-31.2,33.4
	c-1.5,1.8-3,3.6-4.5,5.4c-3.3,4-6.7,8.2-10.1,12.7l191.1,67.4l4.9,1.9l-0.1-0.2L1687,286.7z"/>
<polygon class="st2" points="1709.9,357.7 1709.9,357.8 1710.9,361.9 1710.9,362 1723,411.8 1881.9,467.9 1887.4,469.9 
	1849.8,357.7 "/>
<path class="st2" d="M1620.8,129.7l0.1,0.3l24.8,142.4c10.6-0.1,22-0.3,33.7-0.4h4.2h0.2l-12.1-56l-0.7-3.2l5.4-1.3l56.8-12.7
	c0.1-0.1,0.2-0.1,0.3-0.1c1.5-0.2,3,0.8,3.2,2.3s-0.8,3-2.3,3.2l-1.6,0.3l-55.3,12.3h-0.1v0.1l0.7,3.2v0.1l11.1,51.5
	c21.1-0.1,43.5-0.4,65.9-0.6c0.1,0,0.1,0,0.1,0h4.8h0.4l-2.7-0.9l22.6-74.4c-2.5-1.5-4.1-4.1-4.2-7l-156.4-65.2l0.1,0.3
	L1620.8,129.7z"/>
<path class="st2" d="M1781.8,189.9c0,0.1,0,0.1,0.1,0.2c0.3,0.6,0.9,1,1.5,1.2c0.3,0,0.5,0.1,0.7,0.1h0.3c0.3,0,0.7-0.1,1-0.2
	c0.2,0,0.3-0.1,0.5-0.2c0.9-0.6,1.4-1.5,1.4-2.5c0-0.8-0.4-1.6-1-2.2c-0.3-0.3-0.6-0.5-1-0.6c-0.2,0-0.5-0.1-0.8-0.1
	c-0.4,0-0.7,0.1-1.1,0.2c-0.4,0.1-0.8,0.3-1.1,0.5c-0.5,0.6-0.8,1.4-0.9,2.2C1781.3,189,1781.6,189.5,1781.8,189.9z"/>
<path class="st2" d="M1692.5,286.5l1,4.1l15.9,65.6v-4h139.5v-0.1v-62.6v-4.4c-48,0.3-105.2,0.7-156.2,1.4
	C1692.7,286.5,1692.6,286.5,1692.5,286.5z"/>
<path class="st2" d="M1778.7,182.4c0.9-0.9,2.1-1.6,3.3-2l-7.9-95.3c-39.2,10.5-61.5,31.1-72.8,45.4c-7,8.8-9.8,15.3-9.9,15.6
	l87,36.2L1778.7,182.4z"/>
<path class="st4" d="M771.6,391.2L771.6,391.2c-0.1-0.2-0.1-0.4-0.2-0.6l-4.7-18.1l-0.3-1.1l-0.2-0.7l-25.6-98.4L446.1,172.1
	l-0.5,1.7l-0.7,2.1l292.5,99.5l25.6,98.4l0.2,0.7l0.3,1.1l4.4,16.8c1.2-0.4,2.3-0.7,3.5-1.1L771.6,391.2z"/>
<path class="st11" d="M791.7,247.6c0.1-0.1,0.2-0.2,0.3-0.3C791.8,247.4,791.8,247.5,791.7,247.6z"/>
<path class="st11" d="M791.3,248.1c0.1-0.1,0.1-0.2,0.2-0.3C791.3,247.9,791.3,248,791.3,248.1z"/>
<path class="st11" d="M792,256.9L792,256.9C792,256.9,792,256.9,792,256.9C792,256.9,792,256.9,792,256.9z"/>
<path class="st11" d="M797.5,249.4c0,0.1,0,0.1,0,0.2V249.4z"/>
<path class="st11" d="M797.5,249.4L797.5,249.4v0.2V249.4z"/>
<path class="st2" d="M303.8,237.2l-1.6,4.9l-38.8,121.5l125.8-45.4l0.2-0.1l2-0.7l12.7-34.3c-0.5-0.3-0.9-0.7-1.3-1.1
	c-1.3-1.2-2.1-2.8-2.5-4.6c-0.1-0.6-0.2-1.2-0.2-1.8c0-0.1,0-0.1,0-0.1L303.8,237.2z"/>
<polygon class="st2" points="262.6,369.9 262.5,369.9 263.9,372.3 299.6,435.5 431.5,408.1 436.5,407.1 436.5,407 392.1,323.2 "/>
<path class="st2" d="M113.9,161.8l-1.8,4.7v0.1c-24.9,66.2-48,156.6-63.9,249.8c-1.5,8.9-3,17.6-4.4,26.3l84.9-30.6h0.1l3.9-1.4
	c0-0.2-0.1-0.3-0.1-0.5l-14.8-92.4l-0.5-3.1l86-23.8l0.5-0.1l1.6-0.5l16-42.9l0.9-2.4c0-0.1,0.1-0.2,0.1-0.3c0.6-1.4,2.3-2,3.7-1.4
	c1.4,0.6,2,2.3,1.4,3.7l-17.9,48l-2.1,0.6l-83.8,23.2l0.5,3.1l13.9,86.9l116.3-41.9l2.4-0.9l41.7-130.8L113.9,161.8z"/>
<path class="st2" d="M429,381.1l1.6,3l11.9,22.4c0.7,0.4,1.2,1.1,1.4,1.9c0.1,0.3,0.1,0.5,0.1,0.8l33.1,62.6
	c6.4-2.6,12.9-5.3,19.4-7.8c34.5-13.5,69.8-24.9,105.7-34.2c1.5-0.4,2.8-0.7,4-1L586,344.3L429,381.1z"/>
<path class="st2" d="M857.5,402.7c49.5,10.3,70.6,6.8,70.8,6.7c8.8-1.7,86.2-16.6,108.3-25.5c1.3-0.6,2.6-1.4,3.7-2.4
	c10.5-9.5,12.9-37.7,12.9-58.9c0-3.9-0.1-7.5-0.2-10.8c-6.9-0.6-13.5-0.9-21.1-0.9h-0.2c-13.6,0-28.6,4.2-58.4,12.3
	c-23.2,6.1-45.9,13.6-68.1,22.7c-19.8,8.2-29.7,14-41.3,20.6c-7.4,4.2-15.1,8.7-26,14.1c0.1,0.6,0.3,1.4,0.4,2.2
	C840.4,390.2,845.4,400.2,857.5,402.7z"/>
<path class="st2" d="M771.6,391.3L771.6,391.3L771.6,391.3c-0.1-0.3-0.1-0.5-0.2-0.7l-4.7-18.1l-0.3-1.1l-0.2-0.7l-25.6-98.4
	L446.1,172.1l-0.5,1.7l-0.7,2.1l-29.6,92.6c1.6,1.4,2.7,3.2,3.1,5.2c0.5,2.4,0.1,4.9-1.3,7c-0.7,1.1-1.6,2-2.7,2.7
	c-0.9,0.7-2,1.1-3.1,1.3c-0.6,0.1-1.2,0.2-1.8,0.2l-1.5,3.9l-11.4,30.8l29.9,56.4l151.4-35.4l5.8-1.4l-0.1-0.2l-22.1-26.6
	c-0.1-0.1-0.1-0.2-0.2-0.3c-0.7-1.1-0.5-2.7,0.6-3.6c0.1-0.1,0.1-0.1,0.1-0.1c1.1-0.9,2.8-0.8,3.8,0.4l25,30.2l21,88.3
	c14.2-3.6,28.6-6.5,43.1-8.6c11.5-1.8,23.3-3.7,47.4-9.4c24.7-5.9,45.4-10.8,64.9-16.7c0.2-0.1,0.5-0.1,0.7-0.2l0.3,1.3
	c0.1,0.2,0.1,0.4,0.2,0.6v0.1c0.6,1.2,1.8,1.9,3.1,1.9c0.3,0,0.6,0,0.9-0.1c1.5-0.4,2.4-1.6,2.6-3c-0.1,0-0.2,0-0.3,0
	C773.4,393.2,772.2,392.5,771.6,391.3z"/>
<path class="st2" d="M302.9,230.9c0.3,0,0.5,0.1,0.7,0.3l98.2,39.1c1.1-1.6,2.7-2.8,4.5-3.4c0.3-0.1,0.5-0.3,1-0.3s0.9-0.1,1.3-0.1
	v-0.1l29.8-93.3l1.5-4.8l-0.5-0.5L280.4,8.2l-2.4,5l-0.1,0.1l-33.1,66.8l76.6,35l-32.6,72.1c-0.4,1-1.3,1.6-2.3,1.7h-0.1h-0.1
	c-0.4-0.1-0.7-0.2-1.1-0.3c-0.3-0.2-0.7-0.4-0.9-0.7c-0.7-0.8-1-2-0.5-3l30.3-67.1l-0.1-0.1L242.4,85l-2.3,4.7L192,186.9l110.6,43.9
	C302.7,230.8,302.8,230.8,302.9,230.9z"/>
<path class="st2" d="M797.3,248.5c0,0.1,0.1,0.1,0.1,0.2C797.4,248.7,797.4,248.6,797.3,248.5z"/>
<path class="st2" d="M793.2,253.1c0.1,0.1,0.1,0.1,0.2,0.1C793.3,253.2,793.3,253.1,793.2,253.1z"/>
<path class="st2" d="M409.3,272.5c-0.2,0-0.4,0-0.6,0.1c-1.3,0.3-2.3,1.5-2.3,2.9c0,0.1,0,0.3,0,0.5s0.1,0.5,0.2,0.7
	c0,0.2,0.1,0.3,0.2,0.4c0.4,0.6,0.9,1,1.6,1.2h0.1c0.4,0.2,0.9,0.2,1.4,0.1c0.8-0.2,1.5-0.6,1.9-1.3c0.3-0.6,0.5-1.2,0.4-1.9
	c0-0.1,0-0.2,0-0.3C412,273.5,410.8,272.5,409.3,272.5z"/>
<path class="st2" d="M791.6,252.1c0.4,0.5,1,0.8,1.6,1c0.3,0.1,0.7,0.2,1,0.2c1.9,0,3.4-1.5,3.3-3.6c0-0.1,0-0.1,0-0.2
	c0,0,0-0.1,0-0.1v-0.2c-0.2-1-0.7-1.8-1.5-2.3c-0.2-0.1-0.4-0.2-0.6-0.3c-0.4-0.2-0.7-0.3-1.2-0.3c0,0-0.1,0-0.1,0
	c-0.2,0-0.5,0.1-0.7,0.1c-0.2,0.1-0.4,0.1-0.6,0.2c-0.2,0.1-0.4,0.3-0.6,0.4c-0.1,0.1-0.1,0.1-0.2,0.2s-0.2,0.2-0.3,0.3
	c-0.1,0.1-0.1,0.2-0.2,0.3c-0.1,0.1-0.1,0.2-0.2,0.3c-0.1,0.1-0.1,0.2-0.2,0.3c0,0.2-0.1,0.3-0.1,0.4c0,0.1-0.1,0.2-0.1,0.3
	c0,0.1,0,0.1,0,0.1c-0.1,0.2-0.1,0.4-0.1,0.7s0,0.6,0.1,0.9C791,251.3,791.3,251.7,791.6,252.1z"/>
<path class="st2" d="M973.3,407.5c-19.6,4.2-37.3,7.6-43.6,8.8c-4.2,0.6-8.5,0.9-12.8,0.8c-11.6,0-31.4-1.4-60.7-7.5
	c-14.9-3.2-21.9-15.5-24.7-25.8c-16.2,7.6-32.9,14.2-49.9,19.7l0.7,2.8l15.3,60.9l66.3,14.6c0.5,0.1,46.6,11.7,106.8-5.2
	c4-1.1,8-2.1,11.9-2.9c1.4-0.3,2.8-0.6,4.2-0.7L973.3,407.5L973.3,407.5z"/>
<path class="st2" d="M796,246.9c0.1,0,0.1,0.1,0.2,0.1C796.2,247,796.1,246.9,796,246.9z"/>
<path class="st2" d="M1687,286.7c-53.5,0.6-98.9,1.4-117.6,2.2c-1,0-1.9,0-2.9,0.1c-10.9,10.7-21.3,21.8-31.2,33.4
	c-1.5,1.8-3,3.6-4.5,5.4c-3.3,4-6.7,8.2-10.1,12.7l191.1,67.4l4.9,1.9l-0.1-0.2L1687,286.7z"/>
<path class="st2" d="M1265.8,333.9c-1.2-1-2.7-1.5-4.2-1.7c-0.3-0.1-0.6-0.1-0.9-0.1c-0.6,0-1.1,0.1-1.7,0.2
	c-0.5,0.1-0.9,0.3-1.3,0.4c-0.6,0.2-1.2,0.5-1.7,0.9c-1.4,0.9-2.5,2.3-3.1,3.9c-0.4,0.9-0.6,2-0.6,3c0,2.8,1.4,5.4,3.7,7
	c0.6,0.4,1.3,0.7,2,1c0.8,0.4,1.8,0.5,2.7,0.5c1.5,0,3.1-0.4,4.4-1.2c0.1,0,0.1-0.1,0.2-0.1c0.7-0.5,1.3-1.1,1.9-1.7
	c1.1-1.2,1.8-2.7,1.9-4.2c0-0.4,0-0.8,0-1.2C1269.1,338,1267.8,335.5,1265.8,333.9z"/>
<path class="st2" d="M1285,326l3.4,5.9l5.6-9.8c4.3-1.8,8.3-3.5,12.2-5c39.3-15,64.9-20.9,122-30.9c42.8-7.5,77.6-9,140.7-11.9
	c11.5-0.6,32.8-1,59.8-1.5c1.4-0.1,2.8-0.1,4.2-0.1l-12-68.9l-24.6-1.9l-135.9-10.4c-0.3,0.1-0.6,0.3-0.9,0.5L1281,241.8
	c0,0.6,0,1.2-0.1,1.8c-0.1,0.5-0.1,0.9-0.2,1.4v0.1c-1.4,12.2-4.5,28.9-7.5,45.1c-1.9,9.8-3.7,19.8-5.2,28.6c4.9,1.6,9.1,4.8,12,9.1
	C1281.7,327.3,1283.4,326.7,1285,326z"/>
<path class="st2" d="M1547.1,293.7c1.5-1.5,2.8-2.9,4.1-4.2c-54.9,2.5-84.1,4.5-120.4,10.9c-57,10-80.9,15.5-119.4,30.1
	c-5.8,2.2-11.8,4.8-18.5,7.9c-3,1.4-6,2.6-9.1,3.6c0,0.1,0,0.1,0,0.1c0,1-0.2,2-0.4,3c0,0.1,0,0.1,0,0.1c-0.8,3.6-2.4,7.1-4.7,10
	l184.4,59.9l1.5,0.5c8.7-21.6,21.1-44.1,37-66.7c7.3-10.3,14.6-19.8,21.6-28.3C1532.1,309.8,1540.4,300.7,1547.1,293.7z"/>
<polygon class="st2" points="1709.9,357.7 1709.9,357.8 1710.9,361.9 1710.9,362 1723,411.8 1881.9,467.9 1887.4,469.9 
	1849.8,357.7 "/>
<path class="st2" d="M1692.5,286.5l1,4.1l15.9,65.6v-4h139.5v-0.1v-62.6v-4.4c-48,0.3-105.2,0.7-156.2,1.4
	C1692.7,286.5,1692.6,286.5,1692.5,286.5z"/>
<path class="st2" d="M1054.8,370.5c-0.2,0.4-0.3,0.9-0.5,1.3c-0.4,1.1-0.9,2.2-1.3,3.2c0,0.1,0,0.1,0,0.1c-1.7,4.1-4.1,7.8-7.2,11
	c-0.2,0.1-0.3,0.3-0.5,0.4c-1.8,1.6-3.7,2.9-5.9,3.8c-11.6,4.7-36.9,10.7-60.5,15.9l0.7,3.3l12.8,62.4c40.5-6.3,71.7,3.3,87.9,10.3
	c8.7,3.8,17.8,6.7,27.1,8.6l11.8,2.4h0.2l3.3,0.7h0.1h0.1h0.1l-1.1-25l-0.2-4.6l23.9-61.1v-0.1l0.6-1.5l-91.4-31.3
	C1054.8,370.4,1054.8,370.4,1054.8,370.5z"/>
<path class="st2" d="M1781.8,189.9c0,0.1,0,0.1,0.1,0.2c0.3,0.6,0.9,1,1.5,1.2c0.3,0,0.5,0.1,0.7,0.1h0.3c0.3,0,0.7-0.1,1-0.2
	c0.2,0,0.3-0.1,0.5-0.2c0.9-0.6,1.4-1.5,1.4-2.5c0-0.8-0.4-1.6-1-2.2c-0.3-0.3-0.6-0.5-1-0.6c-0.2,0-0.5-0.1-0.8-0.1
	c-0.4,0-0.7,0.1-1.1,0.2c-0.4,0.1-0.8,0.3-1.1,0.5c-0.5,0.6-0.8,1.4-0.9,2.2C1781.3,189,1781.6,189.5,1781.8,189.9z"/>
<path class="st2" d="M1778.7,182.4c0.9-0.9,2.1-1.6,3.3-2l-7.9-95.3c-39.2,10.5-61.5,31.1-72.8,45.4c-7,8.8-9.8,15.3-9.9,15.6
	l87,36.2L1778.7,182.4z"/>
<path class="st2" d="M1620.8,129.7l0.1,0.3l24.8,142.4c10.6-0.1,22-0.3,33.7-0.4h4.2h0.2l-12.1-56l-0.7-3.2l5.4-1.3l56.8-12.7
	c0.1-0.1,0.2-0.1,0.3-0.1c1.5-0.2,3,0.8,3.2,2.3s-0.8,3-2.3,3.2l-1.6,0.3l-55.3,12.3h-0.1v0.1l0.7,3.2v0.1l11.1,51.5
	c21.1-0.1,43.5-0.4,65.9-0.6c0.1,0,0.1,0,0.1,0h4.8h0.4l-2.7-0.9l22.6-74.4c-2.5-1.5-4.1-4.1-4.2-7l-156.4-65.2l0.1,0.3
	L1620.8,129.7z"/>
<path class="st2" d="M1619.8,198l-13-74.2c-57.4,8-104,12.1-142.9,14.1v0.1v4v43.6v0.4l151.6,11.7L1619.8,198z"/>
<polygon class="st12" points="441.7,162 442.8,163.2 581.9,0 579.8,0 "/>
<path class="st13" d="M1894,472.6l-39.6-117.8v-69.3c0.1,0,0.1,0,0.2,0c25.4-0.1,48-0.2,65.3-0.2V285v-14.4
	c-36.4-0.1-96.4,0.2-156.9,0.7l21.5-70.8l1-3.4h0.1c1-0.2,2-0.6,3-1.1l0.1-0.1c0.2-0.2,0.5-0.3,0.7-0.5c0.1-0.1,0.2-0.2,0.3-0.3
	c0.3-0.3,0.6-0.5,0.8-0.8c0.8-0.9,1.4-1.9,1.7-3.1h0.1l127.6-4.8v-0.2v-5.4l-45.4,1.7v-73.8c0-1.5-1.2-2.8-2.8-2.8
	c-1.5,0-2.8,1.2-2.8,2.8v1.2v72.7v0.2l-3.5,0.1l-73.3,2.8c-0.8-2.2-2.6-4-4.8-4.8l-7.7-93.7l-0.3-3.3c0.1,0,0.3-0.1,0.4-0.1
	c41.5-10.1,100.5-18.5,140.2-23.6v-0.1v-5.6c-5.2,0.7-10.8,1.4-16.7,2.2c0-0.1-0.1-0.1-0.1-0.2l-25-56.2h-5.7h-0.5l25.4,57.1
	l0.1,0.2c-1.7,0.2-3.3,0.5-5,0.7c-36.6,5.1-80.6,12.1-113.6,20.1L1772.6,0h-5.5l6.6,79.4c-0.3,0.1-0.6,0.2-0.9,0.2
	c-1,0.3-1.9,0.5-2.8,0.8h-0.1c-15,4.3-27.5,10-37.7,16.1l-4.3,7.5l-2-3.5c-8.8,5.9-15.6,11.8-20.8,17.1c-2.9,2.9-5.6,6-8.2,9.2
	c-0.4,0.5-0.7,0.9-1.1,1.4c-6.8,8.9-9.5,15.2-9.7,15.6l2.6,1.1l-2.6-1l-1.1-0.5l-66.7-27.8L1622.4,0h-12.3h-0.1l-3.8,104.7v0.1
	c-1-1.1-2.1-2.4-3.2-3.6c-12.7-14.5-34.5-38.7-57.7-63c-14.1-14.7-26.8-27.4-38.1-38.1h-10.2h-0.1c36.1,33.7,80.8,82.9,105.9,111.7
	l-6.3,0.9h-0.1c-53.4,7.2-97.2,10.9-133.9,12.9l-12-82.8c0-0.1-0.1-0.6-0.1-0.8l41.8-42h-9l-37.2,37.4l-2.6,3l0.5,3.6l11.8,81.7
	c0,0.1,1.2,11.6,1.3,12.5c0,15.6,0,31.3,0,46.9l-3.5,1l-172.4,48.1c0,0-7.2,1.8-7.2,1.9c0,2.4-0.1,4.9-0.3,6.5
	c-0.9,12.1-4.4,29.2-7.5,46c-1.9,10.1-3.8,20-5.2,28.8h-0.3c-0.8,0-1.6,0.1-2.4,0.1h-0.1c-6.9,0.8-13,4.7-16.8,10.5
	c-1.1,1.8-2,3.6-2.7,5.6h-1.6h-0.1c-14.6-0.3-32.3-2.6-53.3-8.4c-6.5-1.8-11.8-3.3-16.4-4.6c-21.9-6.1-25.3-7-49.9-12.3
	c-42.3-9-58.4-12-84.4-12.1l-7.3,0.4c-1.6,0.1-3.2,0.3-4.8,0.5c-12.7,1.5-27.5,5.5-51.4,12.1c-23.8,6.2-47.1,14-69.9,23.3
	c-14.8,6.1-29.2,13.2-43,21.4c-7.6,4.3-15.3,8.8-26.5,14.3c-16.8,8.3-34.1,15.3-51.9,21.1c0-0.2,0-0.3-0.1-0.5L748,273.1l-0.4-1.7
	c22-8.6,33.9-13.4,40.3-15.9c0.1,0,0.2-0.1,0.3-0.2c0.2-0.1,0.3-0.1,0.5-0.2c0.1,0,0.2-0.1,0.2-0.1l0.7,0.6c0.7,0.6,1.5,1,2.3,1.2
	h0.1c0.6,0.2,1.4,0.3,2.1,0.3h0.3c2.9,7.2,7.7,20.1,11.9,32l0.3,0.9l0.8,0.5c6.1,3.7,15,8.8,20.9,12.1c2.4,1.4,4.7,2.6,5.6,3.1
	c1.3,1.9,6.5,11.9,11,21.1l4.6,9.4c0.2,0.6,0.7,1,1.3,1.2c0.2,0.1,0.3,0.1,0.5,0.2c0.1,0.1,0.3,0.1,0.5,0.1c0.1,0,0.1,0,0.2,0
	c0.4,0,0.9-0.1,1.3-0.3c1.5-0.6,2.1-2.2,1.4-3.6l-4.6-9.4c0-0.1,0-0.1-0.1-0.1c-10.6-21.4-11.8-22.4-12.4-22.8
	c-0.3-0.3-1-0.7-6.4-3.7c-5.6-3.2-13.9-7.9-19.8-11.5c-0.9-2.6-3.8-10.4-6.6-18.1c-2.3-6.2-4-10.4-5.2-13.5c1.2-1.4,1.9-3.1,1.9-4.9
	c0-4-3.3-7.3-7.3-7.3c-2.7,0-5.2,1.5-6.4,3.9c-0.2,0.4-0.4,0.8-0.6,1.2v0.1c-0.2,0.7-0.3,1.4-0.4,2.2c-0.8,0.3-1.6,0.6-2.5,1
	c-0.1,0-0.2,0.1-0.3,0.1c0,0,0,0,0,0c-9.9,4-26.2,10.4-38.6,15.2l-6.3-1.8L449.6,166L591.1,0h-9.2L442.8,163.2L324.5,44.4l-1.5,2.5
	l-6.2-10.8l-0.3,0.3L280.2,0h-7.8h-0.1l3.9,3.9l-89.5,180.8l-0.4-0.2l-0.7-0.3l-0.1-0.1l-71.2-28.3c-0.3-0.2-0.6-0.4-0.9-0.6
	c-0.3-0.2-0.7-0.2-1-0.2l-86.1-34.3h-0.1l-0.6-0.3h-0.1c26.4-24.5,62-58.3,87.5-85.3c2.3-2.4,4.5-4.8,6.6-7.1c1.3-1.4,2.5-2.7,3.7-4
	c8-8.8,16.8-16.8,26.2-24H133c-6.2,5.3-12,11-17.5,17C89.3,46.1,44.8,88.3,14.8,116.3l-14.5-5.8v6l9.9,3.9L6,124.3
	c0,0-0.1,0-0.1,0.1c-2,1.8-3.8,3.6-5.6,5.1v0.1v14.1c0.9-0.8,1.9-1.7,2.9-2.7c4.7-4.3,10.5-9.6,17-15.7c0.3-0.2,0.5-0.5,0.8-0.7
	l87.8,35C83,226.5,59,319.5,42.8,415.3c-1.7,10-3.3,19.8-4.7,29.4H38l-2.9,1.1H35L0.3,458.4v5.9L37.2,451v0.1
	c-2.6,17-4.6,32.9-6.3,48h5.6c1.6-14.8,3.7-30.5,6.1-47V452c0.2-1,0.3-2,0.5-3l107.1-38.6l107.1-38.7l36.7,65l-4.9,1.7l-69.8,25
	c-1.4,0.5-2.2,2-1.7,3.4v0.1c0.4,1.1,1.4,1.9,2.6,1.9c0.3,0,0.6-0.1,0.9-0.1l75.3-26.8c0.1-0.1,0.2-0.1,0.3-0.1l15.5,27.4
	c0.3,0.5,0.7,0.9,1.2,1.1c0.4,0.2,0.8,0.3,1.3,0.3s1-0.1,1.4-0.3c1.3-0.8,1.8-2.5,1-3.8l-12.8-22.7l-1.7-3.1l136.9-28.4l32.7,61.7
	v0.1c-1.6,0.7-3.1,1.3-4.6,2c-16.8,7.2-33.5,14.9-49.9,23.1h34c0.1,0,0.1-0.1,0.2-0.1c12.3-5.7,24.8-11,37.3-16.1l4.3,16.1v0.1h7.2
	l-4.4-16.2l-0.7-2.5c0,0,0,0,0.1,0c2.2-0.8,4.2-1.7,6.3-2.5c35.8-14,72.5-25.8,109.8-35.2c15-3.8,30.1-6.9,45.4-9.2
	c11.8-1.8,23.9-3.8,48.5-9.6c25.8-6.1,48.1-11.4,69.3-18l15.9,63.3v0.2l-3.6,3.6l-26.2,26.2h9.9l0.3-0.3l24.6-24.6l66.3,14.6
	c2.8,0.7,48.8,12,110.4-5.2c48.9-13.7,86.7-2.6,104.8,5.3c9.2,4,18.7,7,28.5,9.1l4.5,0.9l1.5,0.3h34.9l-20.4-4.1l-1.3-29.8
	l25.5-65.6l-95.1-32.6c2.1-8,3.4-16.2,4-24.4c0.6-8.4,0.8-16.9,0.6-25.3c0-1.7-0.1-3.3-0.1-4.7h0.1c13.3,1.7,28.8,4.7,54.4,10.2
	c24.2,5.2,27.5,6.1,49,12c4.5,1.3,10,2.8,16.5,4.6c23.2,6.4,42.8,8.8,59.1,8.9c2.3,6.6,7.5,11.8,14.1,14.1
	c-4.9,12-14.1,31.8-31.1,64.8c-17.8,34.6-36,67.6-37.6,70.6c-0.1,0.1-0.1,0.2-0.1,0.2l1.5,0.8l0.5,0.3h5.4c2.4-4.4,8-14.7,15.2-28.1
	l0.1-0.3l2.6-4.8l27.4,32.9l0.3,0.3h7.2l-32.1-38.5c5-9.4,10.4-19.8,15.8-30.2c15.8-30.6,24.9-50.1,30.1-62.6
	c0.1-0.1,0.1-0.3,0.2-0.4c0.5-1.3,1.1-2.6,1.5-3.7h0.6c4.7,0,9.4-1.4,13.2-4.2l188.5,61.4l-0.3,0.9c-1.9,5.1-3.6,10.2-5.1,15.2
	c-6.3,21.5-8.7,42.2-7.2,61.8c0,0.1,0,0.2,0,0.3h10.5c-4.7-53.6,24.1-107.6,49.6-143.9c1.3-1.9,2.7-3.8,4-5.7
	c0.1-0.1,0.2-0.2,0.3-0.3c1-1.4,1.9-2.7,2.8-4l88,31.1l-20.9,53.9c0,0.1,0,0.1-0.1,0.2c-0.5,1.3,0.1,2.8,1.4,3.3
	c0.1,0,0.2,0.1,0.2,0.1c0.3,0.1,0.7,0.2,1.1,0.2c0.9,0,1.8-0.5,2.3-1.2c0.1-0.2,0.2-0.4,0.3-0.6l19.1-49.3l1.8-4.8h0.1l105.6,37.3
	l-13,83.4v0.2h5.6l11.9-76.6l0.8-5.1l0.2,0.1l83.6,29.5l-6.2,51.9v0.2h5.6l5.4-45.1l0.6-5.2l0.2,0.1l109.4,38.6v-0.3v-5.6
	L1894,472.6z M797.4,248.7c0-0.1-0.1-0.1-0.1-0.2C797.4,248.6,797.4,248.7,797.4,248.7z M790.9,249.2
	C790.9,249.2,790.9,249.2,790.9,249.2c0-0.2,0.1-0.3,0.1-0.4c0-0.1,0.1-0.2,0.1-0.4c0.1-0.1,0.1-0.2,0.2-0.3
	c0.1-0.1,0.1-0.2,0.2-0.3c0.1-0.1,0.1-0.2,0.2-0.3c0.1-0.1,0.2-0.2,0.3-0.3s0.1-0.1,0.2-0.2c0.2-0.1,0.4-0.3,0.6-0.4
	c0.2-0.1,0.4-0.1,0.6-0.2c0.2,0,0.5-0.1,0.7-0.1c0,0,0.1,0,0.1,0c0.4,0,0.8,0.1,1.2,0.3c0.2,0.1,0.4,0.2,0.6,0.3
	c0.1,0,0.2,0.1,0.2,0.1c-0.1,0-0.1-0.1-0.2-0.1c0.8,0.5,1.3,1.3,1.5,2.3v0.2c0,0,0,0.1,0,0.1c0,0.1,0,0.1,0,0.2
	c0.1,2.1-1.4,3.6-3.3,3.6c-0.3,0-0.7-0.1-1-0.2c0.1,0,0.1,0.1,0.2,0.1c-0.1,0-0.1,0-0.2-0.1c-0.6-0.2-1.2-0.5-1.6-1
	c-0.3-0.4-0.6-0.8-0.7-1.3c-0.1-0.3-0.1-0.6-0.1-0.9S790.8,249.4,790.9,249.2z M240,89.7l2.3-4.7l71.6,32.7l0.1,0.1l-30.3,67.1
	c-0.5,1-0.2,2.2,0.5,3c0.2,0.3,0.6,0.5,0.9,0.7c0.4,0.1,0.7,0.2,1.1,0.3h0.1h0.1c1-0.1,1.9-0.7,2.3-1.7l32.6-72.1l-76.6-35
	l33.1-66.8l0.1-0.1l2.4-5l159,159.6l0.5,0.5l-1.5,4.8l-29.8,93.3v0.1c-0.4,0-0.8,0.1-1.3,0.1s-0.7,0.2-1,0.3
	c-1.8,0.6-3.4,1.8-4.5,3.4l-98.2-39.1c-0.2-0.2-0.4-0.3-0.7-0.3c-0.1-0.1-0.2-0.1-0.3-0.1L192,186.9L240,89.7z M411.9,277.1
	c-0.4,0.7-1.1,1.1-1.9,1.3c-0.5,0.1-1,0.1-1.4-0.1h-0.1c-0.7-0.2-1.2-0.6-1.6-1.2c-0.1-0.1-0.2-0.2-0.2-0.4
	c-0.1-0.2-0.2-0.5-0.2-0.7s0-0.4,0-0.5c0-1.4,1-2.6,2.3-2.9c0.2-0.1,0.4-0.1,0.6-0.1c1.4,0,2.6,1,2.9,2.4c0,0.1,0,0.2,0,0.3
	C412.4,275.9,412.2,276.5,411.9,277.1z M400.3,277.4c0.4,1.8,1.2,3.4,2.5,4.6c0.4,0.4,0.8,0.8,1.3,1.1l-12.7,34.3l-2,0.7l-0.2,0.1
	l-125.8,45.4l38.8-121.5l1.6-4.9l96.3,38.3c0,0,0,0,0,0.1C400,276.2,400.2,276.8,400.3,277.4z M256.8,366l-2.4,0.9L138,408.8
	l-13.9-86.9l-0.5-3.1l83.8-23.2l2.1-0.6l17.9-48c0.6-1.4,0-3.1-1.4-3.7c-1.4-0.6-3.1,0-3.7,1.4c0,0.1-0.1,0.2-0.1,0.3l-0.9,2.4
	l-16,42.9l-1.6,0.5l-0.5,0.1l-86,23.8l0.5,3.1l14.8,92.4c0,0.2,0.1,0.3,0.1,0.5l-3.9,1.4h-0.1l-84.9,30.6c1.4-8.7,2.9-17.4,4.4-26.3
	c15.9-93.2,39-183.6,63.9-249.8v-0.1l1.8-4.7l184.6,73.4L256.8,366z M436.5,407.1l-5,1l-131.9,27.4l-35.7-63.2l-1.4-2.4h0.1
	l129.5-46.7L436.5,407.1L436.5,407.1z M602.3,429.8c-35.9,9.3-71.2,20.7-105.7,34.2c-6.5,2.5-13,5.2-19.4,7.8L444,409.2
	c0-0.3,0-0.5-0.1-0.8c-0.2-0.8-0.7-1.5-1.4-1.9l-11.9-22.4l-1.6-3l157-36.8l20.2,84.5C605,429.1,603.8,429.4,602.3,429.8z
	 M767.1,392.6c-19.5,5.9-40.2,10.8-64.9,16.7c-24.1,5.7-35.9,7.6-47.4,9.4c-14.5,2.1-28.9,5-43.1,8.6l-21-88.3l-25-30.2
	c-1-1.2-2.7-1.3-3.8-0.4c0,0,0,0-0.1,0.1c-1.1,0.9-1.3,2.5-0.6,3.6c0.1,0.1,0.1,0.2,0.2,0.3l22.1,26.6l0.1,0.2l-5.8,1.4L426.5,376
	l-29.9-56.4l11.4-30.8l1.5-3.9c0.6,0,1.2-0.1,1.8-0.2c1.1-0.2,2.2-0.6,3.1-1.3c1.1-0.7,2-1.6,2.7-2.7c1.4-2.1,1.8-4.6,1.3-7
	c-0.4-2-1.5-3.8-3.1-5.2l29.6-92.6l0.7-2.1l0.5-1.7l294.5,100.2l25.6,98.4l0.2,0.7l0.3,1.1l4.7,18.1c0.1,0.2,0.1,0.4,0.2,0.6v0
	l-0.2,0.1c-1.2,0.3-2.3,0.7-3.5,1.1C767.6,392.5,767.4,392.5,767.1,392.6z M864,366.5c11.6-6.6,21.5-12.4,41.3-20.6
	c22.2-9.1,44.9-16.6,68.1-22.7c29.8-8.1,44.8-12.3,58.4-12.3h0.2c7.6,0,14.2,0.3,21.1,0.9c0.1,3.3,0.2,6.9,0.2,10.8
	c0,21.2-2.4,49.4-12.9,58.9c-1.1,1-2.4,1.8-3.7,2.4c-22.1,8.9-99.5,23.8-108.3,25.5c-0.2,0.1-21.3,3.6-70.8-6.7
	c-12.1-2.5-17.1-12.5-19.2-19.9c-0.1-0.8-0.3-1.6-0.4-2.2C848.9,375.2,856.5,370.7,864,366.5z M982.5,473.7
	c-3.9,0.8-7.9,1.8-11.9,2.9c-60.2,16.9-106.3,5.3-106.8,5.2l-66.3-14.6l-15.3-60.9l-0.7-2.8c17-5.5,33.7-12.1,49.9-19.7
	c2.8,10.3,9.8,22.6,24.7,25.8c29.3,6.1,49.1,7.5,60.7,7.5c4.3,0.1,8.6-0.2,12.8-0.8c6.3-1.2,24-4.6,43.6-8.8h0.1l13.4,65.5
	C985.3,473.1,984,473.4,982.5,473.7z M1146.3,401.6l-0.6,1.5v0.1l-23.9,61.1l0.2,4.6l1.1,25h-0.1h-0.1h-0.1l-3.3-0.7h-0.2l-11.8-2.4
	c-9.3-1.9-18.4-4.8-27.1-8.6c-16.2-7-47.4-16.6-87.9-10.3l-12.8-62.4l-0.7-3.3c23.6-5.2,48.9-11.2,60.5-15.9
	c2.2-0.9,4.1-2.2,5.9-3.8c0.2-0.1,0.3-0.3,0.5-0.4c3.1-3.2,5.5-6.9,7.2-11c0,0,0,0,0-0.1c0.4-1,0.9-2.1,1.3-3.2
	c0.2-0.4,0.3-0.9,0.5-1.3c0-0.1,0-0.1,0-0.2L1146.3,401.6z M1848.9,285.1v4.4v62.6v0.1h-139.5v4l-15.9-65.6l-1-4.1
	c0.1,0,0.2,0,0.2,0C1743.8,285.8,1800.9,285.4,1848.9,285.1z M1783.3,185.8c0.4-0.1,0.7-0.2,1.1-0.2c0.3,0,0.6,0.1,0.8,0.1
	c0.4,0.1,0.7,0.3,1,0.6c0.6,0.6,1,1.4,1,2.2c0,1-0.5,1.9-1.4,2.5c-0.2,0.1-0.3,0.2-0.5,0.2c-0.3,0.1-0.7,0.2-1,0.2h-0.3
	c-0.2,0-0.4-0.1-0.7-0.1c-0.6-0.2-1.2-0.6-1.5-1.2c-0.1-0.1-0.1-0.1-0.1-0.2c-0.2-0.4-0.4-0.9-0.4-1.4c0.1-0.8,0.4-1.6,0.9-2.2
	C1782.6,186.1,1782.9,185.9,1783.3,185.8z M1701.3,130.5c11.3-14.3,33.6-34.9,72.8-45.4l7.9,95.3c-1.2,0.4-2.4,1.1-3.3,2l-0.3-0.1
	l-87-36.2C1691.4,145.8,1694.3,139.3,1701.3,130.5z M1776.1,188.8c0.1,2.9,1.7,5.5,4.2,7l-22.6,74.4l2.7,0.9h-0.4h-4.8
	c0,0,0,0-0.1,0c-22.4,0.2-44.8,0.5-65.9,0.6l-11.1-51.5v-0.1l-0.7-3.2v-0.1h0.1l55.3-12.3l1.6-0.3c1.5-0.2,2.5-1.7,2.3-3.2
	s-1.7-2.5-3.2-2.3c-0.1,0-0.2,0-0.3,0.1l-56.8,12.7l-5.4,1.3l0.7,3.2l12.1,56h-0.2h-4.2c-11.7,0.1-23.1,0.3-33.7,0.4L1620.8,130
	l-0.1-0.3l-1-5.8l-0.1-0.3L1776.1,188.8z M1463.9,185.6V142v-4v-0.1c38.9-2,85.5-6.1,142.9-14.1l13,74.2l-4.3-0.3L1463.9,186V185.6z
	 M1269.1,341.8c-0.1,1.5-0.8,3-1.9,4.2c-0.6,0.6-1.2,1.2-1.9,1.7c-0.1,0-0.1,0.1-0.2,0.1c-1.3,0.8-2.9,1.2-4.4,1.2
	c-0.9,0-1.9-0.1-2.7-0.5c-0.7-0.3-1.4-0.6-2-1c-2.3-1.6-3.7-4.2-3.7-7c0-1,0.2-2.1,0.6-3c0.6-1.6,1.7-3,3.1-3.9
	c0.5-0.4,1.1-0.7,1.7-0.9c0.4-0.1,0.8-0.3,1.3-0.4c0.6-0.1,1.1-0.2,1.7-0.2c0.3,0,0.6,0,0.9,0.1c1.5,0.2,3,0.7,4.2,1.7
	c2.1,1.6,3.3,4.1,3.3,6.7C1269.1,341,1269.1,341.4,1269.1,341.8z M1268.1,318.8c1.5-8.8,3.3-18.8,5.2-28.6c3-16.2,6.1-32.9,7.5-45.1
	V245c0.1-0.5,0.1-0.9,0.2-1.4c0.1-0.6,0.1-1.2,0.1-1.8l178.4-49.8c0.3-0.2,0.6-0.4,0.9-0.5l135.9,10.4l24.6,1.9l12,68.9
	c-1.4,0-2.8,0-4.2,0.1c-27,0.5-48.3,0.9-59.8,1.5c-63.1,2.9-97.9,4.4-140.7,11.9c-57.1,10-82.7,15.9-122,30.9
	c-3.9,1.5-7.9,3.2-12.2,5l-5.6,9.8l-3.4-5.9c-1.6,0.7-3.3,1.3-4.9,1.9C1277.2,323.6,1272.9,320.4,1268.1,318.8z M1501.6,348.9
	c-15.9,22.6-28.3,45.1-37,66.7l-1.5-0.5l-184.4-59.9c2.3-2.9,3.9-6.4,4.7-10c0,0,0,0,0-0.1c0.2-1,0.4-2,0.4-3c0,0,0,0,0-0.1
	c3.1-1,6.1-2.2,9.1-3.6c6.7-3.1,12.7-5.7,18.5-7.9c38.5-14.6,62.4-20.1,119.4-30.1c36.3-6.4,65.5-8.4,120.4-10.9
	c-1.3,1.3-2.6,2.7-4.1,4.2c-6.7,7-15,16.1-23.9,26.9C1516.2,329.1,1508.8,338.6,1501.6,348.9z M1711.8,407.9l-191.1-67.4
	c3.4-4.5,6.8-8.7,10.1-12.7c1.5-1.8,3-3.6,4.5-5.4c9.9-11.6,20.3-22.7,31.2-33.4c1-0.1,1.9-0.1,2.9-0.1c18.7-0.8,64.1-1.6,117.6-2.2
	l29.6,122.9l0.1,0.2L1711.8,407.9z M1881.9,467.9L1723,411.8l-12.1-49.8v-0.1l-1-4.1v-0.1h139.9l37.6,112.2L1881.9,467.9z"/>
<path class="st6" d="M75.1,433.1l6.9-12.2c0.5-0.8,0.8-1.7,1-2.6c0.1-0.3,0.1-0.6,0.2-1c0.3-2.3-0.2-4.6-1.4-6.5
	c-0.8-1.3-2-2.5-3.5-3.4c-1.4-0.8-3.1-1.3-4.7-1.3c-5.4,0-9.8,4.4-9.7,9.8c0,1.7,0.5,3.4,1.3,4.9l2.2,3.9l6.2,10.8L75.1,433.1z
	 M70.7,416.1c0-1.6,1.3-2.9,2.9-2.9s2.9,1.3,2.9,2.9s-1.3,2.9-2.9,2.9S70.7,417.7,70.7,416.1z"/>
<circle class="st7" cx="73.6" cy="416.1" r="2.9"/>
</svg>
