<svg id="Vrstva_1" data-name="Vrstva 1" xmlns="http://www.w3.org/2000/svg" viewBox="0 0 1500 2500"><defs><style>.cls-1{fill:#d3e7ec;}</style></defs><title>mobileKreslicí plátno 1</title><path class="cls-1" d="M338.9,417.1q25.94-11.39,44.63-37.37,38.78-53.89,25.75-105.65t-67.58-91a181.7,181.7,0,0,0-78.1-32.54,219.19,219.19,0,0,0-84.92,3l16.47,79.85q25.67-4.19,46.13-1.79a80.22,80.22,0,0,1,38,15q21.43,15.42,25.45,36.54T293.8,325.05q-10.28,14.29-28,21.76T215,361.94q-43.66,10-72.76,23T92.1,427.27q-3.74,5.21-10.85,17.82l77.93,56.07A65.79,65.79,0,0,1,165.54,491q16.82-23.38,40.94-33.62t64-19Q313,428.5,338.9,417.1Z"/><path class="cls-1" d="M9,627.65q23.38,16.82,50.64,11.8t45-29.7q17.75-24.67,13.85-52.13T91.24,513.38q-23.38-16.82-50.64-11.8-24,4.42-40.6,24V620A75,75,0,0,0,9,627.65Z"/><path class="cls-1" d="M1452.94,2078.6q-41.41-36.21-93.34-49.72a274,274,0,0,0-106-6.35l11,101.31q32.44-2.18,57.62,3.22a100.28,100.28,0,0,1,45.49,23.17q24.84,21.72,27.35,48.48t-18.56,50.85q-14.49,16.57-37.38,23.77t-65,12.87q-55.51,7.26-93.26,20.08T1113.48,2353q-5.27,6-15.61,20.89l90.34,79a82.37,82.37,0,0,1,9.12-12q23.7-27.1,54.92-37t81.83-16.12q54.08-7.17,87.71-18.29t60-41.23a236.12,236.12,0,0,0,18.39-23.83V2132.13Q1482.24,2104.22,1452.94,2078.6Z"/><path class="cls-1" d="M1102.22,2460q-27.1-23.7-61.63-20.67T981.06,2471a97.55,97.55,0,0,0-17.83,28.77H1128Q1121.67,2477.07,1102.22,2460Z"/><path class="cls-1" d="M247.42,1969.23q-19,30.59-19.94,62.48t6.48,76q5.53,33.55,5.39,52.77t-9.42,34.17q-13.49,21.75-34.56,26.1t-43.49-9.57a80.21,80.21,0,0,1-28.38-29.38q-10-18-16-43.32l-80.09,15.27a219.23,219.23,0,0,0,29.69,79.62,181.71,181.71,0,0,0,59.9,59.79q57.1,35.43,109.91,27.71t87.81-64.14q16.88-27.2,17.5-55.52t-6.55-71.38q-7.08-40.19-6.83-66.38t15.44-50.68a65.75,65.75,0,0,1,7-9.77l-81.57-50.62Q250.79,1963.78,247.42,1969.23Z"/><path class="cls-1" d="M400.92,1815.92q-24.47-15.18-51.33-8.31t-42.89,32.7q-16,25.83-10.26,52.95t30.24,42.3q24.47,15.18,51.33,8.31t42.89-32.7q16-25.84,10.26-52.95T400.92,1815.92Z"/><path class="cls-1" d="M1491.95,1493.56q-13.92,27.25-4.28,55.08a71.06,71.06,0,0,0,12.34,22.11v-89.9A78.41,78.41,0,0,0,1491.95,1493.56Z"/><path class="cls-1" d="M1414.61,1381.51q-14.61-23.68-30.24-64.12-17.11-43.1-33.24-68.52T1304.72,1208q-62.82-32.09-115.1-10.11t-84.75,85.56a193.07,193.07,0,0,0-21.66,87.25,232.89,232.89,0,0,0,16.72,88.72l81.23-30.09q-8.51-26.3-9.28-48.17a85.23,85.23,0,0,1,9.68-42.3q12.76-25,34.3-32.59t45.77,4.77q16.66,8.51,27.34,25.9t24.08,51q17.48,44.25,35.87,72.73t52.45,45.88q6.07,3.1,20.45,8.54l46.4-90.83a70,70,0,0,1-11.74-5Q1429.23,1405.21,1414.61,1381.51Z"/><path class="cls-1" d="M23.16,1097.78q5,64.19,17.37,108.33T90,1286.35q6.6,6.42,23,19.2l96.28-98.9q-4.93-3.16-13.17-11.2-29.67-28.86-39.13-65.32t-13.52-95q-4.93-62.53-15.64-101.84T84.14,861.91Q43.47,822.36,0,809V993.43a98.52,98.52,0,0,1,12.36,28.87Q19.23,1049.06,23.16,1097.78Z"/><path class="cls-1" d="M217.47,1445.6q31.33,30.48,71.18,30.74t68.72-29.42q28.86-29.67,27.5-69.51t-32.7-70.3q-31.32-30.46-71.17-30.72t-68.72,29.42q-28.87,29.69-27.5,69.51T217.47,1445.6Z"/><path class="cls-1" d="M1137.65,334.35q34.17-11.32,49.1-42.6t3-67.35q-12-36.09-42.59-52.26t-64.82-4.87q-34.17,11.32-49.1,42.6t-3,67.35q11.94,36.06,42.59,52.26T1137.65,334.35Z"/><path class="cls-1" d="M1106.47,437.38q14.15,42.72,44,69.18t78.16,54.7q36.62,21.57,55,37.1t25.16,36.39q10.06,30.37-2.63,54.07t-44,34.07a100.25,100.25,0,0,1-50.92,3.7q-25.29-4.81-54.36-19.39l-49.5,89.08a274,274,0,0,0,100.18,35.29q53.11,7.69,105.32-9.6,79.74-26.41,114.63-83.27t8.8-135.64q-12.58-38-39.25-61.26t-73.74-50.9q-44.24-25.4-69.17-46.62t-36.26-55.41a82.26,82.26,0,0,1-3.77-14.55L1100.21,412Q1103.94,429.75,1106.47,437.38Z"/></svg>