<?xml version="1.0" encoding="utf-8"?>
<!-- Generator: Adobe Illustrator 22.1.0, SVG Export Plug-In . SVG Version: 6.00 Build 0)  -->
<svg version="1.1" id="Vrstva_1" xmlns="http://www.w3.org/2000/svg" xmlns:xlink="http://www.w3.org/1999/xlink" x="0px" y="0px"
	 viewBox="0 0 68.7 68.7" style="enable-background:new 0 0 68.7 68.7;" xml:space="preserve">
<style type="text/css">
	.st0{fill:#FFFFFF;}
</style>
<g>
	<g>
		<path class="st0" d="M51.3,50l-4-9.8c-0.1-0.3-0.4-0.5-0.7-0.5h0c0,0-4.1,0-7.6,0l-0.9,1.6c2.9,0,6.6,0,8,0l3.3,8.2l-15.3-0.1
			c0,0,0,0,0,0h0c0,0,0,0,0,0l-15.3,0.1l3.3-8.1l8,0l-0.9-1.6l-7.6,0c-0.3,0-0.6,0.2-0.7,0.5l-4,9.7c-0.1,0.2-0.1,0.5,0.1,0.8
			c0.2,0.2,0.4,0.4,0.7,0.4c0,0,0,0,0,0L34.1,51l16.5,0.1c0,0,0,0,0,0c0.3,0,0.5-0.1,0.7-0.4C51.4,50.5,51.4,50.2,51.3,50z"/>
		<polyline class="st0" points="33.1,41.3 34,43 35,41.3 		"/>
		<line class="st0" x1="32.2" y1="39.7" x2="33.1" y2="41.3"/>
		<line class="st0" x1="35" y1="41.3" x2="35.9" y2="39.7"/>
	</g>
	<path class="st0" d="M34,21.3c1.1,0,2.1-0.9,2.1-2.1s-0.9-2.1-2.1-2.1S32,18.1,32,19.2S32.9,21.3,34,21.3z"/>
	<path class="st0" d="M33.3,45.2c0.2,0.3,0.5,0.4,0.8,0.4s0.6-0.2,0.8-0.4l11-19.1c2.5-4.3,2.5-9.4,0-13.6C43.4,8.1,39,5.6,34,5.6
		s-9.3,2.5-11.8,6.8c-2.5,4.3-2.5,9.4,0,13.6L33.3,45.2z M23.8,13.3c2.1-3.7,6-5.9,10.3-5.9s8.1,2.2,10.3,5.9
		c2.1,3.7,2.1,8.1,0,11.9L34,43L23.8,25.2C21.6,21.4,21.6,17,23.8,13.3z"/>
</g>
</svg>
