<?xml version="1.0" encoding="utf-8"?>
<!-- Generator: Adobe Illustrator 22.1.0, SVG Export Plug-In . SVG Version: 6.00 Build 0)  -->
<svg version="1.1" id="Vrstva_1" xmlns="http://www.w3.org/2000/svg" xmlns:xlink="http://www.w3.org/1999/xlink" x="0px" y="0px"
	 viewBox="0 0 68.7 68.7" style="enable-background:new 0 0 68.7 68.7;" xml:space="preserve">
<style type="text/css">
	.st0{fill:#FFFFFF;}
</style>
<path class="st0" d="M18.4,30.7l13.5-13.5V48c0,0.5,0.4,1,1,1s1-0.4,1-1V17.2l13.6,13.6c0.4,0.4,1,0.4,1.4,0
	c0.2-0.2,0.3-0.4,0.3-0.7c0-0.3-0.1-0.5-0.3-0.7L33.6,14.1c0,0-0.1-0.1-0.2-0.1l-0.1,0c0,0-0.1,0-0.1-0.1c0,0-0.1,0-0.1,0l-0.1,0
	c-0.1,0-0.1,0-0.2,0c-0.1,0-0.1,0-0.2,0c0,0,0,0-0.1,0c0,0-0.1,0-0.1,0c0,0,0,0-0.1,0c0,0-0.1,0-0.1,0c0,0-0.1,0-0.1,0.1l-0.1,0
	L17,29.3c-0.2,0.2-0.3,0.4-0.3,0.7c0,0.3,0.1,0.5,0.3,0.7C17.4,31.1,18,31.1,18.4,30.7z M32.6,14.1L32.6,14.1L32.6,14.1L32.6,14.1
	L32.6,14.1z M32.6,14.1L32.6,14.1L32.6,14.1L32.6,14.1z"/>
<path class="st0" d="M49.8,48.7c-0.5,0-1,0.4-1,1v3.9H17v-3.9c0-0.5-0.4-1-1-1s-1,0.4-1,1v4.9c0,0.5,0.4,1,1,1h33.8c0.5,0,1-0.4,1-1
	v-4.9C50.8,49.1,50.4,48.7,49.8,48.7z"/>
</svg>
