<?xml version="1.0" encoding="utf-8"?>
<!-- Generator: Adobe Illustrator 21.0.0, SVG Export Plug-In . SVG Version: 6.00 Build 0)  -->
<svg version="1.1" id="Vrstva_1" xmlns="http://www.w3.org/2000/svg" xmlns:xlink="http://www.w3.org/1999/xlink" x="0px" y="0px"
	 viewBox="0 0 349.8 350" style="enable-background:new 0 0 349.8 350;" xml:space="preserve">
<style type="text/css">
	.st0{fill:#FFFFFF;}
</style>
<path class="st0" d="M224.4,175l74.1-74.1c13.7-13.7,13.7-35.8,0-49.5c-13.7-13.7-35.8-13.7-49.5,0l-74.1,74.1l-74.1-74.1
	c-13.7-13.7-35.8-13.7-49.5,0c-13.7,13.7-13.7,35.8,0,49.5l74.1,74.1l-74.1,74.1c-13.7,13.7-13.7,35.8,0,49.5
	c6.8,6.8,15.8,10.3,24.7,10.3c9,0,17.9-3.4,24.7-10.3l74.1-74.1l74.1,74.1c6.8,6.8,15.8,10.3,24.7,10.3s17.9-3.4,24.7-10.3
	c13.7-13.7,13.7-35.8,0-49.5L224.4,175z"/>
</svg>
